<?xml version="1.0" encoding="iso-8859-1"?>
<!-- Uploaded to: SVG Repo, www.svgrepo.com, Generator: SVG Repo Mixer Tools -->
<svg height="60px" width="60px" version="1.1" id="Layer_1" xmlns="http://www.w3.org/2000/svg" xmlns:xlink="http://www.w3.org/1999/xlink" 
	 viewBox="0 0 504.123 504.123" xml:space="preserve">
<circle style="fill:#E81542;" cx="252.062" cy="252.062" r="252.062"/>
<path style="fill:#CC092E;" d="M73.83,73.83c98.43-98.438,258.032-98.438,356.462,0c98.438,98.438,98.438,258.032,0,356.462"/>
<path style="fill:#B2042E;" d="M409.6,303.915c0,8.696-7.058,15.754-15.754,15.754H110.277c-8.696,0-15.754-7.058-15.754-15.754
	v-66.954c0-8.696,7.058-15.754,15.754-15.754h283.569c8.696,0,15.754,7.058,15.754,15.754V303.915z"/>
<path style="fill:#F9F9F9;" d="M409.6,285.538c0,8.696-7.058,15.754-15.754,15.754H110.277c-8.696,0-15.754-7.058-15.754-15.754
	v-66.954c0-8.696,7.058-15.754,15.754-15.754h283.569c8.696,0,15.754,7.058,15.754,15.754V285.538z"/>
<path style="fill:#E0E0E0;" d="M393.846,202.831H202.831l98.462,98.462h92.554c8.696,0,15.754-7.058,15.754-15.754v-66.954
	C409.6,209.888,402.542,202.831,393.846,202.831z"/>
</svg>