<svg width="102" height="221" viewBox="0 0 102 221" fill="none" xmlns="http://www.w3.org/2000/svg">
<g filter="url(#filter0_d_18_9360)">
<rect width="100" height="219" transform="translate(1 1)" fill="#F7F7F7"/>
<rect width="100" height="13" transform="translate(1 1)" fill="#434343"/>
<rect x="5" y="5" width="6" height="1" fill="white"/>
<rect x="5" y="7" width="6" height="1" fill="white"/>
<rect x="5" y="9" width="6" height="1" fill="white"/>
<rect x="15" y="5.5" width="28" height="4" fill="white"/>
<rect x="6.5" y="17.5" width="89" height="27" fill="white"/>
<rect width="88" height="26" transform="translate(7 18)" fill="white"/>
<rect x="11" y="22" width="28" height="4" fill="#434343"/>
<rect x="11" y="30" width="80" height="2" fill="#434343"/>
<rect x="11" y="34" width="80" height="2" fill="#434343"/>
<rect x="11" y="38" width="56" height="2" fill="#434343"/>
<rect x="6.5" y="17.5" width="89" height="27" stroke="#DDDDDD"/>
<rect x="6.5" y="47.5" width="89" height="105" fill="white"/>
<rect width="88" height="26" transform="translate(7 48)" fill="white"/>
<rect x="11" y="52" width="28" height="4" fill="#434343"/>
<rect x="11" y="60" width="80" height="2" fill="#434343"/>
<rect x="11" y="64" width="80" height="2" fill="#434343"/>
<rect x="11" y="68" width="56" height="2" fill="#434343"/>
<rect width="88" height="20" transform="translate(7 74)" fill="white"/>
<rect x="11.5" y="78.5" width="15" height="1" fill="white" stroke="#434343"/>
<rect x="11.5" y="82.5" width="79" height="7" rx="0.5" fill="white" stroke="#0000FF"/>
<rect width="88" height="20" transform="translate(7 94)" fill="white"/>
<rect x="11.5" y="98.5" width="15" height="1" fill="white" stroke="#434343"/>
<rect x="11.5" y="102.5" width="79" height="7" rx="0.5" fill="white" stroke="#434343"/>
<rect width="88" height="20" transform="translate(7 114)" fill="white"/>
<rect x="11.5" y="118.5" width="15" height="1" fill="white" stroke="#434343"/>
<rect x="11.5" y="122.5" width="79" height="7" rx="0.5" fill="white" stroke="#434343"/>
<rect width="88" height="18" transform="translate(7 134)" fill="white"/>
<rect x="31" y="138" width="40" height="10" rx="3" fill="#39A71B"/>
<rect x="43.5" y="142.5" width="15" height="1" fill="white" stroke="white"/>
<rect x="6.5" y="47.5" width="89" height="105" stroke="#DDDDDD"/>
<rect x="6.5" y="155.5" width="89" height="27" fill="white"/>
<rect width="88" height="26" transform="translate(7 156)" fill="white"/>
<rect x="11" y="160" width="28" height="4" fill="#434343"/>
<rect x="11" y="168" width="80" height="2" fill="#434343"/>
<rect x="11" y="172" width="80" height="2" fill="#434343"/>
<rect x="11" y="176" width="56" height="2" fill="#434343"/>
<rect x="6.5" y="155.5" width="89" height="27" stroke="#DDDDDD"/>
<rect x="6.5" y="185.5" width="89" height="27" fill="white"/>
<rect width="88" height="26" transform="translate(7 186)" fill="white"/>
<rect x="11" y="190" width="28" height="4" fill="#434343"/>
<rect x="11" y="198" width="80" height="2" fill="#434343"/>
<rect x="11" y="202" width="80" height="2" fill="#434343"/>
<rect x="11" y="206" width="56" height="2" fill="#434343"/>
<rect x="6.5" y="185.5" width="89" height="27" stroke="#DDDDDD"/>
</g>
<defs>
<filter id="filter0_d_18_9360" x="0" y="0" width="102" height="221" filterUnits="userSpaceOnUse" color-interpolation-filters="sRGB">
<feFlood flood-opacity="0" result="BackgroundImageFix"/>
<feColorMatrix in="SourceAlpha" type="matrix" values="0 0 0 0 0 0 0 0 0 0 0 0 0 0 0 0 0 0 127 0" result="hardAlpha"/>
<feOffset/>
<feGaussianBlur stdDeviation="0.5"/>
<feComposite in2="hardAlpha" operator="out"/>
<feColorMatrix type="matrix" values="0 0 0 0 0.988235 0 0 0 0 0.133333 0 0 0 0 0.576471 0 0 0 1 0"/>
<feBlend mode="normal" in2="BackgroundImageFix" result="effect1_dropShadow_18_9360"/>
<feBlend mode="normal" in="SourceGraphic" in2="effect1_dropShadow_18_9360" result="shape"/>
</filter>
</defs>
</svg>
