<svg width="102" height="156" viewBox="0 0 102 156" fill="none" xmlns="http://www.w3.org/2000/svg">
<g filter="url(#filter0_d_8_9338)">
<rect width="100" height="154" transform="translate(1 1)" fill="white"/>
<rect width="84" height="54" transform="translate(9 9)" fill="white"/>
<rect x="9" y="9" width="84" height="8" fill="#434343"/>
<rect x="9" y="21" width="84" height="4" fill="#39A71B"/>
<rect x="9" y="27" width="84" height="4" fill="#39A71B"/>
<rect x="9" y="35" width="84" height="4" fill="#6751A5"/>
<rect x="9" y="43" width="84" height="4" fill="#FEC53E"/>
<rect width="84" height="17" transform="translate(9 67)" fill="#434343"/>
<path d="M16.4199 74.9258V76.3438H12.9219V74.9258H16.4199ZM13.4082 71.4688V80H11.6914V71.4688H13.4082ZM17.6621 71.4688V80H15.9629V71.4688H17.6621ZM21.5352 80.1172C21.1016 80.1172 20.7168 80.0508 20.3809 79.918C20.0488 79.7852 19.7676 79.5938 19.5371 79.3438C19.3066 79.0898 19.1309 78.7832 19.0098 78.4238C18.8887 78.0645 18.8281 77.6543 18.8281 77.1934V76.6719C18.8281 76.1562 18.8867 75.7051 19.0039 75.3184C19.1211 74.9277 19.2871 74.5996 19.502 74.334C19.7168 74.0684 19.9805 73.8711 20.293 73.7422C20.6094 73.6094 20.9668 73.543 21.3652 73.543C21.7637 73.543 22.1133 73.6094 22.4141 73.7422C22.7188 73.8711 22.9707 74.0664 23.1699 74.3281C23.3691 74.5859 23.5195 74.9062 23.6211 75.2891C23.7227 75.6719 23.7734 76.1172 23.7734 76.625V77.375H19.5254V76.2207H22.1621V76.0742C22.1621 75.8164 22.1348 75.6016 22.0801 75.4297C22.0254 75.2539 21.9395 75.123 21.8223 75.0371C21.7051 74.9512 21.5488 74.9082 21.3535 74.9082C21.1895 74.9082 21.0508 74.9414 20.9375 75.0078C20.8242 75.0742 20.7344 75.1777 20.668 75.3184C20.6016 75.459 20.5527 75.6426 20.5215 75.8691C20.4902 76.0918 20.4746 76.3594 20.4746 76.6719V77.1934C20.4746 77.4863 20.5 77.7324 20.5508 77.9316C20.6016 78.127 20.6758 78.2871 20.7734 78.4121C20.875 78.5332 20.998 78.6211 21.1426 78.6758C21.2871 78.7266 21.4551 78.752 21.6465 78.752C21.9355 78.752 22.1953 78.7012 22.4258 78.5996C22.6602 78.4941 22.8594 78.3516 23.0234 78.1719L23.6797 79.168C23.5664 79.3164 23.4102 79.4648 23.2109 79.6133C23.0117 79.7617 22.7734 79.8828 22.4961 79.9766C22.2188 80.0703 21.8984 80.1172 21.5352 80.1172ZM27.5176 78.541V75.6113C27.5176 75.4199 27.4941 75.2676 27.4473 75.1543C27.4043 75.041 27.3379 74.959 27.248 74.9082C27.1621 74.8535 27.0566 74.8262 26.9316 74.8262C26.791 74.8262 26.6738 74.8555 26.5801 74.9141C26.4863 74.9727 26.416 75.0566 26.3691 75.166C26.3262 75.2754 26.3047 75.4062 26.3047 75.5586H24.6582C24.6582 75.2852 24.7109 75.0273 24.8164 74.7852C24.9219 74.5391 25.0762 74.3242 25.2793 74.1406C25.4863 73.9531 25.7324 73.8066 26.0176 73.7012C26.3027 73.5957 26.623 73.543 26.9785 73.543C27.4004 73.543 27.7754 73.6152 28.1035 73.7598C28.4316 73.9004 28.6914 74.125 28.8828 74.4336C29.0742 74.7422 29.1699 75.1426 29.1699 75.6348V78.459C29.1699 78.8145 29.1875 79.1035 29.2227 79.3262C29.2617 79.5488 29.3184 79.7402 29.3926 79.9004V80H27.7402C27.666 79.8242 27.6094 79.6055 27.5703 79.3438C27.5352 79.0781 27.5176 78.8105 27.5176 78.541ZM27.7168 76.127L27.7227 77.1113H27.1191C26.9629 77.1113 26.8262 77.1367 26.709 77.1875C26.5957 77.2383 26.5 77.3105 26.4219 77.4043C26.3438 77.4941 26.2852 77.5996 26.2461 77.7207C26.2109 77.8418 26.1934 77.9707 26.1934 78.1074C26.1934 78.2598 26.2148 78.3887 26.2578 78.4941C26.3008 78.5996 26.3652 78.6797 26.4512 78.7344C26.5371 78.7891 26.6387 78.8164 26.7559 78.8164C26.9355 78.8164 27.0918 78.7793 27.2246 78.7051C27.3574 78.6309 27.4551 78.541 27.5176 78.4355C27.584 78.3301 27.6055 78.2324 27.582 78.1426L27.957 78.7812C27.9102 78.9258 27.8457 79.0762 27.7637 79.2324C27.6855 79.3887 27.5859 79.5332 27.4648 79.666C27.3438 79.7988 27.1934 79.9082 27.0137 79.9941C26.8379 80.0762 26.6289 80.1172 26.3867 80.1172C26.0469 80.1172 25.7363 80.0391 25.4551 79.8828C25.1738 79.7266 24.9512 79.5078 24.7871 79.2266C24.627 78.9453 24.5469 78.6113 24.5469 78.2246C24.5469 77.9043 24.5977 77.6152 24.6992 77.3574C24.8047 77.0957 24.9609 76.875 25.168 76.6953C25.375 76.5117 25.6367 76.3711 25.9531 76.2734C26.2695 76.1758 26.6406 76.127 27.0664 76.127H27.7168ZM33.4531 78.5996V71H35.0996V80L33.6113 80.0059L33.4531 78.5996ZM30.166 77.0527V76.6309C30.166 76.1152 30.209 75.6641 30.2949 75.2773C30.3848 74.8906 30.5176 74.5684 30.6934 74.3105C30.8691 74.0527 31.084 73.8613 31.3379 73.7363C31.5957 73.6074 31.8906 73.543 32.2227 73.543C32.5234 73.543 32.7871 73.6191 33.0137 73.7715C33.2441 73.9199 33.4395 74.1289 33.5996 74.3984C33.7598 74.668 33.8887 74.9863 33.9863 75.3535C34.084 75.7207 34.1523 76.123 34.1914 76.5605V77.1699C34.1445 77.584 34.0723 77.9707 33.9746 78.3301C33.8809 78.6895 33.752 79.002 33.5879 79.2676C33.4277 79.5332 33.2344 79.7422 33.0078 79.8945C32.7812 80.043 32.5176 80.1172 32.2168 80.1172C31.8848 80.1172 31.5898 80.0508 31.332 79.918C31.0781 79.7852 30.8633 79.5898 30.6875 79.332C30.5156 79.0703 30.3848 78.75 30.2949 78.3711C30.209 77.9883 30.166 77.5488 30.166 77.0527ZM31.8066 76.6309V77.0527C31.8066 77.3496 31.8203 77.6055 31.8477 77.8203C31.8789 78.0312 31.9277 78.2051 31.9941 78.3418C32.0645 78.4746 32.1562 78.5742 32.2695 78.6406C32.3828 78.7031 32.5234 78.7344 32.6914 78.7344C32.9102 78.7344 33.0879 78.6797 33.2246 78.5703C33.3613 78.457 33.4629 78.3027 33.5293 78.1074C33.5996 77.9082 33.6387 77.6797 33.6465 77.4219V76.3145C33.6387 76.0996 33.6133 75.9062 33.5703 75.7344C33.5273 75.5625 33.4668 75.416 33.3887 75.2949C33.3105 75.1738 33.2129 75.0801 33.0957 75.0137C32.9824 74.9473 32.8496 74.9141 32.6973 74.9141C32.5332 74.9141 32.3926 74.9473 32.2754 75.0137C32.1621 75.0801 32.0723 75.1836 32.0059 75.3242C31.9395 75.4609 31.8887 75.6387 31.8535 75.8574C31.8223 76.0723 31.8066 76.3301 31.8066 76.6309ZM38.0586 71V80H36.4121V71H38.0586ZM41.082 73.6602V80H39.4355V73.6602H41.082ZM39.3594 72.0195C39.3594 71.7656 39.4395 71.5566 39.5996 71.3926C39.7637 71.2246 39.9824 71.1406 40.2559 71.1406C40.5332 71.1406 40.752 71.2246 40.9121 71.3926C41.0723 71.5566 41.1523 71.7656 41.1523 72.0195C41.1523 72.2695 41.0703 72.4785 40.9062 72.6465C40.7461 72.8105 40.5312 72.8926 40.2617 72.8926C39.9844 72.8926 39.7637 72.8105 39.5996 72.6465C39.4395 72.4785 39.3594 72.2695 39.3594 72.0195ZM43.9941 75.0137V80H42.3477V73.6602H43.8887L43.9941 75.0137ZM43.748 76.6133L43.3086 76.625C43.3008 76.1484 43.3457 75.7207 43.4434 75.3418C43.5449 74.9629 43.6875 74.6406 43.8711 74.375C44.0586 74.1055 44.2812 73.9004 44.5391 73.7598C44.8008 73.6152 45.0918 73.543 45.4121 73.543C45.6582 73.543 45.8828 73.5859 46.0859 73.6719C46.293 73.7578 46.4707 73.8945 46.6191 74.082C46.7676 74.2695 46.8828 74.5195 46.9648 74.832C47.0469 75.1406 47.0879 75.5195 47.0879 75.9688V80H45.4414V75.957C45.4414 75.6836 45.4141 75.4727 45.3594 75.3242C45.3047 75.1719 45.2227 75.0664 45.1133 75.0078C45.0039 74.9453 44.8672 74.9141 44.7031 74.9141C44.5469 74.9141 44.4082 74.959 44.2871 75.0488C44.166 75.1348 44.0645 75.2539 43.9824 75.4062C43.9043 75.5586 43.8438 75.7383 43.8008 75.9453C43.7617 76.1523 43.7441 76.375 43.748 76.6133ZM50.8438 80.1172C50.4102 80.1172 50.0254 80.0508 49.6895 79.918C49.3574 79.7852 49.0762 79.5938 48.8457 79.3438C48.6152 79.0898 48.4395 78.7832 48.3184 78.4238C48.1973 78.0645 48.1367 77.6543 48.1367 77.1934V76.6719C48.1367 76.1562 48.1953 75.7051 48.3125 75.3184C48.4297 74.9277 48.5957 74.5996 48.8105 74.334C49.0254 74.0684 49.2891 73.8711 49.6016 73.7422C49.918 73.6094 50.2754 73.543 50.6738 73.543C51.0723 73.543 51.4219 73.6094 51.7227 73.7422C52.0273 73.8711 52.2793 74.0664 52.4785 74.3281C52.6777 74.5859 52.8281 74.9062 52.9297 75.2891C53.0312 75.6719 53.082 76.1172 53.082 76.625V77.375H48.834V76.2207H51.4707V76.0742C51.4707 75.8164 51.4434 75.6016 51.3887 75.4297C51.334 75.2539 51.248 75.123 51.1309 75.0371C51.0137 74.9512 50.8574 74.9082 50.6621 74.9082C50.498 74.9082 50.3594 74.9414 50.2461 75.0078C50.1328 75.0742 50.043 75.1777 49.9766 75.3184C49.9102 75.459 49.8613 75.6426 49.8301 75.8691C49.7988 76.0918 49.7832 76.3594 49.7832 76.6719V77.1934C49.7832 77.4863 49.8086 77.7324 49.8594 77.9316C49.9102 78.127 49.9844 78.2871 50.082 78.4121C50.1836 78.5332 50.3066 78.6211 50.4512 78.6758C50.5957 78.7266 50.7637 78.752 50.9551 78.752C51.2441 78.752 51.5039 78.7012 51.7344 78.5996C51.9688 78.4941 52.168 78.3516 52.332 78.1719L52.9883 79.168C52.875 79.3164 52.7188 79.4648 52.5195 79.6133C52.3203 79.7617 52.082 79.8828 51.8047 79.9766C51.5273 80.0703 51.207 80.1172 50.8438 80.1172Z" fill="white"/>
<rect width="84" height="17" transform="translate(9 88)" fill="#39A71B"/>
<path d="M13.918 101H12.4121L12.4238 99.582H13.918C14.332 99.582 14.6543 99.5078 14.8848 99.3594C15.1152 99.2109 15.2773 98.9766 15.3711 98.6562C15.4688 98.3359 15.5176 97.916 15.5176 97.3965V96.0664C15.5176 95.6719 15.4922 95.3379 15.4414 95.0645C15.3906 94.7871 15.3047 94.5645 15.1836 94.3965C15.0625 94.2246 14.9004 94.0977 14.6973 94.0156C14.4941 93.9336 14.2422 93.8926 13.9414 93.8926H12.3828V92.4688H13.9414C14.4336 92.4688 14.8809 92.5488 15.2832 92.709C15.6855 92.8691 16.0312 93.1035 16.3203 93.4121C16.6094 93.7168 16.832 94.0938 16.9883 94.543C17.1445 94.9922 17.2227 95.5039 17.2227 96.0781V97.3965C17.2227 97.9746 17.1445 98.4863 16.9883 98.9316C16.832 99.377 16.6094 99.7539 16.3203 100.062C16.0352 100.367 15.6895 100.6 15.2832 100.76C14.877 100.92 14.4219 101 13.918 101ZM13.4082 92.4688V101H11.6914V92.4688H13.4082ZM20.9492 101.117C20.5156 101.117 20.1309 101.051 19.7949 100.918C19.4629 100.785 19.1816 100.594 18.9512 100.344C18.7207 100.09 18.5449 99.7832 18.4238 99.4238C18.3027 99.0645 18.2422 98.6543 18.2422 98.1934V97.6719C18.2422 97.1562 18.3008 96.7051 18.418 96.3184C18.5352 95.9277 18.7012 95.5996 18.916 95.334C19.1309 95.0684 19.3945 94.8711 19.707 94.7422C20.0234 94.6094 20.3809 94.543 20.7793 94.543C21.1777 94.543 21.5273 94.6094 21.8281 94.7422C22.1328 94.8711 22.3848 95.0664 22.584 95.3281C22.7832 95.5859 22.9336 95.9062 23.0352 96.2891C23.1367 96.6719 23.1875 97.1172 23.1875 97.625V98.375H18.9395V97.2207H21.5762V97.0742C21.5762 96.8164 21.5488 96.6016 21.4941 96.4297C21.4395 96.2539 21.3535 96.123 21.2363 96.0371C21.1191 95.9512 20.9629 95.9082 20.7676 95.9082C20.6035 95.9082 20.4648 95.9414 20.3516 96.0078C20.2383 96.0742 20.1484 96.1777 20.082 96.3184C20.0156 96.459 19.9668 96.6426 19.9355 96.8691C19.9043 97.0918 19.8887 97.3594 19.8887 97.6719V98.1934C19.8887 98.4863 19.9141 98.7324 19.9648 98.9316C20.0156 99.127 20.0898 99.2871 20.1875 99.4121C20.2891 99.5332 20.4121 99.6211 20.5566 99.6758C20.7012 99.7266 20.8691 99.752 21.0605 99.752C21.3496 99.752 21.6094 99.7012 21.8398 99.5996C22.0742 99.4941 22.2734 99.3516 22.4375 99.1719L23.0938 100.168C22.9805 100.316 22.8242 100.465 22.625 100.613C22.4258 100.762 22.1875 100.883 21.9102 100.977C21.6328 101.07 21.3125 101.117 20.9492 101.117ZM26.9492 99.2891C26.9492 99.1797 26.9121 99.082 26.8379 98.9961C26.7637 98.9102 26.6465 98.8223 26.4863 98.7324C26.3262 98.6387 26.1133 98.5352 25.8477 98.4219C25.5586 98.3047 25.3027 98.1836 25.0801 98.0586C24.8574 97.9336 24.668 97.7949 24.5117 97.6426C24.3594 97.4902 24.2441 97.3164 24.166 97.1211C24.0879 96.9258 24.0488 96.7031 24.0488 96.4531C24.0488 96.1836 24.0977 95.9355 24.1953 95.709C24.2969 95.4785 24.4414 95.2773 24.6289 95.1055C24.8164 94.9297 25.0449 94.793 25.3145 94.6953C25.5879 94.5938 25.8945 94.543 26.2344 94.543C26.7109 94.543 27.1191 94.627 27.459 94.7949C27.8027 94.959 28.0664 95.1895 28.25 95.4863C28.4336 95.7832 28.5254 96.1289 28.5254 96.5234H26.8848C26.8848 96.3828 26.8633 96.2578 26.8203 96.1484C26.7773 96.0352 26.707 95.9473 26.6094 95.8848C26.5156 95.8223 26.3887 95.791 26.2285 95.791C26.1113 95.791 26.0059 95.8164 25.9121 95.8672C25.8223 95.918 25.75 95.9863 25.6953 96.0723C25.6445 96.1543 25.6191 96.252 25.6191 96.3652C25.6191 96.4512 25.6367 96.5273 25.6719 96.5938C25.7109 96.6602 25.7715 96.7246 25.8535 96.7871C25.9355 96.8496 26.0449 96.916 26.1816 96.9863C26.3223 97.0527 26.4941 97.127 26.6973 97.209C27.1191 97.3652 27.4648 97.5332 27.7344 97.7129C28.0078 97.8926 28.2109 98.1035 28.3438 98.3457C28.4766 98.584 28.543 98.8789 28.543 99.2305C28.543 99.5117 28.4883 99.7676 28.3789 99.998C28.2734 100.229 28.1191 100.428 27.916 100.596C27.7129 100.764 27.4688 100.893 27.1836 100.982C26.9023 101.072 26.5879 101.117 26.2402 101.117C25.7285 101.117 25.2969 101.016 24.9453 100.812C24.5938 100.609 24.3281 100.35 24.1484 100.033C23.9688 99.7129 23.8789 99.3809 23.8789 99.0371H25.4375C25.4453 99.248 25.4844 99.4141 25.5547 99.5352C25.6289 99.6523 25.7285 99.7344 25.8535 99.7812C25.9785 99.8281 26.1172 99.8516 26.2695 99.8516C26.4219 99.8516 26.5469 99.832 26.6445 99.793C26.7461 99.75 26.8223 99.6855 26.873 99.5996C26.9238 99.5098 26.9492 99.4062 26.9492 99.2891ZM31.877 99.752C32.0293 99.752 32.1602 99.7207 32.2695 99.6582C32.3828 99.5957 32.4688 99.4941 32.5273 99.3535C32.5859 99.2129 32.6172 99.0312 32.6211 98.8086H34.1621C34.1621 99.2852 34.0605 99.6973 33.8574 100.045C33.6582 100.389 33.3887 100.654 33.0488 100.842C32.7129 101.025 32.332 101.117 31.9062 101.117C31.4805 101.117 31.1094 101.049 30.793 100.912C30.4766 100.775 30.2148 100.576 30.0078 100.314C29.8047 100.053 29.6504 99.7344 29.5449 99.3594C29.4434 98.9805 29.3926 98.5469 29.3926 98.0586V97.5957C29.3926 97.1152 29.4434 96.6855 29.5449 96.3066C29.6504 95.9277 29.8047 95.6074 30.0078 95.3457C30.2148 95.084 30.4746 94.8848 30.7871 94.748C31.1035 94.6113 31.4746 94.543 31.9004 94.543C32.3574 94.543 32.7539 94.6387 33.0898 94.8301C33.4258 95.0176 33.6875 95.2949 33.875 95.6621C34.0664 96.0293 34.1621 96.4824 34.1621 97.0215H32.6211C32.6172 96.7793 32.5879 96.5781 32.5332 96.418C32.4824 96.2539 32.4023 96.1289 32.293 96.043C32.1875 95.9531 32.0469 95.9082 31.8711 95.9082C31.6875 95.9082 31.5391 95.9473 31.4258 96.0254C31.3164 96.0996 31.2324 96.209 31.1738 96.3535C31.1191 96.4941 31.082 96.6699 31.0625 96.8809C31.043 97.0918 31.0332 97.3301 31.0332 97.5957V98.0586C31.0332 98.3438 31.041 98.5918 31.0566 98.8027C31.0762 99.0098 31.1133 99.1855 31.168 99.3301C31.2266 99.4707 31.3105 99.5762 31.4199 99.6465C31.5332 99.7168 31.6855 99.752 31.877 99.752ZM36.7461 96.0723V101H35.1055V94.6602H36.6523L36.7461 96.0723ZM38.2402 94.6133L38.2168 96.248C38.1426 96.2324 38.0527 96.2207 37.9473 96.2129C37.8457 96.2051 37.7559 96.2012 37.6777 96.2012C37.4941 96.2012 37.3379 96.2305 37.209 96.2891C37.0801 96.3438 36.9727 96.4277 36.8867 96.541C36.8047 96.6504 36.7422 96.7871 36.6992 96.9512C36.6562 97.1152 36.6309 97.3008 36.623 97.5078L36.3125 97.3906C36.3125 96.9766 36.3438 96.5977 36.4062 96.2539C36.4727 95.9062 36.5703 95.6055 36.6992 95.3516C36.8281 95.0938 36.9824 94.8945 37.1621 94.7539C37.3457 94.6133 37.5527 94.543 37.7832 94.543C37.8613 94.543 37.9434 94.5508 38.0293 94.5664C38.1191 94.5781 38.1895 94.5938 38.2402 94.6133ZM40.8008 94.6602V101H39.1543V94.6602H40.8008ZM39.0781 93.0195C39.0781 92.7656 39.1582 92.5566 39.3184 92.3926C39.4824 92.2246 39.7012 92.1406 39.9746 92.1406C40.252 92.1406 40.4707 92.2246 40.6309 92.3926C40.791 92.5566 40.8711 92.7656 40.8711 93.0195C40.8711 93.2695 40.7891 93.4785 40.625 93.6465C40.4648 93.8105 40.25 93.8926 39.9805 93.8926C39.7031 93.8926 39.4824 93.8105 39.3184 93.6465C39.1582 93.4785 39.0781 93.2695 39.0781 93.0195ZM43.7422 95.8789V103.438H42.1074V94.6602H43.6191L43.7422 95.8789ZM47.0352 97.6133V98.0352C47.0352 98.5312 46.9922 98.9707 46.9062 99.3535C46.8203 99.7324 46.6914 100.055 46.5195 100.32C46.3516 100.582 46.1406 100.781 45.8867 100.918C45.6328 101.051 45.3359 101.117 44.9961 101.117C44.6797 101.117 44.4062 101.043 44.1758 100.895C43.9492 100.742 43.7578 100.533 43.6016 100.268C43.4453 100.002 43.3203 99.6914 43.2266 99.3359C43.1328 98.9805 43.0605 98.5996 43.0098 98.1934V97.5371C43.0566 97.1035 43.125 96.7051 43.2148 96.3418C43.3047 95.9746 43.4277 95.6562 43.584 95.3867C43.7441 95.1172 43.9375 94.9102 44.1641 94.7656C44.3945 94.6172 44.668 94.543 44.9844 94.543C45.3281 94.543 45.627 94.6055 45.8809 94.7305C46.1387 94.8555 46.3516 95.0449 46.5195 95.2988C46.6914 95.5488 46.8203 95.8672 46.9062 96.2539C46.9922 96.6406 47.0352 97.0938 47.0352 97.6133ZM45.3945 98.0352V97.6133C45.3945 97.3086 45.377 97.0488 45.3418 96.834C45.3105 96.6191 45.2598 96.4434 45.1895 96.3066C45.1191 96.1699 45.0273 96.0703 44.9141 96.0078C44.8008 95.9453 44.6621 95.9141 44.498 95.9141C44.3379 95.9141 44.1973 95.9453 44.0762 96.0078C43.959 96.0703 43.8633 96.1621 43.7891 96.2832C43.7148 96.4004 43.6582 96.5449 43.6191 96.7168C43.5801 96.8848 43.5586 97.0762 43.5547 97.291V98.4395C43.5625 98.6934 43.5957 98.918 43.6543 99.1133C43.7168 99.3086 43.8164 99.4648 43.9531 99.582C44.0898 99.6953 44.2754 99.752 44.5098 99.752C44.6777 99.752 44.8164 99.7168 44.9258 99.6465C45.0391 99.5762 45.1309 99.4707 45.2012 99.3301C45.2715 99.1895 45.3203 99.0117 45.3477 98.7969C45.3789 98.582 45.3945 98.3281 45.3945 98.0352ZM50.8086 94.6602V95.8965H47.5742V94.6602H50.8086ZM48.3184 93.0957H49.9531V99.0664C49.9531 99.2422 49.9707 99.377 50.0059 99.4707C50.041 99.5645 50.0938 99.6309 50.1641 99.6699C50.2383 99.7051 50.3359 99.7227 50.457 99.7227C50.5391 99.7227 50.6152 99.7188 50.6855 99.7109C50.7559 99.6992 50.8086 99.6875 50.8438 99.6758V100.959C50.7148 101.01 50.5781 101.049 50.4336 101.076C50.293 101.104 50.125 101.117 49.9297 101.117C49.6016 101.117 49.3164 101.055 49.0742 100.93C48.8359 100.805 48.6504 100.605 48.5176 100.332C48.3848 100.055 48.3184 99.6914 48.3184 99.2422V93.0957ZM53.4453 94.6602V101H51.7988V94.6602H53.4453ZM51.7227 93.0195C51.7227 92.7656 51.8027 92.5566 51.9629 92.3926C52.127 92.2246 52.3457 92.1406 52.6191 92.1406C52.8965 92.1406 53.1152 92.2246 53.2754 92.3926C53.4355 92.5566 53.5156 92.7656 53.5156 93.0195C53.5156 93.2695 53.4336 93.4785 53.2695 93.6465C53.1094 93.8105 52.8945 93.8926 52.625 93.8926C52.3477 93.8926 52.127 93.8105 51.9629 93.6465C51.8027 93.4785 51.7227 93.2695 51.7227 93.0195ZM54.5586 98.0469V97.6191C54.5586 97.123 54.6172 96.6836 54.7344 96.3008C54.8555 95.918 55.0273 95.5977 55.25 95.3398C55.4727 95.0781 55.7402 94.8809 56.0527 94.748C56.3691 94.6113 56.7227 94.543 57.1133 94.543C57.5078 94.543 57.8613 94.6113 58.1738 94.748C58.4902 94.8809 58.7598 95.0781 58.9824 95.3398C59.209 95.5977 59.3828 95.918 59.5039 96.3008C59.625 96.6836 59.6855 97.123 59.6855 97.6191V98.0469C59.6855 98.5391 59.625 98.9766 59.5039 99.3594C59.3828 99.7422 59.209 100.064 58.9824 100.326C58.7598 100.588 58.4922 100.785 58.1797 100.918C57.8672 101.051 57.5156 101.117 57.125 101.117C56.7344 101.117 56.3809 101.051 56.0645 100.918C55.752 100.785 55.4824 100.588 55.2559 100.326C55.0293 100.064 54.8555 99.7422 54.7344 99.3594C54.6172 98.9766 54.5586 98.5391 54.5586 98.0469ZM56.1992 97.6191V98.0469C56.1992 98.3398 56.2188 98.5938 56.2578 98.8086C56.3008 99.0234 56.3613 99.2012 56.4395 99.3418C56.5215 99.4824 56.6191 99.5859 56.7324 99.6523C56.8457 99.7188 56.9766 99.752 57.125 99.752C57.2734 99.752 57.4062 99.7188 57.5234 99.6523C57.6406 99.5859 57.7363 99.4824 57.8105 99.3418C57.8887 99.2012 57.9453 99.0234 57.9805 98.8086C58.0195 98.5938 58.0391 98.3398 58.0391 98.0469V97.6191C58.0391 97.334 58.0176 97.084 57.9746 96.8691C57.9316 96.6504 57.8711 96.4727 57.793 96.3359C57.7148 96.1953 57.6172 96.0898 57.5 96.0195C57.3867 95.9453 57.2578 95.9082 57.1133 95.9082C56.9688 95.9082 56.8398 95.9453 56.7266 96.0195C56.6172 96.0898 56.5215 96.1953 56.4395 96.3359C56.3613 96.4727 56.3008 96.6504 56.2578 96.8691C56.2188 97.084 56.1992 97.334 56.1992 97.6191ZM62.334 96.0137V101H60.6875V94.6602H62.2285L62.334 96.0137ZM62.0879 97.6133L61.6484 97.625C61.6406 97.1484 61.6855 96.7207 61.7832 96.3418C61.8848 95.9629 62.0273 95.6406 62.2109 95.375C62.3984 95.1055 62.6211 94.9004 62.8789 94.7598C63.1406 94.6152 63.4316 94.543 63.752 94.543C63.998 94.543 64.2227 94.5859 64.4258 94.6719C64.6328 94.7578 64.8105 94.8945 64.959 95.082C65.1074 95.2695 65.2227 95.5195 65.3047 95.832C65.3867 96.1406 65.4277 96.5195 65.4277 96.9688V101H63.7812V96.957C63.7812 96.6836 63.7539 96.4727 63.6992 96.3242C63.6445 96.1719 63.5625 96.0664 63.4531 96.0078C63.3438 95.9453 63.207 95.9141 63.043 95.9141C62.8867 95.9141 62.748 95.959 62.627 96.0488C62.5059 96.1348 62.4043 96.2539 62.3223 96.4062C62.2441 96.5586 62.1836 96.7383 62.1406 96.9453C62.1016 97.1523 62.084 97.375 62.0879 97.6133Z" fill="white"/>
<rect width="84" height="17" transform="translate(9 109)" fill="#6751A5"/>
<path d="M11.6973 113.469H14.4336C15.0039 113.469 15.4902 113.566 15.8926 113.762C16.2949 113.957 16.6035 114.246 16.8184 114.629C17.0332 115.012 17.1406 115.484 17.1406 116.047C17.1406 116.508 17.0781 116.902 16.9531 117.23C16.8281 117.555 16.6504 117.826 16.4199 118.045C16.1895 118.26 15.9141 118.432 15.5938 118.561L15.0723 118.871H12.8516L12.8457 117.447H14.3867C14.6211 117.447 14.8145 117.396 14.9668 117.295C15.123 117.189 15.2383 117.043 15.3125 116.855C15.3906 116.664 15.4297 116.441 15.4297 116.188C15.4297 115.918 15.3945 115.688 15.3242 115.496C15.2578 115.301 15.1504 115.152 15.002 115.051C14.8574 114.945 14.668 114.893 14.4336 114.893H13.4141V122H11.6973V113.469ZM15.5703 122L14.0059 118.197L15.8047 118.191L17.4043 121.918V122H15.5703ZM18.0664 119.047V118.619C18.0664 118.123 18.125 117.684 18.2422 117.301C18.3633 116.918 18.5352 116.598 18.7578 116.34C18.9805 116.078 19.248 115.881 19.5605 115.748C19.877 115.611 20.2305 115.543 20.6211 115.543C21.0156 115.543 21.3691 115.611 21.6816 115.748C21.998 115.881 22.2676 116.078 22.4902 116.34C22.7168 116.598 22.8906 116.918 23.0117 117.301C23.1328 117.684 23.1934 118.123 23.1934 118.619V119.047C23.1934 119.539 23.1328 119.977 23.0117 120.359C22.8906 120.742 22.7168 121.064 22.4902 121.326C22.2676 121.588 22 121.785 21.6875 121.918C21.375 122.051 21.0234 122.117 20.6328 122.117C20.2422 122.117 19.8887 122.051 19.5723 121.918C19.2598 121.785 18.9902 121.588 18.7637 121.326C18.5371 121.064 18.3633 120.742 18.2422 120.359C18.125 119.977 18.0664 119.539 18.0664 119.047ZM19.707 118.619V119.047C19.707 119.34 19.7266 119.594 19.7656 119.809C19.8086 120.023 19.8691 120.201 19.9473 120.342C20.0293 120.482 20.127 120.586 20.2402 120.652C20.3535 120.719 20.4844 120.752 20.6328 120.752C20.7812 120.752 20.9141 120.719 21.0312 120.652C21.1484 120.586 21.2441 120.482 21.3184 120.342C21.3965 120.201 21.4531 120.023 21.4883 119.809C21.5273 119.594 21.5469 119.34 21.5469 119.047V118.619C21.5469 118.334 21.5254 118.084 21.4824 117.869C21.4395 117.65 21.3789 117.473 21.3008 117.336C21.2227 117.195 21.125 117.09 21.0078 117.02C20.8945 116.945 20.7656 116.908 20.6211 116.908C20.4766 116.908 20.3477 116.945 20.2344 117.02C20.125 117.09 20.0293 117.195 19.9473 117.336C19.8691 117.473 19.8086 117.65 19.7656 117.869C19.7266 118.084 19.707 118.334 19.707 118.619ZM25.9531 113V122H24.3066V113H25.9531ZM29.8086 122.117C29.375 122.117 28.9902 122.051 28.6543 121.918C28.3223 121.785 28.041 121.594 27.8105 121.344C27.5801 121.09 27.4043 120.783 27.2832 120.424C27.1621 120.064 27.1016 119.654 27.1016 119.193V118.672C27.1016 118.156 27.1602 117.705 27.2773 117.318C27.3945 116.928 27.5605 116.6 27.7754 116.334C27.9902 116.068 28.2539 115.871 28.5664 115.742C28.8828 115.609 29.2402 115.543 29.6387 115.543C30.0371 115.543 30.3867 115.609 30.6875 115.742C30.9922 115.871 31.2441 116.066 31.4434 116.328C31.6426 116.586 31.793 116.906 31.8945 117.289C31.9961 117.672 32.0469 118.117 32.0469 118.625V119.375H27.7988V118.221H30.4355V118.074C30.4355 117.816 30.4082 117.602 30.3535 117.43C30.2988 117.254 30.2129 117.123 30.0957 117.037C29.9785 116.951 29.8223 116.908 29.627 116.908C29.4629 116.908 29.3242 116.941 29.2109 117.008C29.0977 117.074 29.0078 117.178 28.9414 117.318C28.875 117.459 28.8262 117.643 28.7949 117.869C28.7637 118.092 28.748 118.359 28.748 118.672V119.193C28.748 119.486 28.7734 119.732 28.8242 119.932C28.875 120.127 28.9492 120.287 29.0469 120.412C29.1484 120.533 29.2715 120.621 29.416 120.676C29.5605 120.727 29.7285 120.752 29.9199 120.752C30.209 120.752 30.4688 120.701 30.6992 120.6C30.9336 120.494 31.1328 120.352 31.2969 120.172L31.9531 121.168C31.8398 121.316 31.6836 121.465 31.4844 121.613C31.2852 121.762 31.0469 121.883 30.7695 121.977C30.4922 122.07 30.1719 122.117 29.8086 122.117Z" fill="white"/>
<rect width="84" height="17" transform="translate(9 130)" fill="#FEC53E"/>
<path d="M16.584 141.582V143H12.875V141.582H16.584ZM13.4082 134.469V143H11.6914V134.469H13.4082ZM16.0859 137.926V139.303H12.875V137.926H16.0859ZM16.5723 134.469V135.893H12.875V134.469H16.5723ZM18.9043 136.66L19.6895 138.271L20.3633 136.66H22.1035L20.4805 139.76L22.168 143H20.416L19.6133 141.33L18.8457 143H17.0879L18.6992 139.777L17.1465 136.66H18.9043ZM24.5703 137.879V145.438H22.9355V136.66H24.4473L24.5703 137.879ZM27.8633 139.613V140.035C27.8633 140.531 27.8203 140.971 27.7344 141.354C27.6484 141.732 27.5195 142.055 27.3477 142.32C27.1797 142.582 26.9688 142.781 26.7148 142.918C26.4609 143.051 26.1641 143.117 25.8242 143.117C25.5078 143.117 25.2344 143.043 25.0039 142.895C24.7773 142.742 24.5859 142.533 24.4297 142.268C24.2734 142.002 24.1484 141.691 24.0547 141.336C23.9609 140.98 23.8887 140.6 23.8379 140.193V139.537C23.8848 139.104 23.9531 138.705 24.043 138.342C24.1328 137.975 24.2559 137.656 24.4121 137.387C24.5723 137.117 24.7656 136.91 24.9922 136.766C25.2227 136.617 25.4961 136.543 25.8125 136.543C26.1562 136.543 26.4551 136.605 26.709 136.73C26.9668 136.855 27.1797 137.045 27.3477 137.299C27.5195 137.549 27.6484 137.867 27.7344 138.254C27.8203 138.641 27.8633 139.094 27.8633 139.613ZM26.2227 140.035V139.613C26.2227 139.309 26.2051 139.049 26.1699 138.834C26.1387 138.619 26.0879 138.443 26.0176 138.307C25.9473 138.17 25.8555 138.07 25.7422 138.008C25.6289 137.945 25.4902 137.914 25.3262 137.914C25.166 137.914 25.0254 137.945 24.9043 138.008C24.7871 138.07 24.6914 138.162 24.6172 138.283C24.543 138.4 24.4863 138.545 24.4473 138.717C24.4082 138.885 24.3867 139.076 24.3828 139.291V140.439C24.3906 140.693 24.4238 140.918 24.4824 141.113C24.5449 141.309 24.6445 141.465 24.7812 141.582C24.918 141.695 25.1035 141.752 25.3379 141.752C25.5059 141.752 25.6445 141.717 25.7539 141.646C25.8672 141.576 25.959 141.471 26.0293 141.33C26.0996 141.189 26.1484 141.012 26.1758 140.797C26.207 140.582 26.2227 140.328 26.2227 140.035ZM31.4258 143.117C30.9922 143.117 30.6074 143.051 30.2715 142.918C29.9395 142.785 29.6582 142.594 29.4277 142.344C29.1973 142.09 29.0215 141.783 28.9004 141.424C28.7793 141.064 28.7188 140.654 28.7188 140.193V139.672C28.7188 139.156 28.7773 138.705 28.8945 138.318C29.0117 137.928 29.1777 137.6 29.3926 137.334C29.6074 137.068 29.8711 136.871 30.1836 136.742C30.5 136.609 30.8574 136.543 31.2559 136.543C31.6543 136.543 32.0039 136.609 32.3047 136.742C32.6094 136.871 32.8613 137.066 33.0605 137.328C33.2598 137.586 33.4102 137.906 33.5117 138.289C33.6133 138.672 33.6641 139.117 33.6641 139.625V140.375H29.416V139.221H32.0527V139.074C32.0527 138.816 32.0254 138.602 31.9707 138.43C31.916 138.254 31.8301 138.123 31.7129 138.037C31.5957 137.951 31.4395 137.908 31.2441 137.908C31.0801 137.908 30.9414 137.941 30.8281 138.008C30.7148 138.074 30.625 138.178 30.5586 138.318C30.4922 138.459 30.4434 138.643 30.4121 138.869C30.3809 139.092 30.3652 139.359 30.3652 139.672V140.193C30.3652 140.486 30.3906 140.732 30.4414 140.932C30.4922 141.127 30.5664 141.287 30.6641 141.412C30.7656 141.533 30.8887 141.621 31.0332 141.676C31.1777 141.727 31.3457 141.752 31.5371 141.752C31.8262 141.752 32.0859 141.701 32.3164 141.6C32.5508 141.494 32.75 141.352 32.9141 141.172L33.5703 142.168C33.457 142.316 33.3008 142.465 33.1016 142.613C32.9023 142.762 32.6641 142.883 32.3867 142.977C32.1094 143.07 31.7891 143.117 31.4258 143.117ZM36.9043 141.752C37.0566 141.752 37.1875 141.721 37.2969 141.658C37.4102 141.596 37.4961 141.494 37.5547 141.354C37.6133 141.213 37.6445 141.031 37.6484 140.809H39.1895C39.1895 141.285 39.0879 141.697 38.8848 142.045C38.6855 142.389 38.416 142.654 38.0762 142.842C37.7402 143.025 37.3594 143.117 36.9336 143.117C36.5078 143.117 36.1367 143.049 35.8203 142.912C35.5039 142.775 35.2422 142.576 35.0352 142.314C34.832 142.053 34.6777 141.734 34.5723 141.359C34.4707 140.98 34.4199 140.547 34.4199 140.059V139.596C34.4199 139.115 34.4707 138.686 34.5723 138.307C34.6777 137.928 34.832 137.607 35.0352 137.346C35.2422 137.084 35.502 136.885 35.8145 136.748C36.1309 136.611 36.502 136.543 36.9277 136.543C37.3848 136.543 37.7812 136.639 38.1172 136.83C38.4531 137.018 38.7148 137.295 38.9023 137.662C39.0938 138.029 39.1895 138.482 39.1895 139.021H37.6484C37.6445 138.779 37.6152 138.578 37.5605 138.418C37.5098 138.254 37.4297 138.129 37.3203 138.043C37.2148 137.953 37.0742 137.908 36.8984 137.908C36.7148 137.908 36.5664 137.947 36.4531 138.025C36.3438 138.1 36.2598 138.209 36.2012 138.354C36.1465 138.494 36.1094 138.67 36.0898 138.881C36.0703 139.092 36.0605 139.33 36.0605 139.596V140.059C36.0605 140.344 36.0684 140.592 36.084 140.803C36.1035 141.01 36.1406 141.186 36.1953 141.33C36.2539 141.471 36.3379 141.576 36.4473 141.646C36.5605 141.717 36.7129 141.752 36.9043 141.752ZM42.8984 136.66V137.896H39.6641V136.66H42.8984ZM40.4082 135.096H42.043V141.066C42.043 141.242 42.0605 141.377 42.0957 141.471C42.1309 141.564 42.1836 141.631 42.2539 141.67C42.3281 141.705 42.4258 141.723 42.5469 141.723C42.6289 141.723 42.7051 141.719 42.7754 141.711C42.8457 141.699 42.8984 141.688 42.9336 141.676V142.959C42.8047 143.01 42.668 143.049 42.5234 143.076C42.3828 143.104 42.2148 143.117 42.0195 143.117C41.6914 143.117 41.4062 143.055 41.1641 142.93C40.9258 142.805 40.7402 142.605 40.6074 142.332C40.4746 142.055 40.4082 141.691 40.4082 141.242V135.096ZM46.6074 141.541V138.611C46.6074 138.42 46.584 138.268 46.5371 138.154C46.4941 138.041 46.4277 137.959 46.3379 137.908C46.252 137.854 46.1465 137.826 46.0215 137.826C45.8809 137.826 45.7637 137.855 45.6699 137.914C45.5762 137.973 45.5059 138.057 45.459 138.166C45.416 138.275 45.3945 138.406 45.3945 138.559H43.748C43.748 138.285 43.8008 138.027 43.9062 137.785C44.0117 137.539 44.166 137.324 44.3691 137.141C44.5762 136.953 44.8223 136.807 45.1074 136.701C45.3926 136.596 45.7129 136.543 46.0684 136.543C46.4902 136.543 46.8652 136.615 47.1934 136.76C47.5215 136.9 47.7812 137.125 47.9727 137.434C48.1641 137.742 48.2598 138.143 48.2598 138.635V141.459C48.2598 141.814 48.2773 142.104 48.3125 142.326C48.3516 142.549 48.4082 142.74 48.4824 142.9V143H46.8301C46.7559 142.824 46.6992 142.605 46.6602 142.344C46.625 142.078 46.6074 141.811 46.6074 141.541ZM46.8066 139.127L46.8125 140.111H46.209C46.0527 140.111 45.916 140.137 45.7988 140.188C45.6855 140.238 45.5898 140.311 45.5117 140.404C45.4336 140.494 45.375 140.6 45.3359 140.721C45.3008 140.842 45.2832 140.971 45.2832 141.107C45.2832 141.26 45.3047 141.389 45.3477 141.494C45.3906 141.6 45.4551 141.68 45.541 141.734C45.627 141.789 45.7285 141.816 45.8457 141.816C46.0254 141.816 46.1816 141.779 46.3145 141.705C46.4473 141.631 46.5449 141.541 46.6074 141.436C46.6738 141.33 46.6953 141.232 46.6719 141.143L47.0469 141.781C47 141.926 46.9355 142.076 46.8535 142.232C46.7754 142.389 46.6758 142.533 46.5547 142.666C46.4336 142.799 46.2832 142.908 46.1035 142.994C45.9277 143.076 45.7188 143.117 45.4766 143.117C45.1367 143.117 44.8262 143.039 44.5449 142.883C44.2637 142.727 44.041 142.508 43.877 142.227C43.7168 141.945 43.6367 141.611 43.6367 141.225C43.6367 140.904 43.6875 140.615 43.7891 140.357C43.8945 140.096 44.0508 139.875 44.2578 139.695C44.4648 139.512 44.7266 139.371 45.043 139.273C45.3594 139.176 45.7305 139.127 46.1562 139.127H46.8066ZM52.2383 136.66V137.896H49.0039V136.66H52.2383ZM49.748 135.096H51.3828V141.066C51.3828 141.242 51.4004 141.377 51.4355 141.471C51.4707 141.564 51.5234 141.631 51.5938 141.67C51.668 141.705 51.7656 141.723 51.8867 141.723C51.9688 141.723 52.0449 141.719 52.1152 141.711C52.1855 141.699 52.2383 141.688 52.2734 141.676V142.959C52.1445 143.01 52.0078 143.049 51.8633 143.076C51.7227 143.104 51.5547 143.117 51.3594 143.117C51.0312 143.117 50.7461 143.055 50.5039 142.93C50.2656 142.805 50.0801 142.605 49.9473 142.332C49.8145 142.055 49.748 141.691 49.748 141.242V135.096ZM54.875 136.66V143H53.2285V136.66H54.875ZM53.1523 135.02C53.1523 134.766 53.2324 134.557 53.3926 134.393C53.5566 134.225 53.7754 134.141 54.0488 134.141C54.3262 134.141 54.5449 134.225 54.7051 134.393C54.8652 134.557 54.9453 134.766 54.9453 135.02C54.9453 135.27 54.8633 135.479 54.6992 135.646C54.5391 135.811 54.3242 135.893 54.0547 135.893C53.7773 135.893 53.5566 135.811 53.3926 135.646C53.2324 135.479 53.1523 135.27 53.1523 135.02ZM55.9883 140.047V139.619C55.9883 139.123 56.0469 138.684 56.1641 138.301C56.2852 137.918 56.457 137.598 56.6797 137.34C56.9023 137.078 57.1699 136.881 57.4824 136.748C57.7988 136.611 58.1523 136.543 58.543 136.543C58.9375 136.543 59.291 136.611 59.6035 136.748C59.9199 136.881 60.1895 137.078 60.4121 137.34C60.6387 137.598 60.8125 137.918 60.9336 138.301C61.0547 138.684 61.1152 139.123 61.1152 139.619V140.047C61.1152 140.539 61.0547 140.977 60.9336 141.359C60.8125 141.742 60.6387 142.064 60.4121 142.326C60.1895 142.588 59.9219 142.785 59.6094 142.918C59.2969 143.051 58.9453 143.117 58.5547 143.117C58.1641 143.117 57.8105 143.051 57.4941 142.918C57.1816 142.785 56.9121 142.588 56.6855 142.326C56.459 142.064 56.2852 141.742 56.1641 141.359C56.0469 140.977 55.9883 140.539 55.9883 140.047ZM57.6289 139.619V140.047C57.6289 140.34 57.6484 140.594 57.6875 140.809C57.7305 141.023 57.791 141.201 57.8691 141.342C57.9512 141.482 58.0488 141.586 58.1621 141.652C58.2754 141.719 58.4062 141.752 58.5547 141.752C58.7031 141.752 58.8359 141.719 58.9531 141.652C59.0703 141.586 59.166 141.482 59.2402 141.342C59.3184 141.201 59.375 141.023 59.4102 140.809C59.4492 140.594 59.4688 140.34 59.4688 140.047V139.619C59.4688 139.334 59.4473 139.084 59.4043 138.869C59.3613 138.65 59.3008 138.473 59.2227 138.336C59.1445 138.195 59.0469 138.09 58.9297 138.02C58.8164 137.945 58.6875 137.908 58.543 137.908C58.3984 137.908 58.2695 137.945 58.1562 138.02C58.0469 138.09 57.9512 138.195 57.8691 138.336C57.791 138.473 57.7305 138.65 57.6875 138.869C57.6484 139.084 57.6289 139.334 57.6289 139.619ZM63.7637 138.014V143H62.1172V136.66H63.6582L63.7637 138.014ZM63.5176 139.613L63.0781 139.625C63.0703 139.148 63.1152 138.721 63.2129 138.342C63.3145 137.963 63.457 137.641 63.6406 137.375C63.8281 137.105 64.0508 136.9 64.3086 136.76C64.5703 136.615 64.8613 136.543 65.1816 136.543C65.4277 136.543 65.6523 136.586 65.8555 136.672C66.0625 136.758 66.2402 136.895 66.3887 137.082C66.5371 137.27 66.6523 137.52 66.7344 137.832C66.8164 138.141 66.8574 138.52 66.8574 138.969V143H65.2109V138.957C65.2109 138.684 65.1836 138.473 65.1289 138.324C65.0742 138.172 64.9922 138.066 64.8828 138.008C64.7734 137.945 64.6367 137.914 64.4727 137.914C64.3164 137.914 64.1777 137.959 64.0566 138.049C63.9355 138.135 63.834 138.254 63.752 138.406C63.6738 138.559 63.6133 138.738 63.5703 138.945C63.5312 139.152 63.5137 139.375 63.5176 139.613Z" fill="black"/>
</g>
<defs>
<filter id="filter0_d_8_9338" x="0" y="0" width="102" height="156" filterUnits="userSpaceOnUse" color-interpolation-filters="sRGB">
<feFlood flood-opacity="0" result="BackgroundImageFix"/>
<feColorMatrix in="SourceAlpha" type="matrix" values="0 0 0 0 0 0 0 0 0 0 0 0 0 0 0 0 0 0 127 0" result="hardAlpha"/>
<feOffset/>
<feGaussianBlur stdDeviation="0.5"/>
<feComposite in2="hardAlpha" operator="out"/>
<feColorMatrix type="matrix" values="0 0 0 0 0.988235 0 0 0 0 0.133333 0 0 0 0 0.576471 0 0 0 1 0"/>
<feBlend mode="normal" in2="BackgroundImageFix" result="effect1_dropShadow_8_9338"/>
<feBlend mode="normal" in="SourceGraphic" in2="effect1_dropShadow_8_9338" result="shape"/>
</filter>
</defs>
</svg>
