<svg width="102" height="221" viewBox="0 0 102 221" fill="none" xmlns="http://www.w3.org/2000/svg">
<g filter="url(#filter0_d_38_9703)">
<rect width="100" height="219" transform="translate(1 1)" fill="#F7F7F7"/>
<rect width="100" height="16" transform="translate(1 1)" fill="#434343"/>
<path d="M7.41016 9.89062H6.21094V9.09766H7.41016C7.60547 9.09766 7.76302 9.05599 7.88281 8.97266C8.00521 8.88932 8.09375 8.77474 8.14844 8.62891C8.20573 8.48307 8.23438 8.31771 8.23438 8.13281C8.23438 7.95573 8.20573 7.78906 8.14844 7.63281C8.09375 7.47656 8.00651 7.35026 7.88672 7.25391C7.76693 7.15755 7.60807 7.10938 7.41016 7.10938H6.47656V12H5.53125V6.3125H7.41016C7.78516 6.3125 8.10547 6.39062 8.37109 6.54688C8.63672 6.70312 8.83984 6.91797 8.98047 7.19141C9.12109 7.46224 9.19141 7.77344 9.19141 8.125C9.19141 8.49219 9.12109 8.80729 8.98047 9.07031C8.83984 9.33333 8.63672 9.53646 8.37109 9.67969C8.10547 9.82031 7.78516 9.89062 7.41016 9.89062ZM11.6311 11.1406V9.03516C11.6311 8.88932 11.6103 8.77214 11.5686 8.68359C11.5295 8.59505 11.4709 8.53125 11.3928 8.49219C11.3173 8.45052 11.2222 8.42969 11.1077 8.42969C10.9879 8.42969 10.8863 8.45443 10.803 8.50391C10.7222 8.55339 10.661 8.62109 10.6194 8.70703C10.5777 8.79036 10.5569 8.88672 10.5569 8.99609H9.64672C9.64672 8.82682 9.68057 8.66406 9.74828 8.50781C9.81859 8.35156 9.91885 8.21224 10.0491 8.08984C10.1793 7.96745 10.3368 7.87109 10.5217 7.80078C10.7066 7.73047 10.9123 7.69531 11.1389 7.69531C11.4097 7.69531 11.6506 7.74089 11.8616 7.83203C12.0725 7.92057 12.2379 8.0651 12.3577 8.26562C12.4801 8.46354 12.5413 8.72396 12.5413 9.04688V11.0195C12.5413 11.2148 12.553 11.3893 12.5764 11.543C12.6024 11.694 12.6376 11.8255 12.6819 11.9375V12H11.7561C11.7144 11.8984 11.6832 11.7682 11.6623 11.6094C11.6415 11.4505 11.6311 11.2943 11.6311 11.1406ZM11.7522 9.42578L11.7561 10.0156H11.3186C11.1884 10.0156 11.0712 10.0339 10.967 10.0703C10.8629 10.1042 10.7743 10.1536 10.7014 10.2188C10.6311 10.2812 10.5764 10.3581 10.5373 10.4492C10.5009 10.5404 10.4827 10.6406 10.4827 10.75C10.4827 10.8828 10.5009 10.9909 10.5373 11.0742C10.5764 11.1576 10.6324 11.2201 10.7053 11.2617C10.7808 11.3008 10.872 11.3203 10.9788 11.3203C11.1246 11.3203 11.2509 11.2891 11.3577 11.2266C11.467 11.1615 11.5504 11.0833 11.6077 10.9922C11.6676 10.901 11.691 10.8177 11.678 10.7422L11.885 11.1211C11.8642 11.2201 11.8251 11.3242 11.7678 11.4336C11.7131 11.543 11.6415 11.6471 11.553 11.7461C11.4644 11.8451 11.3577 11.9258 11.2327 11.9883C11.1077 12.0482 10.9631 12.0781 10.7991 12.0781C10.5621 12.0781 10.3511 12.0286 10.1663 11.9297C9.98135 11.8307 9.83552 11.6888 9.72875 11.5039C9.62458 11.3164 9.5725 11.0924 9.5725 10.832C9.5725 10.6211 9.60766 10.4297 9.67797 10.2578C9.74828 10.0859 9.85245 9.9388 9.99047 9.81641C10.1285 9.69141 10.3017 9.59505 10.51 9.52734C10.7209 9.45964 10.967 9.42578 11.2483 9.42578H11.7522ZM15.4887 7.77344H16.313V12.0156C16.313 12.3958 16.2427 12.707 16.102 12.9492C15.964 13.194 15.7713 13.375 15.5239 13.4922C15.2765 13.6094 14.9901 13.668 14.6645 13.668C14.5447 13.668 14.4028 13.6484 14.2387 13.6094C14.0747 13.5703 13.9145 13.513 13.7583 13.4375C13.602 13.362 13.4718 13.2682 13.3677 13.1562L13.6997 12.5234C13.8221 12.6484 13.9666 12.7448 14.1333 12.8125C14.2999 12.8828 14.4601 12.918 14.6137 12.918C14.7804 12.918 14.921 12.8893 15.0356 12.832C15.1528 12.7773 15.2427 12.6849 15.3052 12.5547C15.3677 12.4271 15.3989 12.2539 15.3989 12.0352V8.73047L15.4887 7.77344ZM13.0981 10.0586V9.72656C13.0981 9.38021 13.1307 9.08073 13.1958 8.82812C13.2609 8.57292 13.3546 8.36068 13.477 8.19141C13.5994 8.02214 13.7492 7.89714 13.9262 7.81641C14.1033 7.73568 14.3012 7.69531 14.52 7.69531C14.7466 7.69531 14.938 7.74349 15.0942 7.83984C15.2531 7.93359 15.382 8.06771 15.4809 8.24219C15.5825 8.41667 15.6619 8.625 15.7192 8.86719C15.7765 9.10677 15.8182 9.375 15.8442 9.67188V10.1328C15.8182 10.4193 15.7739 10.6823 15.7114 10.9219C15.6489 11.1589 15.5643 11.3633 15.4575 11.5352C15.3533 11.707 15.2231 11.8411 15.0669 11.9375C14.9132 12.0312 14.7283 12.0781 14.5122 12.0781C14.296 12.0781 14.1007 12.0352 13.9262 11.9492C13.7518 11.8633 13.602 11.7357 13.477 11.5664C13.3546 11.3971 13.2609 11.1875 13.1958 10.9375C13.1307 10.6849 13.0981 10.3919 13.0981 10.0586ZM14.0083 9.72656V10.0586C14.0083 10.2747 14.0226 10.4609 14.0512 10.6172C14.0825 10.7734 14.1281 10.9023 14.188 11.0039C14.2479 11.1029 14.326 11.1771 14.4223 11.2266C14.5187 11.2734 14.6333 11.2969 14.7661 11.2969C14.9406 11.2969 15.0812 11.2552 15.188 11.1719C15.2973 11.0885 15.3807 10.9766 15.438 10.8359C15.4979 10.6927 15.5395 10.5339 15.563 10.3594V9.44922C15.5499 9.3112 15.5239 9.18359 15.4848 9.06641C15.4484 8.94661 15.3976 8.84245 15.3325 8.75391C15.27 8.66536 15.1919 8.59635 15.0981 8.54688C15.007 8.49479 14.8989 8.46875 14.7739 8.46875C14.6437 8.46875 14.5291 8.49479 14.4302 8.54688C14.3338 8.59635 14.2544 8.67318 14.1919 8.77734C14.1294 8.87891 14.0825 9.00911 14.0512 9.16797C14.0226 9.32422 14.0083 9.51042 14.0083 9.72656ZM18.6042 12.0781C18.3308 12.0781 18.0873 12.0378 17.8737 11.957C17.6602 11.8737 17.4792 11.7513 17.3308 11.5898C17.1823 11.4258 17.0691 11.2253 16.9909 10.9883C16.9128 10.7487 16.8737 10.4714 16.8737 10.1562V9.75C16.8737 9.39323 16.9141 9.08594 16.9948 8.82812C17.0782 8.56771 17.1928 8.35417 17.3386 8.1875C17.4844 8.02083 17.6563 7.89714 17.8542 7.81641C18.0547 7.73568 18.2722 7.69531 18.5066 7.69531C18.7722 7.69531 19.0027 7.73828 19.198 7.82422C19.3933 7.91016 19.5534 8.03906 19.6784 8.21094C19.806 8.38281 19.8998 8.59505 19.9597 8.84766C20.0222 9.10026 20.0534 9.39062 20.0534 9.71875V10.1758H17.3112V9.48828H19.155V9.39062C19.1498 9.19792 19.1264 9.03255 19.0847 8.89453C19.043 8.75391 18.9753 8.64714 18.8816 8.57422C18.7904 8.4987 18.6641 8.46094 18.5027 8.46094C18.3855 8.46094 18.2813 8.48307 18.1902 8.52734C18.099 8.57161 18.0235 8.64323 17.9636 8.74219C17.9063 8.84115 17.862 8.97396 17.8308 9.14062C17.7995 9.30469 17.7839 9.50781 17.7839 9.75V10.1562C17.7839 10.3672 17.8021 10.5456 17.8386 10.6914C17.8777 10.8372 17.9349 10.957 18.0105 11.0508C18.086 11.1419 18.1771 11.2096 18.2839 11.2539C18.3933 11.2956 18.5196 11.3164 18.6628 11.3164C18.8737 11.3164 19.0547 11.2773 19.2058 11.1992C19.3594 11.1185 19.4922 11.0143 19.6042 10.8867L20.0066 11.4453C19.931 11.5469 19.8295 11.6471 19.7019 11.7461C19.5743 11.8424 19.4193 11.9219 19.237 11.9844C19.0573 12.0469 18.8464 12.0781 18.6042 12.0781ZM24.0852 6.3125V12H23.1398V6.3125H24.0852ZM25.5344 6.3125V7.10938H21.7062V6.3125H25.5344ZM26.935 7.77344V12H26.0248V7.77344H26.935ZM25.978 6.66797C25.978 6.52214 26.0222 6.40104 26.1108 6.30469C26.1993 6.20573 26.323 6.15625 26.4819 6.15625C26.6407 6.15625 26.7644 6.20573 26.853 6.30469C26.9415 6.40104 26.9858 6.52214 26.9858 6.66797C26.9858 6.80859 26.9415 6.92708 26.853 7.02344C26.7644 7.11979 26.6407 7.16797 26.4819 7.16797C26.323 7.16797 26.1993 7.11979 26.1108 7.02344C26.0222 6.92708 25.978 6.80859 25.978 6.66797ZM29.3747 7.77344V8.47656H27.3005V7.77344H29.3747ZM27.8669 6.73828H28.7731V10.8203C28.7731 10.9505 28.7874 11.0495 28.8161 11.1172C28.8447 11.1849 28.8851 11.2305 28.9372 11.2539C28.9893 11.2773 29.0505 11.2891 29.1208 11.2891C29.1729 11.2891 29.2236 11.2852 29.2731 11.2773C29.3252 11.2669 29.363 11.2578 29.3864 11.25V11.9844C29.3187 12.0104 29.2406 12.0326 29.152 12.0508C29.0635 12.069 28.9567 12.0781 28.8317 12.0781C28.6468 12.0781 28.4815 12.0404 28.3356 11.9648C28.1898 11.8867 28.0752 11.7604 27.9919 11.5859C27.9085 11.4089 27.8669 11.1745 27.8669 10.8828V6.73828ZM30.8066 6V12H29.8964V6H30.8066ZM33.1564 12.0781C32.883 12.0781 32.6395 12.0378 32.4259 11.957C32.2124 11.8737 32.0314 11.7513 31.883 11.5898C31.7345 11.4258 31.6213 11.2253 31.5431 10.9883C31.465 10.7487 31.4259 10.4714 31.4259 10.1562V9.75C31.4259 9.39323 31.4663 9.08594 31.547 8.82812C31.6304 8.56771 31.7449 8.35417 31.8908 8.1875C32.0366 8.02083 32.2085 7.89714 32.4064 7.81641C32.6069 7.73568 32.8244 7.69531 33.0588 7.69531C33.3244 7.69531 33.5548 7.73828 33.7502 7.82422C33.9455 7.91016 34.1056 8.03906 34.2306 8.21094C34.3582 8.38281 34.452 8.59505 34.5119 8.84766C34.5744 9.10026 34.6056 9.39062 34.6056 9.71875V10.1758H31.8634V9.48828H33.7072V9.39062C33.702 9.19792 33.6785 9.03255 33.6369 8.89453C33.5952 8.75391 33.5275 8.64714 33.4338 8.57422C33.3426 8.4987 33.2163 8.46094 33.0548 8.46094C32.9377 8.46094 32.8335 8.48307 32.7423 8.52734C32.6512 8.57161 32.5757 8.64323 32.5158 8.74219C32.4585 8.84115 32.4142 8.97396 32.383 9.14062C32.3517 9.30469 32.3361 9.50781 32.3361 9.75V10.1562C32.3361 10.3672 32.3543 10.5456 32.3908 10.6914C32.4298 10.8372 32.4871 10.957 32.5627 11.0508C32.6382 11.1419 32.7293 11.2096 32.8361 11.2539C32.9455 11.2956 33.0718 11.3164 33.215 11.3164C33.4259 11.3164 33.6069 11.2773 33.758 11.1992C33.9116 11.1185 34.0444 11.0143 34.1564 10.8867L34.5588 11.4453C34.4832 11.5469 34.3817 11.6471 34.2541 11.7461C34.1265 11.8424 33.9715 11.9219 33.7892 11.9844C33.6095 12.0469 33.3986 12.0781 33.1564 12.0781Z" fill="white"/>
<rect x="5.5" y="21.5" width="91" height="87" fill="white"/>
<rect width="84" height="17" transform="translate(9 25)" fill="#434343"/>
<path d="M16.4199 32.9258V34.3438H12.9219V32.9258H16.4199ZM13.4082 29.4688V38H11.6914V29.4688H13.4082ZM17.6621 29.4688V38H15.9629V29.4688H17.6621ZM21.5352 38.1172C21.1016 38.1172 20.7168 38.0508 20.3809 37.918C20.0488 37.7852 19.7676 37.5938 19.5371 37.3438C19.3066 37.0898 19.1309 36.7832 19.0098 36.4238C18.8887 36.0645 18.8281 35.6543 18.8281 35.1934V34.6719C18.8281 34.1562 18.8867 33.7051 19.0039 33.3184C19.1211 32.9277 19.2871 32.5996 19.502 32.334C19.7168 32.0684 19.9805 31.8711 20.293 31.7422C20.6094 31.6094 20.9668 31.543 21.3652 31.543C21.7637 31.543 22.1133 31.6094 22.4141 31.7422C22.7188 31.8711 22.9707 32.0664 23.1699 32.3281C23.3691 32.5859 23.5195 32.9062 23.6211 33.2891C23.7227 33.6719 23.7734 34.1172 23.7734 34.625V35.375H19.5254V34.2207H22.1621V34.0742C22.1621 33.8164 22.1348 33.6016 22.0801 33.4297C22.0254 33.2539 21.9395 33.123 21.8223 33.0371C21.7051 32.9512 21.5488 32.9082 21.3535 32.9082C21.1895 32.9082 21.0508 32.9414 20.9375 33.0078C20.8242 33.0742 20.7344 33.1777 20.668 33.3184C20.6016 33.459 20.5527 33.6426 20.5215 33.8691C20.4902 34.0918 20.4746 34.3594 20.4746 34.6719V35.1934C20.4746 35.4863 20.5 35.7324 20.5508 35.9316C20.6016 36.127 20.6758 36.2871 20.7734 36.4121C20.875 36.5332 20.998 36.6211 21.1426 36.6758C21.2871 36.7266 21.4551 36.752 21.6465 36.752C21.9355 36.752 22.1953 36.7012 22.4258 36.5996C22.6602 36.4941 22.8594 36.3516 23.0234 36.1719L23.6797 37.168C23.5664 37.3164 23.4102 37.4648 23.2109 37.6133C23.0117 37.7617 22.7734 37.8828 22.4961 37.9766C22.2188 38.0703 21.8984 38.1172 21.5352 38.1172ZM27.5176 36.541V33.6113C27.5176 33.4199 27.4941 33.2676 27.4473 33.1543C27.4043 33.041 27.3379 32.959 27.248 32.9082C27.1621 32.8535 27.0566 32.8262 26.9316 32.8262C26.791 32.8262 26.6738 32.8555 26.5801 32.9141C26.4863 32.9727 26.416 33.0566 26.3691 33.166C26.3262 33.2754 26.3047 33.4062 26.3047 33.5586H24.6582C24.6582 33.2852 24.7109 33.0273 24.8164 32.7852C24.9219 32.5391 25.0762 32.3242 25.2793 32.1406C25.4863 31.9531 25.7324 31.8066 26.0176 31.7012C26.3027 31.5957 26.623 31.543 26.9785 31.543C27.4004 31.543 27.7754 31.6152 28.1035 31.7598C28.4316 31.9004 28.6914 32.125 28.8828 32.4336C29.0742 32.7422 29.1699 33.1426 29.1699 33.6348V36.459C29.1699 36.8145 29.1875 37.1035 29.2227 37.3262C29.2617 37.5488 29.3184 37.7402 29.3926 37.9004V38H27.7402C27.666 37.8242 27.6094 37.6055 27.5703 37.3438C27.5352 37.0781 27.5176 36.8105 27.5176 36.541ZM27.7168 34.127L27.7227 35.1113H27.1191C26.9629 35.1113 26.8262 35.1367 26.709 35.1875C26.5957 35.2383 26.5 35.3105 26.4219 35.4043C26.3438 35.4941 26.2852 35.5996 26.2461 35.7207C26.2109 35.8418 26.1934 35.9707 26.1934 36.1074C26.1934 36.2598 26.2148 36.3887 26.2578 36.4941C26.3008 36.5996 26.3652 36.6797 26.4512 36.7344C26.5371 36.7891 26.6387 36.8164 26.7559 36.8164C26.9355 36.8164 27.0918 36.7793 27.2246 36.7051C27.3574 36.6309 27.4551 36.541 27.5176 36.4355C27.584 36.3301 27.6055 36.2324 27.582 36.1426L27.957 36.7812C27.9102 36.9258 27.8457 37.0762 27.7637 37.2324C27.6855 37.3887 27.5859 37.5332 27.4648 37.666C27.3438 37.7988 27.1934 37.9082 27.0137 37.9941C26.8379 38.0762 26.6289 38.1172 26.3867 38.1172C26.0469 38.1172 25.7363 38.0391 25.4551 37.8828C25.1738 37.7266 24.9512 37.5078 24.7871 37.2266C24.627 36.9453 24.5469 36.6113 24.5469 36.2246C24.5469 35.9043 24.5977 35.6152 24.6992 35.3574C24.8047 35.0957 24.9609 34.875 25.168 34.6953C25.375 34.5117 25.6367 34.3711 25.9531 34.2734C26.2695 34.1758 26.6406 34.127 27.0664 34.127H27.7168ZM33.4531 36.5996V29H35.0996V38L33.6113 38.0059L33.4531 36.5996ZM30.166 35.0527V34.6309C30.166 34.1152 30.209 33.6641 30.2949 33.2773C30.3848 32.8906 30.5176 32.5684 30.6934 32.3105C30.8691 32.0527 31.084 31.8613 31.3379 31.7363C31.5957 31.6074 31.8906 31.543 32.2227 31.543C32.5234 31.543 32.7871 31.6191 33.0137 31.7715C33.2441 31.9199 33.4395 32.1289 33.5996 32.3984C33.7598 32.668 33.8887 32.9863 33.9863 33.3535C34.084 33.7207 34.1523 34.123 34.1914 34.5605V35.1699C34.1445 35.584 34.0723 35.9707 33.9746 36.3301C33.8809 36.6895 33.752 37.002 33.5879 37.2676C33.4277 37.5332 33.2344 37.7422 33.0078 37.8945C32.7812 38.043 32.5176 38.1172 32.2168 38.1172C31.8848 38.1172 31.5898 38.0508 31.332 37.918C31.0781 37.7852 30.8633 37.5898 30.6875 37.332C30.5156 37.0703 30.3848 36.75 30.2949 36.3711C30.209 35.9883 30.166 35.5488 30.166 35.0527ZM31.8066 34.6309V35.0527C31.8066 35.3496 31.8203 35.6055 31.8477 35.8203C31.8789 36.0312 31.9277 36.2051 31.9941 36.3418C32.0645 36.4746 32.1562 36.5742 32.2695 36.6406C32.3828 36.7031 32.5234 36.7344 32.6914 36.7344C32.9102 36.7344 33.0879 36.6797 33.2246 36.5703C33.3613 36.457 33.4629 36.3027 33.5293 36.1074C33.5996 35.9082 33.6387 35.6797 33.6465 35.4219V34.3145C33.6387 34.0996 33.6133 33.9062 33.5703 33.7344C33.5273 33.5625 33.4668 33.416 33.3887 33.2949C33.3105 33.1738 33.2129 33.0801 33.0957 33.0137C32.9824 32.9473 32.8496 32.9141 32.6973 32.9141C32.5332 32.9141 32.3926 32.9473 32.2754 33.0137C32.1621 33.0801 32.0723 33.1836 32.0059 33.3242C31.9395 33.4609 31.8887 33.6387 31.8535 33.8574C31.8223 34.0723 31.8066 34.3301 31.8066 34.6309ZM38.0586 29V38H36.4121V29H38.0586ZM41.082 31.6602V38H39.4355V31.6602H41.082ZM39.3594 30.0195C39.3594 29.7656 39.4395 29.5566 39.5996 29.3926C39.7637 29.2246 39.9824 29.1406 40.2559 29.1406C40.5332 29.1406 40.752 29.2246 40.9121 29.3926C41.0723 29.5566 41.1523 29.7656 41.1523 30.0195C41.1523 30.2695 41.0703 30.4785 40.9062 30.6465C40.7461 30.8105 40.5312 30.8926 40.2617 30.8926C39.9844 30.8926 39.7637 30.8105 39.5996 30.6465C39.4395 30.4785 39.3594 30.2695 39.3594 30.0195ZM43.9941 33.0137V38H42.3477V31.6602H43.8887L43.9941 33.0137ZM43.748 34.6133L43.3086 34.625C43.3008 34.1484 43.3457 33.7207 43.4434 33.3418C43.5449 32.9629 43.6875 32.6406 43.8711 32.375C44.0586 32.1055 44.2812 31.9004 44.5391 31.7598C44.8008 31.6152 45.0918 31.543 45.4121 31.543C45.6582 31.543 45.8828 31.5859 46.0859 31.6719C46.293 31.7578 46.4707 31.8945 46.6191 32.082C46.7676 32.2695 46.8828 32.5195 46.9648 32.832C47.0469 33.1406 47.0879 33.5195 47.0879 33.9688V38H45.4414V33.957C45.4414 33.6836 45.4141 33.4727 45.3594 33.3242C45.3047 33.1719 45.2227 33.0664 45.1133 33.0078C45.0039 32.9453 44.8672 32.9141 44.7031 32.9141C44.5469 32.9141 44.4082 32.959 44.2871 33.0488C44.166 33.1348 44.0645 33.2539 43.9824 33.4062C43.9043 33.5586 43.8438 33.7383 43.8008 33.9453C43.7617 34.1523 43.7441 34.375 43.748 34.6133ZM50.8438 38.1172C50.4102 38.1172 50.0254 38.0508 49.6895 37.918C49.3574 37.7852 49.0762 37.5938 48.8457 37.3438C48.6152 37.0898 48.4395 36.7832 48.3184 36.4238C48.1973 36.0645 48.1367 35.6543 48.1367 35.1934V34.6719C48.1367 34.1562 48.1953 33.7051 48.3125 33.3184C48.4297 32.9277 48.5957 32.5996 48.8105 32.334C49.0254 32.0684 49.2891 31.8711 49.6016 31.7422C49.918 31.6094 50.2754 31.543 50.6738 31.543C51.0723 31.543 51.4219 31.6094 51.7227 31.7422C52.0273 31.8711 52.2793 32.0664 52.4785 32.3281C52.6777 32.5859 52.8281 32.9062 52.9297 33.2891C53.0312 33.6719 53.082 34.1172 53.082 34.625V35.375H48.834V34.2207H51.4707V34.0742C51.4707 33.8164 51.4434 33.6016 51.3887 33.4297C51.334 33.2539 51.248 33.123 51.1309 33.0371C51.0137 32.9512 50.8574 32.9082 50.6621 32.9082C50.498 32.9082 50.3594 32.9414 50.2461 33.0078C50.1328 33.0742 50.043 33.1777 49.9766 33.3184C49.9102 33.459 49.8613 33.6426 49.8301 33.8691C49.7988 34.0918 49.7832 34.3594 49.7832 34.6719V35.1934C49.7832 35.4863 49.8086 35.7324 49.8594 35.9316C49.9102 36.127 49.9844 36.2871 50.082 36.4121C50.1836 36.5332 50.3066 36.6211 50.4512 36.6758C50.5957 36.7266 50.7637 36.752 50.9551 36.752C51.2441 36.752 51.5039 36.7012 51.7344 36.5996C51.9688 36.4941 52.168 36.3516 52.332 36.1719L52.9883 37.168C52.875 37.3164 52.7188 37.4648 52.5195 37.6133C52.3203 37.7617 52.082 37.8828 51.8047 37.9766C51.5273 38.0703 51.207 38.1172 50.8438 38.1172Z" fill="white"/>
<rect width="84" height="17" transform="translate(9 46)" fill="#39A71B"/>
<path d="M13.918 59H12.4121L12.4238 57.582H13.918C14.332 57.582 14.6543 57.5078 14.8848 57.3594C15.1152 57.2109 15.2773 56.9766 15.3711 56.6562C15.4688 56.3359 15.5176 55.916 15.5176 55.3965V54.0664C15.5176 53.6719 15.4922 53.3379 15.4414 53.0645C15.3906 52.7871 15.3047 52.5645 15.1836 52.3965C15.0625 52.2246 14.9004 52.0977 14.6973 52.0156C14.4941 51.9336 14.2422 51.8926 13.9414 51.8926H12.3828V50.4688H13.9414C14.4336 50.4688 14.8809 50.5488 15.2832 50.709C15.6855 50.8691 16.0312 51.1035 16.3203 51.4121C16.6094 51.7168 16.832 52.0938 16.9883 52.543C17.1445 52.9922 17.2227 53.5039 17.2227 54.0781V55.3965C17.2227 55.9746 17.1445 56.4863 16.9883 56.9316C16.832 57.377 16.6094 57.7539 16.3203 58.0625C16.0352 58.3672 15.6895 58.5996 15.2832 58.7598C14.877 58.9199 14.4219 59 13.918 59ZM13.4082 50.4688V59H11.6914V50.4688H13.4082ZM20.9492 59.1172C20.5156 59.1172 20.1309 59.0508 19.7949 58.918C19.4629 58.7852 19.1816 58.5938 18.9512 58.3438C18.7207 58.0898 18.5449 57.7832 18.4238 57.4238C18.3027 57.0645 18.2422 56.6543 18.2422 56.1934V55.6719C18.2422 55.1562 18.3008 54.7051 18.418 54.3184C18.5352 53.9277 18.7012 53.5996 18.916 53.334C19.1309 53.0684 19.3945 52.8711 19.707 52.7422C20.0234 52.6094 20.3809 52.543 20.7793 52.543C21.1777 52.543 21.5273 52.6094 21.8281 52.7422C22.1328 52.8711 22.3848 53.0664 22.584 53.3281C22.7832 53.5859 22.9336 53.9062 23.0352 54.2891C23.1367 54.6719 23.1875 55.1172 23.1875 55.625V56.375H18.9395V55.2207H21.5762V55.0742C21.5762 54.8164 21.5488 54.6016 21.4941 54.4297C21.4395 54.2539 21.3535 54.123 21.2363 54.0371C21.1191 53.9512 20.9629 53.9082 20.7676 53.9082C20.6035 53.9082 20.4648 53.9414 20.3516 54.0078C20.2383 54.0742 20.1484 54.1777 20.082 54.3184C20.0156 54.459 19.9668 54.6426 19.9355 54.8691C19.9043 55.0918 19.8887 55.3594 19.8887 55.6719V56.1934C19.8887 56.4863 19.9141 56.7324 19.9648 56.9316C20.0156 57.127 20.0898 57.2871 20.1875 57.4121C20.2891 57.5332 20.4121 57.6211 20.5566 57.6758C20.7012 57.7266 20.8691 57.752 21.0605 57.752C21.3496 57.752 21.6094 57.7012 21.8398 57.5996C22.0742 57.4941 22.2734 57.3516 22.4375 57.1719L23.0938 58.168C22.9805 58.3164 22.8242 58.4648 22.625 58.6133C22.4258 58.7617 22.1875 58.8828 21.9102 58.9766C21.6328 59.0703 21.3125 59.1172 20.9492 59.1172ZM26.9492 57.2891C26.9492 57.1797 26.9121 57.082 26.8379 56.9961C26.7637 56.9102 26.6465 56.8223 26.4863 56.7324C26.3262 56.6387 26.1133 56.5352 25.8477 56.4219C25.5586 56.3047 25.3027 56.1836 25.0801 56.0586C24.8574 55.9336 24.668 55.7949 24.5117 55.6426C24.3594 55.4902 24.2441 55.3164 24.166 55.1211C24.0879 54.9258 24.0488 54.7031 24.0488 54.4531C24.0488 54.1836 24.0977 53.9355 24.1953 53.709C24.2969 53.4785 24.4414 53.2773 24.6289 53.1055C24.8164 52.9297 25.0449 52.793 25.3145 52.6953C25.5879 52.5938 25.8945 52.543 26.2344 52.543C26.7109 52.543 27.1191 52.627 27.459 52.7949C27.8027 52.959 28.0664 53.1895 28.25 53.4863C28.4336 53.7832 28.5254 54.1289 28.5254 54.5234H26.8848C26.8848 54.3828 26.8633 54.2578 26.8203 54.1484C26.7773 54.0352 26.707 53.9473 26.6094 53.8848C26.5156 53.8223 26.3887 53.791 26.2285 53.791C26.1113 53.791 26.0059 53.8164 25.9121 53.8672C25.8223 53.918 25.75 53.9863 25.6953 54.0723C25.6445 54.1543 25.6191 54.252 25.6191 54.3652C25.6191 54.4512 25.6367 54.5273 25.6719 54.5938C25.7109 54.6602 25.7715 54.7246 25.8535 54.7871C25.9355 54.8496 26.0449 54.916 26.1816 54.9863C26.3223 55.0527 26.4941 55.127 26.6973 55.209C27.1191 55.3652 27.4648 55.5332 27.7344 55.7129C28.0078 55.8926 28.2109 56.1035 28.3438 56.3457C28.4766 56.584 28.543 56.8789 28.543 57.2305C28.543 57.5117 28.4883 57.7676 28.3789 57.998C28.2734 58.2285 28.1191 58.4277 27.916 58.5957C27.7129 58.7637 27.4688 58.8926 27.1836 58.9824C26.9023 59.0723 26.5879 59.1172 26.2402 59.1172C25.7285 59.1172 25.2969 59.0156 24.9453 58.8125C24.5938 58.6094 24.3281 58.3496 24.1484 58.0332C23.9688 57.7129 23.8789 57.3809 23.8789 57.0371H25.4375C25.4453 57.248 25.4844 57.4141 25.5547 57.5352C25.6289 57.6523 25.7285 57.7344 25.8535 57.7812C25.9785 57.8281 26.1172 57.8516 26.2695 57.8516C26.4219 57.8516 26.5469 57.832 26.6445 57.793C26.7461 57.75 26.8223 57.6855 26.873 57.5996C26.9238 57.5098 26.9492 57.4062 26.9492 57.2891ZM31.877 57.752C32.0293 57.752 32.1602 57.7207 32.2695 57.6582C32.3828 57.5957 32.4688 57.4941 32.5273 57.3535C32.5859 57.2129 32.6172 57.0312 32.6211 56.8086H34.1621C34.1621 57.2852 34.0605 57.6973 33.8574 58.0449C33.6582 58.3887 33.3887 58.6543 33.0488 58.8418C32.7129 59.0254 32.332 59.1172 31.9062 59.1172C31.4805 59.1172 31.1094 59.0488 30.793 58.9121C30.4766 58.7754 30.2148 58.5762 30.0078 58.3145C29.8047 58.0527 29.6504 57.7344 29.5449 57.3594C29.4434 56.9805 29.3926 56.5469 29.3926 56.0586V55.5957C29.3926 55.1152 29.4434 54.6855 29.5449 54.3066C29.6504 53.9277 29.8047 53.6074 30.0078 53.3457C30.2148 53.084 30.4746 52.8848 30.7871 52.748C31.1035 52.6113 31.4746 52.543 31.9004 52.543C32.3574 52.543 32.7539 52.6387 33.0898 52.8301C33.4258 53.0176 33.6875 53.2949 33.875 53.6621C34.0664 54.0293 34.1621 54.4824 34.1621 55.0215H32.6211C32.6172 54.7793 32.5879 54.5781 32.5332 54.418C32.4824 54.2539 32.4023 54.1289 32.293 54.043C32.1875 53.9531 32.0469 53.9082 31.8711 53.9082C31.6875 53.9082 31.5391 53.9473 31.4258 54.0254C31.3164 54.0996 31.2324 54.209 31.1738 54.3535C31.1191 54.4941 31.082 54.6699 31.0625 54.8809C31.043 55.0918 31.0332 55.3301 31.0332 55.5957V56.0586C31.0332 56.3438 31.041 56.5918 31.0566 56.8027C31.0762 57.0098 31.1133 57.1855 31.168 57.3301C31.2266 57.4707 31.3105 57.5762 31.4199 57.6465C31.5332 57.7168 31.6855 57.752 31.877 57.752ZM36.7461 54.0723V59H35.1055V52.6602H36.6523L36.7461 54.0723ZM38.2402 52.6133L38.2168 54.248C38.1426 54.2324 38.0527 54.2207 37.9473 54.2129C37.8457 54.2051 37.7559 54.2012 37.6777 54.2012C37.4941 54.2012 37.3379 54.2305 37.209 54.2891C37.0801 54.3438 36.9727 54.4277 36.8867 54.541C36.8047 54.6504 36.7422 54.7871 36.6992 54.9512C36.6562 55.1152 36.6309 55.3008 36.623 55.5078L36.3125 55.3906C36.3125 54.9766 36.3438 54.5977 36.4062 54.2539C36.4727 53.9062 36.5703 53.6055 36.6992 53.3516C36.8281 53.0938 36.9824 52.8945 37.1621 52.7539C37.3457 52.6133 37.5527 52.543 37.7832 52.543C37.8613 52.543 37.9434 52.5508 38.0293 52.5664C38.1191 52.5781 38.1895 52.5938 38.2402 52.6133ZM40.8008 52.6602V59H39.1543V52.6602H40.8008ZM39.0781 51.0195C39.0781 50.7656 39.1582 50.5566 39.3184 50.3926C39.4824 50.2246 39.7012 50.1406 39.9746 50.1406C40.252 50.1406 40.4707 50.2246 40.6309 50.3926C40.791 50.5566 40.8711 50.7656 40.8711 51.0195C40.8711 51.2695 40.7891 51.4785 40.625 51.6465C40.4648 51.8105 40.25 51.8926 39.9805 51.8926C39.7031 51.8926 39.4824 51.8105 39.3184 51.6465C39.1582 51.4785 39.0781 51.2695 39.0781 51.0195ZM43.7422 53.8789V61.4375H42.1074V52.6602H43.6191L43.7422 53.8789ZM47.0352 55.6133V56.0352C47.0352 56.5312 46.9922 56.9707 46.9062 57.3535C46.8203 57.7324 46.6914 58.0547 46.5195 58.3203C46.3516 58.582 46.1406 58.7812 45.8867 58.918C45.6328 59.0508 45.3359 59.1172 44.9961 59.1172C44.6797 59.1172 44.4062 59.043 44.1758 58.8945C43.9492 58.7422 43.7578 58.5332 43.6016 58.2676C43.4453 58.002 43.3203 57.6914 43.2266 57.3359C43.1328 56.9805 43.0605 56.5996 43.0098 56.1934V55.5371C43.0566 55.1035 43.125 54.7051 43.2148 54.3418C43.3047 53.9746 43.4277 53.6562 43.584 53.3867C43.7441 53.1172 43.9375 52.9102 44.1641 52.7656C44.3945 52.6172 44.668 52.543 44.9844 52.543C45.3281 52.543 45.627 52.6055 45.8809 52.7305C46.1387 52.8555 46.3516 53.0449 46.5195 53.2988C46.6914 53.5488 46.8203 53.8672 46.9062 54.2539C46.9922 54.6406 47.0352 55.0938 47.0352 55.6133ZM45.3945 56.0352V55.6133C45.3945 55.3086 45.377 55.0488 45.3418 54.834C45.3105 54.6191 45.2598 54.4434 45.1895 54.3066C45.1191 54.1699 45.0273 54.0703 44.9141 54.0078C44.8008 53.9453 44.6621 53.9141 44.498 53.9141C44.3379 53.9141 44.1973 53.9453 44.0762 54.0078C43.959 54.0703 43.8633 54.1621 43.7891 54.2832C43.7148 54.4004 43.6582 54.5449 43.6191 54.7168C43.5801 54.8848 43.5586 55.0762 43.5547 55.291V56.4395C43.5625 56.6934 43.5957 56.918 43.6543 57.1133C43.7168 57.3086 43.8164 57.4648 43.9531 57.582C44.0898 57.6953 44.2754 57.752 44.5098 57.752C44.6777 57.752 44.8164 57.7168 44.9258 57.6465C45.0391 57.5762 45.1309 57.4707 45.2012 57.3301C45.2715 57.1895 45.3203 57.0117 45.3477 56.7969C45.3789 56.582 45.3945 56.3281 45.3945 56.0352ZM50.8086 52.6602V53.8965H47.5742V52.6602H50.8086ZM48.3184 51.0957H49.9531V57.0664C49.9531 57.2422 49.9707 57.377 50.0059 57.4707C50.041 57.5645 50.0938 57.6309 50.1641 57.6699C50.2383 57.7051 50.3359 57.7227 50.457 57.7227C50.5391 57.7227 50.6152 57.7188 50.6855 57.7109C50.7559 57.6992 50.8086 57.6875 50.8438 57.6758V58.959C50.7148 59.0098 50.5781 59.0488 50.4336 59.0762C50.293 59.1035 50.125 59.1172 49.9297 59.1172C49.6016 59.1172 49.3164 59.0547 49.0742 58.9297C48.8359 58.8047 48.6504 58.6055 48.5176 58.332C48.3848 58.0547 48.3184 57.6914 48.3184 57.2422V51.0957ZM53.4453 52.6602V59H51.7988V52.6602H53.4453ZM51.7227 51.0195C51.7227 50.7656 51.8027 50.5566 51.9629 50.3926C52.127 50.2246 52.3457 50.1406 52.6191 50.1406C52.8965 50.1406 53.1152 50.2246 53.2754 50.3926C53.4355 50.5566 53.5156 50.7656 53.5156 51.0195C53.5156 51.2695 53.4336 51.4785 53.2695 51.6465C53.1094 51.8105 52.8945 51.8926 52.625 51.8926C52.3477 51.8926 52.127 51.8105 51.9629 51.6465C51.8027 51.4785 51.7227 51.2695 51.7227 51.0195ZM54.5586 56.0469V55.6191C54.5586 55.123 54.6172 54.6836 54.7344 54.3008C54.8555 53.918 55.0273 53.5977 55.25 53.3398C55.4727 53.0781 55.7402 52.8809 56.0527 52.748C56.3691 52.6113 56.7227 52.543 57.1133 52.543C57.5078 52.543 57.8613 52.6113 58.1738 52.748C58.4902 52.8809 58.7598 53.0781 58.9824 53.3398C59.209 53.5977 59.3828 53.918 59.5039 54.3008C59.625 54.6836 59.6855 55.123 59.6855 55.6191V56.0469C59.6855 56.5391 59.625 56.9766 59.5039 57.3594C59.3828 57.7422 59.209 58.0645 58.9824 58.3262C58.7598 58.5879 58.4922 58.7852 58.1797 58.918C57.8672 59.0508 57.5156 59.1172 57.125 59.1172C56.7344 59.1172 56.3809 59.0508 56.0645 58.918C55.752 58.7852 55.4824 58.5879 55.2559 58.3262C55.0293 58.0645 54.8555 57.7422 54.7344 57.3594C54.6172 56.9766 54.5586 56.5391 54.5586 56.0469ZM56.1992 55.6191V56.0469C56.1992 56.3398 56.2188 56.5938 56.2578 56.8086C56.3008 57.0234 56.3613 57.2012 56.4395 57.3418C56.5215 57.4824 56.6191 57.5859 56.7324 57.6523C56.8457 57.7188 56.9766 57.752 57.125 57.752C57.2734 57.752 57.4062 57.7188 57.5234 57.6523C57.6406 57.5859 57.7363 57.4824 57.8105 57.3418C57.8887 57.2012 57.9453 57.0234 57.9805 56.8086C58.0195 56.5938 58.0391 56.3398 58.0391 56.0469V55.6191C58.0391 55.334 58.0176 55.084 57.9746 54.8691C57.9316 54.6504 57.8711 54.4727 57.793 54.3359C57.7148 54.1953 57.6172 54.0898 57.5 54.0195C57.3867 53.9453 57.2578 53.9082 57.1133 53.9082C56.9688 53.9082 56.8398 53.9453 56.7266 54.0195C56.6172 54.0898 56.5215 54.1953 56.4395 54.3359C56.3613 54.4727 56.3008 54.6504 56.2578 54.8691C56.2188 55.084 56.1992 55.334 56.1992 55.6191ZM62.334 54.0137V59H60.6875V52.6602H62.2285L62.334 54.0137ZM62.0879 55.6133L61.6484 55.625C61.6406 55.1484 61.6855 54.7207 61.7832 54.3418C61.8848 53.9629 62.0273 53.6406 62.2109 53.375C62.3984 53.1055 62.6211 52.9004 62.8789 52.7598C63.1406 52.6152 63.4316 52.543 63.752 52.543C63.998 52.543 64.2227 52.5859 64.4258 52.6719C64.6328 52.7578 64.8105 52.8945 64.959 53.082C65.1074 53.2695 65.2227 53.5195 65.3047 53.832C65.3867 54.1406 65.4277 54.5195 65.4277 54.9688V59H63.7812V54.957C63.7812 54.6836 63.7539 54.4727 63.6992 54.3242C63.6445 54.1719 63.5625 54.0664 63.4531 54.0078C63.3438 53.9453 63.207 53.9141 63.043 53.9141C62.8867 53.9141 62.748 53.959 62.627 54.0488C62.5059 54.1348 62.4043 54.2539 62.3223 54.4062C62.2441 54.5586 62.1836 54.7383 62.1406 54.9453C62.1016 55.1523 62.084 55.375 62.0879 55.6133Z" fill="white"/>
<rect width="84" height="17" transform="translate(9 67)" fill="#6751A5"/>
<path d="M11.6973 71.4688H14.4336C15.0039 71.4688 15.4902 71.5664 15.8926 71.7617C16.2949 71.957 16.6035 72.2461 16.8184 72.6289C17.0332 73.0117 17.1406 73.4844 17.1406 74.0469C17.1406 74.5078 17.0781 74.9023 16.9531 75.2305C16.8281 75.5547 16.6504 75.8262 16.4199 76.0449C16.1895 76.2598 15.9141 76.4316 15.5938 76.5605L15.0723 76.8711H12.8516L12.8457 75.4473H14.3867C14.6211 75.4473 14.8145 75.3965 14.9668 75.2949C15.123 75.1895 15.2383 75.043 15.3125 74.8555C15.3906 74.6641 15.4297 74.4414 15.4297 74.1875C15.4297 73.918 15.3945 73.6875 15.3242 73.4961C15.2578 73.3008 15.1504 73.1523 15.002 73.0508C14.8574 72.9453 14.668 72.8926 14.4336 72.8926H13.4141V80H11.6973V71.4688ZM15.5703 80L14.0059 76.1973L15.8047 76.1914L17.4043 79.918V80H15.5703ZM18.0664 77.0469V76.6191C18.0664 76.123 18.125 75.6836 18.2422 75.3008C18.3633 74.918 18.5352 74.5977 18.7578 74.3398C18.9805 74.0781 19.248 73.8809 19.5605 73.748C19.877 73.6113 20.2305 73.543 20.6211 73.543C21.0156 73.543 21.3691 73.6113 21.6816 73.748C21.998 73.8809 22.2676 74.0781 22.4902 74.3398C22.7168 74.5977 22.8906 74.918 23.0117 75.3008C23.1328 75.6836 23.1934 76.123 23.1934 76.6191V77.0469C23.1934 77.5391 23.1328 77.9766 23.0117 78.3594C22.8906 78.7422 22.7168 79.0645 22.4902 79.3262C22.2676 79.5879 22 79.7852 21.6875 79.918C21.375 80.0508 21.0234 80.1172 20.6328 80.1172C20.2422 80.1172 19.8887 80.0508 19.5723 79.918C19.2598 79.7852 18.9902 79.5879 18.7637 79.3262C18.5371 79.0645 18.3633 78.7422 18.2422 78.3594C18.125 77.9766 18.0664 77.5391 18.0664 77.0469ZM19.707 76.6191V77.0469C19.707 77.3398 19.7266 77.5938 19.7656 77.8086C19.8086 78.0234 19.8691 78.2012 19.9473 78.3418C20.0293 78.4824 20.127 78.5859 20.2402 78.6523C20.3535 78.7188 20.4844 78.752 20.6328 78.752C20.7812 78.752 20.9141 78.7188 21.0312 78.6523C21.1484 78.5859 21.2441 78.4824 21.3184 78.3418C21.3965 78.2012 21.4531 78.0234 21.4883 77.8086C21.5273 77.5938 21.5469 77.3398 21.5469 77.0469V76.6191C21.5469 76.334 21.5254 76.084 21.4824 75.8691C21.4395 75.6504 21.3789 75.4727 21.3008 75.3359C21.2227 75.1953 21.125 75.0898 21.0078 75.0195C20.8945 74.9453 20.7656 74.9082 20.6211 74.9082C20.4766 74.9082 20.3477 74.9453 20.2344 75.0195C20.125 75.0898 20.0293 75.1953 19.9473 75.3359C19.8691 75.4727 19.8086 75.6504 19.7656 75.8691C19.7266 76.084 19.707 76.334 19.707 76.6191ZM25.9531 71V80H24.3066V71H25.9531ZM29.8086 80.1172C29.375 80.1172 28.9902 80.0508 28.6543 79.918C28.3223 79.7852 28.041 79.5938 27.8105 79.3438C27.5801 79.0898 27.4043 78.7832 27.2832 78.4238C27.1621 78.0645 27.1016 77.6543 27.1016 77.1934V76.6719C27.1016 76.1562 27.1602 75.7051 27.2773 75.3184C27.3945 74.9277 27.5605 74.5996 27.7754 74.334C27.9902 74.0684 28.2539 73.8711 28.5664 73.7422C28.8828 73.6094 29.2402 73.543 29.6387 73.543C30.0371 73.543 30.3867 73.6094 30.6875 73.7422C30.9922 73.8711 31.2441 74.0664 31.4434 74.3281C31.6426 74.5859 31.793 74.9062 31.8945 75.2891C31.9961 75.6719 32.0469 76.1172 32.0469 76.625V77.375H27.7988V76.2207H30.4355V76.0742C30.4355 75.8164 30.4082 75.6016 30.3535 75.4297C30.2988 75.2539 30.2129 75.123 30.0957 75.0371C29.9785 74.9512 29.8223 74.9082 29.627 74.9082C29.4629 74.9082 29.3242 74.9414 29.2109 75.0078C29.0977 75.0742 29.0078 75.1777 28.9414 75.3184C28.875 75.459 28.8262 75.6426 28.7949 75.8691C28.7637 76.0918 28.748 76.3594 28.748 76.6719V77.1934C28.748 77.4863 28.7734 77.7324 28.8242 77.9316C28.875 78.127 28.9492 78.2871 29.0469 78.4121C29.1484 78.5332 29.2715 78.6211 29.416 78.6758C29.5605 78.7266 29.7285 78.752 29.9199 78.752C30.209 78.752 30.4688 78.7012 30.6992 78.5996C30.9336 78.4941 31.1328 78.3516 31.2969 78.1719L31.9531 79.168C31.8398 79.3164 31.6836 79.4648 31.4844 79.6133C31.2852 79.7617 31.0469 79.8828 30.7695 79.9766C30.4922 80.0703 30.1719 80.1172 29.8086 80.1172Z" fill="white"/>
<rect width="84" height="17" transform="translate(9 88)" fill="#FEC53E"/>
<path d="M16.584 99.582V101H12.875V99.582H16.584ZM13.4082 92.4688V101H11.6914V92.4688H13.4082ZM16.0859 95.9258V97.3027H12.875V95.9258H16.0859ZM16.5723 92.4688V93.8926H12.875V92.4688H16.5723ZM18.9043 94.6602L19.6895 96.2715L20.3633 94.6602H22.1035L20.4805 97.7598L22.168 101H20.416L19.6133 99.3301L18.8457 101H17.0879L18.6992 97.7773L17.1465 94.6602H18.9043ZM24.5703 95.8789V103.438H22.9355V94.6602H24.4473L24.5703 95.8789ZM27.8633 97.6133V98.0352C27.8633 98.5312 27.8203 98.9707 27.7344 99.3535C27.6484 99.7324 27.5195 100.055 27.3477 100.32C27.1797 100.582 26.9688 100.781 26.7148 100.918C26.4609 101.051 26.1641 101.117 25.8242 101.117C25.5078 101.117 25.2344 101.043 25.0039 100.895C24.7773 100.742 24.5859 100.533 24.4297 100.268C24.2734 100.002 24.1484 99.6914 24.0547 99.3359C23.9609 98.9805 23.8887 98.5996 23.8379 98.1934V97.5371C23.8848 97.1035 23.9531 96.7051 24.043 96.3418C24.1328 95.9746 24.2559 95.6562 24.4121 95.3867C24.5723 95.1172 24.7656 94.9102 24.9922 94.7656C25.2227 94.6172 25.4961 94.543 25.8125 94.543C26.1562 94.543 26.4551 94.6055 26.709 94.7305C26.9668 94.8555 27.1797 95.0449 27.3477 95.2988C27.5195 95.5488 27.6484 95.8672 27.7344 96.2539C27.8203 96.6406 27.8633 97.0938 27.8633 97.6133ZM26.2227 98.0352V97.6133C26.2227 97.3086 26.2051 97.0488 26.1699 96.834C26.1387 96.6191 26.0879 96.4434 26.0176 96.3066C25.9473 96.1699 25.8555 96.0703 25.7422 96.0078C25.6289 95.9453 25.4902 95.9141 25.3262 95.9141C25.166 95.9141 25.0254 95.9453 24.9043 96.0078C24.7871 96.0703 24.6914 96.1621 24.6172 96.2832C24.543 96.4004 24.4863 96.5449 24.4473 96.7168C24.4082 96.8848 24.3867 97.0762 24.3828 97.291V98.4395C24.3906 98.6934 24.4238 98.918 24.4824 99.1133C24.5449 99.3086 24.6445 99.4648 24.7812 99.582C24.918 99.6953 25.1035 99.752 25.3379 99.752C25.5059 99.752 25.6445 99.7168 25.7539 99.6465C25.8672 99.5762 25.959 99.4707 26.0293 99.3301C26.0996 99.1895 26.1484 99.0117 26.1758 98.7969C26.207 98.582 26.2227 98.3281 26.2227 98.0352ZM31.4258 101.117C30.9922 101.117 30.6074 101.051 30.2715 100.918C29.9395 100.785 29.6582 100.594 29.4277 100.344C29.1973 100.09 29.0215 99.7832 28.9004 99.4238C28.7793 99.0645 28.7188 98.6543 28.7188 98.1934V97.6719C28.7188 97.1562 28.7773 96.7051 28.8945 96.3184C29.0117 95.9277 29.1777 95.5996 29.3926 95.334C29.6074 95.0684 29.8711 94.8711 30.1836 94.7422C30.5 94.6094 30.8574 94.543 31.2559 94.543C31.6543 94.543 32.0039 94.6094 32.3047 94.7422C32.6094 94.8711 32.8613 95.0664 33.0605 95.3281C33.2598 95.5859 33.4102 95.9062 33.5117 96.2891C33.6133 96.6719 33.6641 97.1172 33.6641 97.625V98.375H29.416V97.2207H32.0527V97.0742C32.0527 96.8164 32.0254 96.6016 31.9707 96.4297C31.916 96.2539 31.8301 96.123 31.7129 96.0371C31.5957 95.9512 31.4395 95.9082 31.2441 95.9082C31.0801 95.9082 30.9414 95.9414 30.8281 96.0078C30.7148 96.0742 30.625 96.1777 30.5586 96.3184C30.4922 96.459 30.4434 96.6426 30.4121 96.8691C30.3809 97.0918 30.3652 97.3594 30.3652 97.6719V98.1934C30.3652 98.4863 30.3906 98.7324 30.4414 98.9316C30.4922 99.127 30.5664 99.2871 30.6641 99.4121C30.7656 99.5332 30.8887 99.6211 31.0332 99.6758C31.1777 99.7266 31.3457 99.752 31.5371 99.752C31.8262 99.752 32.0859 99.7012 32.3164 99.5996C32.5508 99.4941 32.75 99.3516 32.9141 99.1719L33.5703 100.168C33.457 100.316 33.3008 100.465 33.1016 100.613C32.9023 100.762 32.6641 100.883 32.3867 100.977C32.1094 101.07 31.7891 101.117 31.4258 101.117ZM36.9043 99.752C37.0566 99.752 37.1875 99.7207 37.2969 99.6582C37.4102 99.5957 37.4961 99.4941 37.5547 99.3535C37.6133 99.2129 37.6445 99.0312 37.6484 98.8086H39.1895C39.1895 99.2852 39.0879 99.6973 38.8848 100.045C38.6855 100.389 38.416 100.654 38.0762 100.842C37.7402 101.025 37.3594 101.117 36.9336 101.117C36.5078 101.117 36.1367 101.049 35.8203 100.912C35.5039 100.775 35.2422 100.576 35.0352 100.314C34.832 100.053 34.6777 99.7344 34.5723 99.3594C34.4707 98.9805 34.4199 98.5469 34.4199 98.0586V97.5957C34.4199 97.1152 34.4707 96.6855 34.5723 96.3066C34.6777 95.9277 34.832 95.6074 35.0352 95.3457C35.2422 95.084 35.502 94.8848 35.8145 94.748C36.1309 94.6113 36.502 94.543 36.9277 94.543C37.3848 94.543 37.7812 94.6387 38.1172 94.8301C38.4531 95.0176 38.7148 95.2949 38.9023 95.6621C39.0938 96.0293 39.1895 96.4824 39.1895 97.0215H37.6484C37.6445 96.7793 37.6152 96.5781 37.5605 96.418C37.5098 96.2539 37.4297 96.1289 37.3203 96.043C37.2148 95.9531 37.0742 95.9082 36.8984 95.9082C36.7148 95.9082 36.5664 95.9473 36.4531 96.0254C36.3438 96.0996 36.2598 96.209 36.2012 96.3535C36.1465 96.4941 36.1094 96.6699 36.0898 96.8809C36.0703 97.0918 36.0605 97.3301 36.0605 97.5957V98.0586C36.0605 98.3438 36.0684 98.5918 36.084 98.8027C36.1035 99.0098 36.1406 99.1855 36.1953 99.3301C36.2539 99.4707 36.3379 99.5762 36.4473 99.6465C36.5605 99.7168 36.7129 99.752 36.9043 99.752ZM42.8984 94.6602V95.8965H39.6641V94.6602H42.8984ZM40.4082 93.0957H42.043V99.0664C42.043 99.2422 42.0605 99.377 42.0957 99.4707C42.1309 99.5645 42.1836 99.6309 42.2539 99.6699C42.3281 99.7051 42.4258 99.7227 42.5469 99.7227C42.6289 99.7227 42.7051 99.7188 42.7754 99.7109C42.8457 99.6992 42.8984 99.6875 42.9336 99.6758V100.959C42.8047 101.01 42.668 101.049 42.5234 101.076C42.3828 101.104 42.2148 101.117 42.0195 101.117C41.6914 101.117 41.4062 101.055 41.1641 100.93C40.9258 100.805 40.7402 100.605 40.6074 100.332C40.4746 100.055 40.4082 99.6914 40.4082 99.2422V93.0957ZM46.6074 99.541V96.6113C46.6074 96.4199 46.584 96.2676 46.5371 96.1543C46.4941 96.041 46.4277 95.959 46.3379 95.9082C46.252 95.8535 46.1465 95.8262 46.0215 95.8262C45.8809 95.8262 45.7637 95.8555 45.6699 95.9141C45.5762 95.9727 45.5059 96.0566 45.459 96.166C45.416 96.2754 45.3945 96.4062 45.3945 96.5586H43.748C43.748 96.2852 43.8008 96.0273 43.9062 95.7852C44.0117 95.5391 44.166 95.3242 44.3691 95.1406C44.5762 94.9531 44.8223 94.8066 45.1074 94.7012C45.3926 94.5957 45.7129 94.543 46.0684 94.543C46.4902 94.543 46.8652 94.6152 47.1934 94.7598C47.5215 94.9004 47.7812 95.125 47.9727 95.4336C48.1641 95.7422 48.2598 96.1426 48.2598 96.6348V99.459C48.2598 99.8145 48.2773 100.104 48.3125 100.326C48.3516 100.549 48.4082 100.74 48.4824 100.9V101H46.8301C46.7559 100.824 46.6992 100.605 46.6602 100.344C46.625 100.078 46.6074 99.8105 46.6074 99.541ZM46.8066 97.127L46.8125 98.1113H46.209C46.0527 98.1113 45.916 98.1367 45.7988 98.1875C45.6855 98.2383 45.5898 98.3105 45.5117 98.4043C45.4336 98.4941 45.375 98.5996 45.3359 98.7207C45.3008 98.8418 45.2832 98.9707 45.2832 99.1074C45.2832 99.2598 45.3047 99.3887 45.3477 99.4941C45.3906 99.5996 45.4551 99.6797 45.541 99.7344C45.627 99.7891 45.7285 99.8164 45.8457 99.8164C46.0254 99.8164 46.1816 99.7793 46.3145 99.7051C46.4473 99.6309 46.5449 99.541 46.6074 99.4355C46.6738 99.3301 46.6953 99.2324 46.6719 99.1426L47.0469 99.7812C47 99.9258 46.9355 100.076 46.8535 100.232C46.7754 100.389 46.6758 100.533 46.5547 100.666C46.4336 100.799 46.2832 100.908 46.1035 100.994C45.9277 101.076 45.7188 101.117 45.4766 101.117C45.1367 101.117 44.8262 101.039 44.5449 100.883C44.2637 100.727 44.041 100.508 43.877 100.227C43.7168 99.9453 43.6367 99.6113 43.6367 99.2246C43.6367 98.9043 43.6875 98.6152 43.7891 98.3574C43.8945 98.0957 44.0508 97.875 44.2578 97.6953C44.4648 97.5117 44.7266 97.3711 45.043 97.2734C45.3594 97.1758 45.7305 97.127 46.1562 97.127H46.8066ZM52.2383 94.6602V95.8965H49.0039V94.6602H52.2383ZM49.748 93.0957H51.3828V99.0664C51.3828 99.2422 51.4004 99.377 51.4355 99.4707C51.4707 99.5645 51.5234 99.6309 51.5938 99.6699C51.668 99.7051 51.7656 99.7227 51.8867 99.7227C51.9688 99.7227 52.0449 99.7188 52.1152 99.7109C52.1855 99.6992 52.2383 99.6875 52.2734 99.6758V100.959C52.1445 101.01 52.0078 101.049 51.8633 101.076C51.7227 101.104 51.5547 101.117 51.3594 101.117C51.0312 101.117 50.7461 101.055 50.5039 100.93C50.2656 100.805 50.0801 100.605 49.9473 100.332C49.8145 100.055 49.748 99.6914 49.748 99.2422V93.0957ZM54.875 94.6602V101H53.2285V94.6602H54.875ZM53.1523 93.0195C53.1523 92.7656 53.2324 92.5566 53.3926 92.3926C53.5566 92.2246 53.7754 92.1406 54.0488 92.1406C54.3262 92.1406 54.5449 92.2246 54.7051 92.3926C54.8652 92.5566 54.9453 92.7656 54.9453 93.0195C54.9453 93.2695 54.8633 93.4785 54.6992 93.6465C54.5391 93.8105 54.3242 93.8926 54.0547 93.8926C53.7773 93.8926 53.5566 93.8105 53.3926 93.6465C53.2324 93.4785 53.1523 93.2695 53.1523 93.0195ZM55.9883 98.0469V97.6191C55.9883 97.123 56.0469 96.6836 56.1641 96.3008C56.2852 95.918 56.457 95.5977 56.6797 95.3398C56.9023 95.0781 57.1699 94.8809 57.4824 94.748C57.7988 94.6113 58.1523 94.543 58.543 94.543C58.9375 94.543 59.291 94.6113 59.6035 94.748C59.9199 94.8809 60.1895 95.0781 60.4121 95.3398C60.6387 95.5977 60.8125 95.918 60.9336 96.3008C61.0547 96.6836 61.1152 97.123 61.1152 97.6191V98.0469C61.1152 98.5391 61.0547 98.9766 60.9336 99.3594C60.8125 99.7422 60.6387 100.064 60.4121 100.326C60.1895 100.588 59.9219 100.785 59.6094 100.918C59.2969 101.051 58.9453 101.117 58.5547 101.117C58.1641 101.117 57.8105 101.051 57.4941 100.918C57.1816 100.785 56.9121 100.588 56.6855 100.326C56.459 100.064 56.2852 99.7422 56.1641 99.3594C56.0469 98.9766 55.9883 98.5391 55.9883 98.0469ZM57.6289 97.6191V98.0469C57.6289 98.3398 57.6484 98.5938 57.6875 98.8086C57.7305 99.0234 57.791 99.2012 57.8691 99.3418C57.9512 99.4824 58.0488 99.5859 58.1621 99.6523C58.2754 99.7188 58.4062 99.752 58.5547 99.752C58.7031 99.752 58.8359 99.7188 58.9531 99.6523C59.0703 99.5859 59.166 99.4824 59.2402 99.3418C59.3184 99.2012 59.375 99.0234 59.4102 98.8086C59.4492 98.5938 59.4688 98.3398 59.4688 98.0469V97.6191C59.4688 97.334 59.4473 97.084 59.4043 96.8691C59.3613 96.6504 59.3008 96.4727 59.2227 96.3359C59.1445 96.1953 59.0469 96.0898 58.9297 96.0195C58.8164 95.9453 58.6875 95.9082 58.543 95.9082C58.3984 95.9082 58.2695 95.9453 58.1562 96.0195C58.0469 96.0898 57.9512 96.1953 57.8691 96.3359C57.791 96.4727 57.7305 96.6504 57.6875 96.8691C57.6484 97.084 57.6289 97.334 57.6289 97.6191ZM63.7637 96.0137V101H62.1172V94.6602H63.6582L63.7637 96.0137ZM63.5176 97.6133L63.0781 97.625C63.0703 97.1484 63.1152 96.7207 63.2129 96.3418C63.3145 95.9629 63.457 95.6406 63.6406 95.375C63.8281 95.1055 64.0508 94.9004 64.3086 94.7598C64.5703 94.6152 64.8613 94.543 65.1816 94.543C65.4277 94.543 65.6523 94.5859 65.8555 94.6719C66.0625 94.7578 66.2402 94.8945 66.3887 95.082C66.5371 95.2695 66.6523 95.5195 66.7344 95.832C66.8164 96.1406 66.8574 96.5195 66.8574 96.9688V101H65.2109V96.957C65.2109 96.6836 65.1836 96.4727 65.1289 96.3242C65.0742 96.1719 64.9922 96.0664 64.8828 96.0078C64.7734 95.9453 64.6367 95.9141 64.4727 95.9141C64.3164 95.9141 64.1777 95.959 64.0566 96.0488C63.9355 96.1348 63.834 96.2539 63.752 96.4062C63.6738 96.5586 63.6133 96.7383 63.5703 96.9453C63.5312 97.1523 63.5137 97.375 63.5176 97.6133Z" fill="black"/>
<rect x="5.5" y="21.5" width="91" height="87" stroke="#CCCCCC"/>
</g>
<defs>
<filter id="filter0_d_38_9703" x="0" y="0" width="102" height="221" filterUnits="userSpaceOnUse" color-interpolation-filters="sRGB">
<feFlood flood-opacity="0" result="BackgroundImageFix"/>
<feColorMatrix in="SourceAlpha" type="matrix" values="0 0 0 0 0 0 0 0 0 0 0 0 0 0 0 0 0 0 127 0" result="hardAlpha"/>
<feOffset/>
<feGaussianBlur stdDeviation="0.5"/>
<feComposite in2="hardAlpha" operator="out"/>
<feColorMatrix type="matrix" values="0 0 0 0 0.988235 0 0 0 0 0.133333 0 0 0 0 0.576471 0 0 0 1 0"/>
<feBlend mode="normal" in2="BackgroundImageFix" result="effect1_dropShadow_38_9703"/>
<feBlend mode="normal" in="SourceGraphic" in2="effect1_dropShadow_38_9703" result="shape"/>
</filter>
</defs>
</svg>
