<svg width="102" height="210" viewBox="0 0 102 210" fill="none" xmlns="http://www.w3.org/2000/svg">
<g filter="url(#filter0_d_8_9347)">
<rect width="100" height="46" transform="translate(1 1)" fill="white"/>
<path d="M14.8281 14.2656L8.60938 35H5.67188L13 12.25H14.8438L14.8281 14.2656ZM19.8594 35L13.6406 14.2656L13.6094 12.25H15.4688L22.7969 35H19.8594ZM19.8594 26.5781V29.0469H8.89062V26.5781H19.8594Z" fill="#434343"/>
<rect x="28" y="5" width="69" height="8" fill="#434343"/>
<rect x="28" y="17" width="69" height="4" fill="#39A71B"/>
<rect x="28" y="23" width="69" height="4" fill="#39A71B"/>
<rect x="28" y="31" width="69" height="4" fill="#6751A5"/>
<rect x="28" y="39" width="69" height="4" fill="#FEC53E"/>
<rect width="100" height="46" transform="translate(1 55)" fill="white"/>
<path d="M14.3438 78.3594H9.71875L9.6875 75.9375H13.9844C14.6302 75.9375 15.2031 75.7917 15.7031 75.5C16.2031 75.2083 16.5938 74.7917 16.875 74.25C17.1667 73.6979 17.3125 73.0417 17.3125 72.2812C17.3125 71.4479 17.1875 70.7708 16.9375 70.25C16.6979 69.7188 16.3281 69.3333 15.8281 69.0938C15.3385 68.8438 14.7135 68.7188 13.9531 68.7188H10.3281V89H7.45312V66.25H13.9531C14.9323 66.25 15.8073 66.3698 16.5781 66.6094C17.349 66.8385 18 67.2031 18.5312 67.7031C19.0729 68.1927 19.4844 68.8177 19.7656 69.5781C20.0469 70.3385 20.1875 71.25 20.1875 72.3125C20.1875 73.25 19.974 74.099 19.5469 74.8594C19.1302 75.6094 18.5469 76.224 17.7969 76.7031C17.0469 77.1823 16.1823 77.4896 15.2031 77.625L14.3438 78.3594ZM14.2344 89H8.53125L10.2031 86.5469H14.2344C14.9844 86.5469 15.6198 86.3802 16.1406 86.0469C16.6615 85.7135 17.0573 85.2448 17.3281 84.6406C17.6094 84.026 17.75 83.3021 17.75 82.4688C17.75 81.625 17.6354 80.8958 17.4062 80.2812C17.1771 79.6667 16.8125 79.1927 16.3125 78.8594C15.8125 78.526 15.1562 78.3594 14.3438 78.3594H10.6406L10.6719 75.9375H15.6719L16.3125 76.8125C17.25 76.9062 18.0365 77.2188 18.6719 77.75C19.3177 78.2708 19.8021 78.9375 20.125 79.75C20.4583 80.5625 20.625 81.4583 20.625 82.4375C20.625 83.8542 20.3594 85.0521 19.8281 86.0312C19.3073 87 18.5677 87.7396 17.6094 88.25C16.651 88.75 15.526 89 14.2344 89Z" fill="#434343"/>
<rect x="27" y="59" width="70" height="8" fill="#434343"/>
<rect x="27" y="71" width="70" height="4" fill="#39A71B"/>
<rect x="27" y="77" width="70" height="4" fill="#39A71B"/>
<rect x="27" y="85" width="70" height="4" fill="#6751A5"/>
<rect x="27" y="93" width="70" height="4" fill="#FEC53E"/>
<rect width="100" height="46" transform="translate(1 109)" fill="white"/>
<path d="M18.8438 135.766H21.7188C21.6458 137.328 21.3281 138.677 20.7656 139.812C20.2135 140.938 19.4062 141.802 18.3438 142.406C17.2917 143.01 15.974 143.312 14.3906 143.312C13.2552 143.312 12.2292 143.089 11.3125 142.641C10.3958 142.193 9.60938 141.552 8.95312 140.719C8.30729 139.875 7.8125 138.865 7.46875 137.688C7.125 136.51 6.95312 135.188 6.95312 133.719V129.516C6.95312 128.057 7.125 126.74 7.46875 125.562C7.82292 124.385 8.32812 123.38 8.98438 122.547C9.65104 121.703 10.4583 121.057 11.4062 120.609C12.3646 120.161 13.4479 119.938 14.6562 119.938C16.1354 119.938 17.3854 120.234 18.4062 120.828C19.4375 121.411 20.2292 122.271 20.7812 123.406C21.3438 124.531 21.6562 125.911 21.7188 127.547H18.8438C18.7708 126.349 18.5833 125.375 18.2812 124.625C17.9792 123.865 17.5312 123.307 16.9375 122.953C16.3542 122.589 15.5938 122.406 14.6562 122.406C13.8229 122.406 13.099 122.573 12.4844 122.906C11.8802 123.24 11.3802 123.719 10.9844 124.344C10.599 124.958 10.3073 125.703 10.1094 126.578C9.92188 127.443 9.82812 128.411 9.82812 129.484V133.719C9.82812 134.719 9.90625 135.651 10.0625 136.516C10.2292 137.38 10.4896 138.141 10.8438 138.797C11.2083 139.443 11.6823 139.948 12.2656 140.312C12.849 140.677 13.5573 140.859 14.3906 140.859C15.4427 140.859 16.276 140.688 16.8906 140.344C17.5052 140 17.9583 139.453 18.25 138.703C18.5521 137.953 18.75 136.974 18.8438 135.766Z" fill="#434343"/>
<rect x="28" y="113" width="69" height="8" fill="#434343"/>
<rect x="28" y="125" width="69" height="4" fill="#39A71B"/>
<rect x="28" y="131" width="69" height="4" fill="#39A71B"/>
<rect x="28" y="139" width="69" height="4" fill="#6751A5"/>
<rect x="28" y="147" width="69" height="4" fill="#FEC53E"/>
<rect width="100" height="46" transform="translate(1 163)" fill="white"/>
<path d="M12.6094 197H8.73438L8.76562 194.547H12.6094C13.974 194.547 15.0833 194.286 15.9375 193.766C16.7917 193.234 17.4219 192.453 17.8281 191.422C18.2344 190.38 18.4375 189.094 18.4375 187.562V183.672C18.4375 182.464 18.3229 181.422 18.0938 180.547C17.8646 179.672 17.5208 178.953 17.0625 178.391C16.6042 177.828 16.026 177.411 15.3281 177.141C14.6302 176.859 13.8125 176.719 12.875 176.719H8.65625V174.25H12.875C14.1562 174.25 15.3125 174.453 16.3438 174.859C17.375 175.255 18.2604 175.854 19 176.656C19.7396 177.448 20.3021 178.432 20.6875 179.609C21.0833 180.786 21.2812 182.151 21.2812 183.703V187.562C21.2812 189.115 21.0833 190.479 20.6875 191.656C20.3021 192.833 19.7344 193.818 18.9844 194.609C18.2344 195.401 17.3229 196 16.25 196.406C15.1875 196.802 13.974 197 12.6094 197ZM10.3281 174.25V197H7.45312V174.25H10.3281Z" fill="#434343"/>
<rect x="28" y="167" width="69" height="8" fill="#434343"/>
<rect x="28" y="179" width="69" height="4" fill="#39A71B"/>
<rect x="28" y="185" width="69" height="4" fill="#39A71B"/>
<rect x="28" y="193" width="69" height="4" fill="#6751A5"/>
<rect x="28" y="201" width="69" height="4" fill="#FEC53E"/>
</g>
<defs>
<filter id="filter0_d_8_9347" x="0" y="0" width="102" height="210" filterUnits="userSpaceOnUse" color-interpolation-filters="sRGB">
<feFlood flood-opacity="0" result="BackgroundImageFix"/>
<feColorMatrix in="SourceAlpha" type="matrix" values="0 0 0 0 0 0 0 0 0 0 0 0 0 0 0 0 0 0 127 0" result="hardAlpha"/>
<feOffset/>
<feGaussianBlur stdDeviation="0.5"/>
<feComposite in2="hardAlpha" operator="out"/>
<feColorMatrix type="matrix" values="0 0 0 0 0.988235 0 0 0 0 0.133333 0 0 0 0 0.576471 0 0 0 1 0"/>
<feBlend mode="normal" in2="BackgroundImageFix" result="effect1_dropShadow_8_9347"/>
<feBlend mode="normal" in="SourceGraphic" in2="effect1_dropShadow_8_9347" result="shape"/>
</filter>
</defs>
</svg>
