<svg width="102" height="210" viewBox="0 0 102 210" fill="none" xmlns="http://www.w3.org/2000/svg">
<g filter="url(#filter0_d_8_9422)">
<rect width="100" height="46" transform="translate(1 1)" fill="white"/>
<path d="M12.6094 35H8.73438L8.76562 32.5469H12.6094C13.974 32.5469 15.0833 32.2865 15.9375 31.7656C16.7917 31.2344 17.4219 30.4531 17.8281 29.4219C18.2344 28.3802 18.4375 27.0938 18.4375 25.5625V21.6719C18.4375 20.4635 18.3229 19.4219 18.0938 18.5469C17.8646 17.6719 17.5208 16.9531 17.0625 16.3906C16.6042 15.8281 16.026 15.4115 15.3281 15.1406C14.6302 14.8594 13.8125 14.7188 12.875 14.7188H8.65625V12.25H12.875C14.1562 12.25 15.3125 12.4531 16.3438 12.8594C17.375 13.2552 18.2604 13.8542 19 14.6562C19.7396 15.4479 20.3021 16.4323 20.6875 17.6094C21.0833 18.7865 21.2812 20.151 21.2812 21.7031V25.5625C21.2812 27.1146 21.0833 28.4792 20.6875 29.6562C20.3021 30.8333 19.7344 31.8177 18.9844 32.6094C18.2344 33.401 17.3229 34 16.25 34.4062C15.1875 34.8021 13.974 35 12.6094 35ZM10.3281 12.25V35H7.45312V12.25H10.3281Z" fill="#434343"/>
<rect x="28" y="5" width="69" height="8" fill="#434343"/>
<rect x="28" y="17" width="69" height="4" fill="#39A71B"/>
<rect x="28" y="23" width="69" height="4" fill="#39A71B"/>
<rect x="28" y="31" width="69" height="4" fill="#6751A5"/>
<rect x="28" y="39" width="69" height="4" fill="#FEC53E"/>
<rect width="100" height="46" transform="translate(1 55)" fill="white"/>
<path d="M14.8281 68.2656L8.60938 89H5.67188L13 66.25H14.8438L14.8281 68.2656ZM19.8594 89L13.6406 68.2656L13.6094 66.25H15.4688L22.7969 89H19.8594ZM19.8594 80.5781V83.0469H8.89062V80.5781H19.8594Z" fill="#434343"/>
<rect x="28" y="59" width="69" height="8" fill="#434343"/>
<rect x="28" y="71" width="69" height="4" fill="#39A71B"/>
<rect x="28" y="77" width="69" height="4" fill="#39A71B"/>
<rect x="28" y="85" width="69" height="4" fill="#6751A5"/>
<rect x="28" y="93" width="69" height="4" fill="#FEC53E"/>
<rect width="100" height="46" transform="translate(1 109)" fill="white"/>
<path d="M18.8438 135.766H21.7188C21.6458 137.328 21.3281 138.677 20.7656 139.812C20.2135 140.938 19.4062 141.802 18.3438 142.406C17.2917 143.01 15.974 143.312 14.3906 143.312C13.2552 143.312 12.2292 143.089 11.3125 142.641C10.3958 142.193 9.60938 141.552 8.95312 140.719C8.30729 139.875 7.8125 138.865 7.46875 137.688C7.125 136.51 6.95312 135.188 6.95312 133.719V129.516C6.95312 128.057 7.125 126.74 7.46875 125.562C7.82292 124.385 8.32812 123.38 8.98438 122.547C9.65104 121.703 10.4583 121.057 11.4062 120.609C12.3646 120.161 13.4479 119.938 14.6562 119.938C16.1354 119.938 17.3854 120.234 18.4062 120.828C19.4375 121.411 20.2292 122.271 20.7812 123.406C21.3438 124.531 21.6562 125.911 21.7188 127.547H18.8438C18.7708 126.349 18.5833 125.375 18.2812 124.625C17.9792 123.865 17.5312 123.307 16.9375 122.953C16.3542 122.589 15.5938 122.406 14.6562 122.406C13.8229 122.406 13.099 122.573 12.4844 122.906C11.8802 123.24 11.3802 123.719 10.9844 124.344C10.599 124.958 10.3073 125.703 10.1094 126.578C9.92188 127.443 9.82812 128.411 9.82812 129.484V133.719C9.82812 134.719 9.90625 135.651 10.0625 136.516C10.2292 137.38 10.4896 138.141 10.8438 138.797C11.2083 139.443 11.6823 139.948 12.2656 140.312C12.849 140.677 13.5573 140.859 14.3906 140.859C15.4427 140.859 16.276 140.688 16.8906 140.344C17.5052 140 17.9583 139.453 18.25 138.703C18.5521 137.953 18.75 136.974 18.8438 135.766Z" fill="#434343"/>
<rect x="28" y="113" width="69" height="8" fill="#434343"/>
<rect x="28" y="125" width="69" height="4" fill="#39A71B"/>
<rect x="28" y="131" width="69" height="4" fill="#39A71B"/>
<rect x="28" y="139" width="69" height="4" fill="#6751A5"/>
<rect x="28" y="147" width="69" height="4" fill="#FEC53E"/>
<rect width="100" height="46" transform="translate(1 163)" fill="white"/>
<path d="M14.3438 186.359H9.71875L9.6875 183.938H13.9844C14.6302 183.938 15.2031 183.792 15.7031 183.5C16.2031 183.208 16.5938 182.792 16.875 182.25C17.1667 181.698 17.3125 181.042 17.3125 180.281C17.3125 179.448 17.1875 178.771 16.9375 178.25C16.6979 177.719 16.3281 177.333 15.8281 177.094C15.3385 176.844 14.7135 176.719 13.9531 176.719H10.3281V197H7.45312V174.25H13.9531C14.9323 174.25 15.8073 174.37 16.5781 174.609C17.349 174.839 18 175.203 18.5312 175.703C19.0729 176.193 19.4844 176.818 19.7656 177.578C20.0469 178.339 20.1875 179.25 20.1875 180.312C20.1875 181.25 19.974 182.099 19.5469 182.859C19.1302 183.609 18.5469 184.224 17.7969 184.703C17.0469 185.182 16.1823 185.49 15.2031 185.625L14.3438 186.359ZM14.2344 197H8.53125L10.2031 194.547H14.2344C14.9844 194.547 15.6198 194.38 16.1406 194.047C16.6615 193.714 17.0573 193.245 17.3281 192.641C17.6094 192.026 17.75 191.302 17.75 190.469C17.75 189.625 17.6354 188.896 17.4062 188.281C17.1771 187.667 16.8125 187.193 16.3125 186.859C15.8125 186.526 15.1562 186.359 14.3438 186.359H10.6406L10.6719 183.938H15.6719L16.3125 184.812C17.25 184.906 18.0365 185.219 18.6719 185.75C19.3177 186.271 19.8021 186.938 20.125 187.75C20.4583 188.562 20.625 189.458 20.625 190.438C20.625 191.854 20.3594 193.052 19.8281 194.031C19.3073 195 18.5677 195.74 17.6094 196.25C16.651 196.75 15.526 197 14.2344 197Z" fill="#434343"/>
<rect x="27" y="167" width="70" height="8" fill="#434343"/>
<rect x="27" y="179" width="70" height="4" fill="#39A71B"/>
<rect x="27" y="185" width="70" height="4" fill="#39A71B"/>
<rect x="27" y="193" width="70" height="4" fill="#6751A5"/>
<rect x="27" y="201" width="70" height="4" fill="#FEC53E"/>
</g>
<defs>
<filter id="filter0_d_8_9422" x="0" y="0" width="102" height="210" filterUnits="userSpaceOnUse" color-interpolation-filters="sRGB">
<feFlood flood-opacity="0" result="BackgroundImageFix"/>
<feColorMatrix in="SourceAlpha" type="matrix" values="0 0 0 0 0 0 0 0 0 0 0 0 0 0 0 0 0 0 127 0" result="hardAlpha"/>
<feOffset/>
<feGaussianBlur stdDeviation="0.5"/>
<feComposite in2="hardAlpha" operator="out"/>
<feColorMatrix type="matrix" values="0 0 0 0 0.988235 0 0 0 0 0.133333 0 0 0 0 0.576471 0 0 0 1 0"/>
<feBlend mode="normal" in2="BackgroundImageFix" result="effect1_dropShadow_8_9422"/>
<feBlend mode="normal" in="SourceGraphic" in2="effect1_dropShadow_8_9422" result="shape"/>
</filter>
</defs>
</svg>
