<svg width="102" height="222" viewBox="0 0 102 222" fill="none" xmlns="http://www.w3.org/2000/svg">
<g filter="url(#filter0_d_32_9654)">
<rect width="100" height="219" transform="translate(1 1)" fill="#F7F7F7"/>
<rect width="100" height="16" transform="translate(1 1)" fill="#434343"/>
<path d="M7.41016 9.89062H6.21094V9.09766H7.41016C7.60547 9.09766 7.76302 9.05599 7.88281 8.97266C8.00521 8.88932 8.09375 8.77474 8.14844 8.62891C8.20573 8.48307 8.23438 8.31771 8.23438 8.13281C8.23438 7.95573 8.20573 7.78906 8.14844 7.63281C8.09375 7.47656 8.00651 7.35026 7.88672 7.25391C7.76693 7.15755 7.60807 7.10938 7.41016 7.10938H6.47656V12H5.53125V6.3125H7.41016C7.78516 6.3125 8.10547 6.39062 8.37109 6.54688C8.63672 6.70312 8.83984 6.91797 8.98047 7.19141C9.12109 7.46224 9.19141 7.77344 9.19141 8.125C9.19141 8.49219 9.12109 8.80729 8.98047 9.07031C8.83984 9.33333 8.63672 9.53646 8.37109 9.67969C8.10547 9.82031 7.78516 9.89062 7.41016 9.89062ZM11.6311 11.1406V9.03516C11.6311 8.88932 11.6103 8.77214 11.5686 8.68359C11.5295 8.59505 11.4709 8.53125 11.3928 8.49219C11.3173 8.45052 11.2222 8.42969 11.1077 8.42969C10.9879 8.42969 10.8863 8.45443 10.803 8.50391C10.7222 8.55339 10.661 8.62109 10.6194 8.70703C10.5777 8.79036 10.5569 8.88672 10.5569 8.99609H9.64672C9.64672 8.82682 9.68057 8.66406 9.74828 8.50781C9.81859 8.35156 9.91885 8.21224 10.0491 8.08984C10.1793 7.96745 10.3368 7.87109 10.5217 7.80078C10.7066 7.73047 10.9123 7.69531 11.1389 7.69531C11.4097 7.69531 11.6506 7.74089 11.8616 7.83203C12.0725 7.92057 12.2379 8.0651 12.3577 8.26562C12.4801 8.46354 12.5413 8.72396 12.5413 9.04688V11.0195C12.5413 11.2148 12.553 11.3893 12.5764 11.543C12.6024 11.694 12.6376 11.8255 12.6819 11.9375V12H11.7561C11.7144 11.8984 11.6832 11.7682 11.6623 11.6094C11.6415 11.4505 11.6311 11.2943 11.6311 11.1406ZM11.7522 9.42578L11.7561 10.0156H11.3186C11.1884 10.0156 11.0712 10.0339 10.967 10.0703C10.8629 10.1042 10.7743 10.1536 10.7014 10.2188C10.6311 10.2812 10.5764 10.3581 10.5373 10.4492C10.5009 10.5404 10.4827 10.6406 10.4827 10.75C10.4827 10.8828 10.5009 10.9909 10.5373 11.0742C10.5764 11.1576 10.6324 11.2201 10.7053 11.2617C10.7808 11.3008 10.872 11.3203 10.9788 11.3203C11.1246 11.3203 11.2509 11.2891 11.3577 11.2266C11.467 11.1615 11.5504 11.0833 11.6077 10.9922C11.6676 10.901 11.691 10.8177 11.678 10.7422L11.885 11.1211C11.8642 11.2201 11.8251 11.3242 11.7678 11.4336C11.7131 11.543 11.6415 11.6471 11.553 11.7461C11.4644 11.8451 11.3577 11.9258 11.2327 11.9883C11.1077 12.0482 10.9631 12.0781 10.7991 12.0781C10.5621 12.0781 10.3511 12.0286 10.1663 11.9297C9.98135 11.8307 9.83552 11.6888 9.72875 11.5039C9.62458 11.3164 9.5725 11.0924 9.5725 10.832C9.5725 10.6211 9.60766 10.4297 9.67797 10.2578C9.74828 10.0859 9.85245 9.9388 9.99047 9.81641C10.1285 9.69141 10.3017 9.59505 10.51 9.52734C10.7209 9.45964 10.967 9.42578 11.2483 9.42578H11.7522ZM15.4887 7.77344H16.313V12.0156C16.313 12.3958 16.2427 12.707 16.102 12.9492C15.964 13.194 15.7713 13.375 15.5239 13.4922C15.2765 13.6094 14.9901 13.668 14.6645 13.668C14.5447 13.668 14.4028 13.6484 14.2387 13.6094C14.0747 13.5703 13.9145 13.513 13.7583 13.4375C13.602 13.362 13.4718 13.2682 13.3677 13.1562L13.6997 12.5234C13.8221 12.6484 13.9666 12.7448 14.1333 12.8125C14.2999 12.8828 14.4601 12.918 14.6137 12.918C14.7804 12.918 14.921 12.8893 15.0356 12.832C15.1528 12.7773 15.2427 12.6849 15.3052 12.5547C15.3677 12.4271 15.3989 12.2539 15.3989 12.0352V8.73047L15.4887 7.77344ZM13.0981 10.0586V9.72656C13.0981 9.38021 13.1307 9.08073 13.1958 8.82812C13.2609 8.57292 13.3546 8.36068 13.477 8.19141C13.5994 8.02214 13.7492 7.89714 13.9262 7.81641C14.1033 7.73568 14.3012 7.69531 14.52 7.69531C14.7466 7.69531 14.938 7.74349 15.0942 7.83984C15.2531 7.93359 15.382 8.06771 15.4809 8.24219C15.5825 8.41667 15.6619 8.625 15.7192 8.86719C15.7765 9.10677 15.8182 9.375 15.8442 9.67188V10.1328C15.8182 10.4193 15.7739 10.6823 15.7114 10.9219C15.6489 11.1589 15.5643 11.3633 15.4575 11.5352C15.3533 11.707 15.2231 11.8411 15.0669 11.9375C14.9132 12.0312 14.7283 12.0781 14.5122 12.0781C14.296 12.0781 14.1007 12.0352 13.9262 11.9492C13.7518 11.8633 13.602 11.7357 13.477 11.5664C13.3546 11.3971 13.2609 11.1875 13.1958 10.9375C13.1307 10.6849 13.0981 10.3919 13.0981 10.0586ZM14.0083 9.72656V10.0586C14.0083 10.2747 14.0226 10.4609 14.0512 10.6172C14.0825 10.7734 14.1281 10.9023 14.188 11.0039C14.2479 11.1029 14.326 11.1771 14.4223 11.2266C14.5187 11.2734 14.6333 11.2969 14.7661 11.2969C14.9406 11.2969 15.0812 11.2552 15.188 11.1719C15.2973 11.0885 15.3807 10.9766 15.438 10.8359C15.4979 10.6927 15.5395 10.5339 15.563 10.3594V9.44922C15.5499 9.3112 15.5239 9.18359 15.4848 9.06641C15.4484 8.94661 15.3976 8.84245 15.3325 8.75391C15.27 8.66536 15.1919 8.59635 15.0981 8.54688C15.007 8.49479 14.8989 8.46875 14.7739 8.46875C14.6437 8.46875 14.5291 8.49479 14.4302 8.54688C14.3338 8.59635 14.2544 8.67318 14.1919 8.77734C14.1294 8.87891 14.0825 9.00911 14.0512 9.16797C14.0226 9.32422 14.0083 9.51042 14.0083 9.72656ZM18.6042 12.0781C18.3308 12.0781 18.0873 12.0378 17.8737 11.957C17.6602 11.8737 17.4792 11.7513 17.3308 11.5898C17.1823 11.4258 17.0691 11.2253 16.9909 10.9883C16.9128 10.7487 16.8737 10.4714 16.8737 10.1562V9.75C16.8737 9.39323 16.9141 9.08594 16.9948 8.82812C17.0782 8.56771 17.1928 8.35417 17.3386 8.1875C17.4844 8.02083 17.6563 7.89714 17.8542 7.81641C18.0547 7.73568 18.2722 7.69531 18.5066 7.69531C18.7722 7.69531 19.0027 7.73828 19.198 7.82422C19.3933 7.91016 19.5534 8.03906 19.6784 8.21094C19.806 8.38281 19.8998 8.59505 19.9597 8.84766C20.0222 9.10026 20.0534 9.39062 20.0534 9.71875V10.1758H17.3112V9.48828H19.155V9.39062C19.1498 9.19792 19.1264 9.03255 19.0847 8.89453C19.043 8.75391 18.9753 8.64714 18.8816 8.57422C18.7904 8.4987 18.6641 8.46094 18.5027 8.46094C18.3855 8.46094 18.2813 8.48307 18.1902 8.52734C18.099 8.57161 18.0235 8.64323 17.9636 8.74219C17.9063 8.84115 17.862 8.97396 17.8308 9.14062C17.7995 9.30469 17.7839 9.50781 17.7839 9.75V10.1562C17.7839 10.3672 17.8021 10.5456 17.8386 10.6914C17.8777 10.8372 17.9349 10.957 18.0105 11.0508C18.086 11.1419 18.1771 11.2096 18.2839 11.2539C18.3933 11.2956 18.5196 11.3164 18.6628 11.3164C18.8737 11.3164 19.0547 11.2773 19.2058 11.1992C19.3594 11.1185 19.4922 11.0143 19.6042 10.8867L20.0066 11.4453C19.931 11.5469 19.8295 11.6471 19.7019 11.7461C19.5743 11.8424 19.4193 11.9219 19.237 11.9844C19.0573 12.0469 18.8464 12.0781 18.6042 12.0781ZM24.0852 6.3125V12H23.1398V6.3125H24.0852ZM25.5344 6.3125V7.10938H21.7062V6.3125H25.5344ZM26.935 7.77344V12H26.0248V7.77344H26.935ZM25.978 6.66797C25.978 6.52214 26.0222 6.40104 26.1108 6.30469C26.1993 6.20573 26.323 6.15625 26.4819 6.15625C26.6407 6.15625 26.7644 6.20573 26.853 6.30469C26.9415 6.40104 26.9858 6.52214 26.9858 6.66797C26.9858 6.80859 26.9415 6.92708 26.853 7.02344C26.7644 7.11979 26.6407 7.16797 26.4819 7.16797C26.323 7.16797 26.1993 7.11979 26.1108 7.02344C26.0222 6.92708 25.978 6.80859 25.978 6.66797ZM29.3747 7.77344V8.47656H27.3005V7.77344H29.3747ZM27.8669 6.73828H28.7731V10.8203C28.7731 10.9505 28.7874 11.0495 28.8161 11.1172C28.8447 11.1849 28.8851 11.2305 28.9372 11.2539C28.9893 11.2773 29.0505 11.2891 29.1208 11.2891C29.1729 11.2891 29.2236 11.2852 29.2731 11.2773C29.3252 11.2669 29.363 11.2578 29.3864 11.25V11.9844C29.3187 12.0104 29.2406 12.0326 29.152 12.0508C29.0635 12.069 28.9567 12.0781 28.8317 12.0781C28.6468 12.0781 28.4815 12.0404 28.3356 11.9648C28.1898 11.8867 28.0752 11.7604 27.9919 11.5859C27.9085 11.4089 27.8669 11.1745 27.8669 10.8828V6.73828ZM30.8066 6V12H29.8964V6H30.8066ZM33.1564 12.0781C32.883 12.0781 32.6395 12.0378 32.4259 11.957C32.2124 11.8737 32.0314 11.7513 31.883 11.5898C31.7345 11.4258 31.6213 11.2253 31.5431 10.9883C31.465 10.7487 31.4259 10.4714 31.4259 10.1562V9.75C31.4259 9.39323 31.4663 9.08594 31.547 8.82812C31.6304 8.56771 31.7449 8.35417 31.8908 8.1875C32.0366 8.02083 32.2085 7.89714 32.4064 7.81641C32.6069 7.73568 32.8244 7.69531 33.0588 7.69531C33.3244 7.69531 33.5548 7.73828 33.7502 7.82422C33.9455 7.91016 34.1056 8.03906 34.2306 8.21094C34.3582 8.38281 34.452 8.59505 34.5119 8.84766C34.5744 9.10026 34.6056 9.39062 34.6056 9.71875V10.1758H31.8634V9.48828H33.7072V9.39062C33.702 9.19792 33.6785 9.03255 33.6369 8.89453C33.5952 8.75391 33.5275 8.64714 33.4338 8.57422C33.3426 8.4987 33.2163 8.46094 33.0548 8.46094C32.9377 8.46094 32.8335 8.48307 32.7423 8.52734C32.6512 8.57161 32.5757 8.64323 32.5158 8.74219C32.4585 8.84115 32.4142 8.97396 32.383 9.14062C32.3517 9.30469 32.3361 9.50781 32.3361 9.75V10.1562C32.3361 10.3672 32.3543 10.5456 32.3908 10.6914C32.4298 10.8372 32.4871 10.957 32.5627 11.0508C32.6382 11.1419 32.7293 11.2096 32.8361 11.2539C32.9455 11.2956 33.0718 11.3164 33.215 11.3164C33.4259 11.3164 33.6069 11.2773 33.758 11.1992C33.9116 11.1185 34.0444 11.0143 34.1564 10.8867L34.5588 11.4453C34.4832 11.5469 34.3817 11.6471 34.2541 11.7461C34.1265 11.8424 33.9715 11.9219 33.7892 11.9844C33.6095 12.0469 33.3986 12.0781 33.1564 12.0781Z" fill="white"/>
<rect x="5.5" y="21.5" width="91" height="45" fill="white"/>
<path d="M19.0625 32.125V55H16.2969V35.7344L11.5156 37.8594V35.25L18.6406 32.125H19.0625Z" fill="#434343"/>
<rect x="29" y="25" width="64" height="8" fill="#434343"/>
<rect x="29" y="37" width="64" height="4" fill="#39A71B"/>
<rect x="29" y="43" width="64" height="4" fill="#39A71B"/>
<rect x="29" y="51" width="64" height="4" fill="#6751A5"/>
<rect x="29" y="59" width="64" height="4" fill="#FEC53E"/>
<rect x="5.5" y="21.5" width="91" height="45" stroke="#CCCCCC"/>
<rect x="5.5" y="71.5" width="91" height="45" fill="white"/>
<path d="M23.5469 102.625V105H10.8281V102.922L17.0938 94.625C17.8646 93.6042 18.4531 92.7396 18.8594 92.0312C19.2656 91.3125 19.5469 90.6719 19.7031 90.1094C19.8594 89.5365 19.9375 88.9531 19.9375 88.3594C19.9375 87.6094 19.8177 86.9323 19.5781 86.3281C19.3385 85.7135 18.9896 85.224 18.5312 84.8594C18.0729 84.4948 17.5208 84.3125 16.875 84.3125C16.0312 84.3125 15.3385 84.5104 14.7969 84.9062C14.2656 85.2917 13.875 85.8333 13.625 86.5312C13.375 87.2292 13.25 88.0312 13.25 88.9375H10.4844C10.4844 87.6562 10.7188 86.4844 11.1875 85.4219C11.6667 84.3594 12.3802 83.5156 13.3281 82.8906C14.276 82.2552 15.4583 81.9375 16.875 81.9375C18.0938 81.9375 19.1354 82.1927 20 82.7031C20.875 83.2031 21.5417 83.9115 22 84.8281C22.4688 85.7344 22.7031 86.7969 22.7031 88.0156C22.7031 88.6823 22.6094 89.3594 22.4219 90.0469C22.2448 90.724 21.9948 91.401 21.6719 92.0781C21.3594 92.7552 20.9896 93.4219 20.5625 94.0781C20.1354 94.7344 19.6771 95.3802 19.1875 96.0156L14.1406 102.625H23.5469Z" fill="#434343"/>
<rect x="29" y="75" width="64" height="8" fill="#434343"/>
<rect x="29" y="87" width="64" height="4" fill="#39A71B"/>
<rect x="29" y="93" width="64" height="4" fill="#39A71B"/>
<rect x="29" y="101" width="64" height="4" fill="#6751A5"/>
<rect x="29" y="109" width="64" height="4" fill="#FEC53E"/>
<rect x="5.5" y="71.5" width="91" height="45" stroke="#CCCCCC"/>
<rect x="5.5" y="121.5" width="91" height="45" fill="white"/>
<path d="M14.375 142.203H16.1562C16.9479 142.203 17.6042 142.036 18.125 141.703C18.6458 141.359 19.0312 140.896 19.2812 140.312C19.5417 139.719 19.6719 139.052 19.6719 138.312C19.6719 137.438 19.5573 136.703 19.3281 136.109C19.099 135.516 18.7552 135.068 18.2969 134.766C17.849 134.464 17.2812 134.312 16.5938 134.312C15.9479 134.312 15.3854 134.474 14.9062 134.797C14.4271 135.109 14.0573 135.557 13.7969 136.141C13.5365 136.724 13.4062 137.411 13.4062 138.203H10.6562C10.6562 137.047 10.8958 135.995 11.375 135.047C11.8646 134.099 12.5521 133.344 13.4375 132.781C14.3333 132.219 15.3854 131.938 16.5938 131.938C17.75 131.938 18.7656 132.182 19.6406 132.672C20.5156 133.151 21.1979 133.87 21.6875 134.828C22.1875 135.776 22.4375 136.958 22.4375 138.375C22.4375 138.948 22.3281 139.562 22.1094 140.219C21.901 140.865 21.5625 141.469 21.0938 142.031C20.6354 142.594 20.0312 143.057 19.2812 143.422C18.5417 143.776 17.6354 143.953 16.5625 143.953H14.375V142.203ZM14.375 144.578V142.844H16.5625C17.8333 142.844 18.8698 143.016 19.6719 143.359C20.474 143.703 21.0938 144.161 21.5312 144.734C21.9688 145.307 22.2708 145.938 22.4375 146.625C22.6146 147.302 22.7031 147.979 22.7031 148.656C22.7031 149.719 22.5469 150.661 22.2344 151.484C21.9323 152.307 21.5 153.005 20.9375 153.578C20.3854 154.151 19.7396 154.583 19 154.875C18.2604 155.167 17.4531 155.312 16.5781 155.312C15.724 155.312 14.9323 155.172 14.2031 154.891C13.474 154.609 12.8333 154.203 12.2812 153.672C11.7292 153.13 11.2969 152.469 10.9844 151.688C10.6823 150.896 10.5312 149.995 10.5312 148.984H13.2969C13.2969 149.776 13.4271 150.469 13.6875 151.062C13.9479 151.656 14.3229 152.12 14.8125 152.453C15.3021 152.776 15.8906 152.938 16.5781 152.938C17.2656 152.938 17.8594 152.786 18.3594 152.484C18.8594 152.172 19.2448 151.703 19.5156 151.078C19.7969 150.453 19.9375 149.667 19.9375 148.719C19.9375 147.771 19.7812 146.995 19.4688 146.391C19.1667 145.776 18.7344 145.323 18.1719 145.031C17.6094 144.729 16.9375 144.578 16.1562 144.578H14.375Z" fill="#434343"/>
<rect x="29" y="125" width="64" height="8" fill="#434343"/>
<rect x="29" y="137" width="64" height="4" fill="#39A71B"/>
<rect x="29" y="143" width="64" height="4" fill="#39A71B"/>
<rect x="29" y="151" width="64" height="4" fill="#6751A5"/>
<rect x="29" y="159" width="64" height="4" fill="#FEC53E"/>
<rect x="5.5" y="121.5" width="91" height="45" stroke="#CCCCCC"/>
<rect x="5.5" y="171.5" width="91" height="45" fill="white"/>
<path d="M23.8438 197.344V199.719H9.9375V198.016L18.3906 182.25H20.6094L18.3906 186.812L13.0156 197.344H23.8438ZM21.3125 182.25V205H18.5469V182.25H21.3125Z" fill="#434343"/>
<rect x="29" y="175" width="64" height="8" fill="#434343"/>
<rect x="29" y="187" width="64" height="4" fill="#39A71B"/>
<rect x="29" y="193" width="64" height="4" fill="#39A71B"/>
<rect x="29" y="201" width="64" height="4" fill="#6751A5"/>
<rect x="29" y="209" width="64" height="4" fill="#FEC53E"/>
<rect x="5.5" y="171.5" width="91" height="45" stroke="#CCCCCC"/>
</g>
<defs>
<filter id="filter0_d_32_9654" x="0" y="0" width="102" height="222" filterUnits="userSpaceOnUse" color-interpolation-filters="sRGB">
<feFlood flood-opacity="0" result="BackgroundImageFix"/>
<feColorMatrix in="SourceAlpha" type="matrix" values="0 0 0 0 0 0 0 0 0 0 0 0 0 0 0 0 0 0 127 0" result="hardAlpha"/>
<feOffset/>
<feGaussianBlur stdDeviation="0.5"/>
<feComposite in2="hardAlpha" operator="out"/>
<feColorMatrix type="matrix" values="0 0 0 0 0.988235 0 0 0 0 0.133333 0 0 0 0 0.576471 0 0 0 1 0"/>
<feBlend mode="normal" in2="BackgroundImageFix" result="effect1_dropShadow_32_9654"/>
<feBlend mode="normal" in="SourceGraphic" in2="effect1_dropShadow_32_9654" result="shape"/>
</filter>
</defs>
</svg>
