<svg width="102" height="221" viewBox="0 0 102 221" fill="none" xmlns="http://www.w3.org/2000/svg">
<g filter="url(#filter0_d_27_9449)">
<rect width="100" height="219" transform="translate(1 1)" fill="#F7F7F7"/>
<rect width="100" height="16" transform="translate(1 1)" fill="#434343"/>
<path d="M7.41016 9.89062H6.21094V9.09766H7.41016C7.60547 9.09766 7.76302 9.05599 7.88281 8.97266C8.00521 8.88932 8.09375 8.77474 8.14844 8.62891C8.20573 8.48307 8.23438 8.31771 8.23438 8.13281C8.23438 7.95573 8.20573 7.78906 8.14844 7.63281C8.09375 7.47656 8.00651 7.35026 7.88672 7.25391C7.76693 7.15755 7.60807 7.10938 7.41016 7.10938H6.47656V12H5.53125V6.3125H7.41016C7.78516 6.3125 8.10547 6.39062 8.37109 6.54688C8.63672 6.70312 8.83984 6.91797 8.98047 7.19141C9.12109 7.46224 9.19141 7.77344 9.19141 8.125C9.19141 8.49219 9.12109 8.80729 8.98047 9.07031C8.83984 9.33333 8.63672 9.53646 8.37109 9.67969C8.10547 9.82031 7.78516 9.89062 7.41016 9.89062ZM11.6311 11.1406V9.03516C11.6311 8.88932 11.6103 8.77214 11.5686 8.68359C11.5295 8.59505 11.4709 8.53125 11.3928 8.49219C11.3173 8.45052 11.2222 8.42969 11.1077 8.42969C10.9879 8.42969 10.8863 8.45443 10.803 8.50391C10.7222 8.55339 10.661 8.62109 10.6194 8.70703C10.5777 8.79036 10.5569 8.88672 10.5569 8.99609H9.64672C9.64672 8.82682 9.68057 8.66406 9.74828 8.50781C9.81859 8.35156 9.91885 8.21224 10.0491 8.08984C10.1793 7.96745 10.3368 7.87109 10.5217 7.80078C10.7066 7.73047 10.9123 7.69531 11.1389 7.69531C11.4097 7.69531 11.6506 7.74089 11.8616 7.83203C12.0725 7.92057 12.2379 8.0651 12.3577 8.26562C12.4801 8.46354 12.5413 8.72396 12.5413 9.04688V11.0195C12.5413 11.2148 12.553 11.3893 12.5764 11.543C12.6024 11.694 12.6376 11.8255 12.6819 11.9375V12H11.7561C11.7144 11.8984 11.6832 11.7682 11.6623 11.6094C11.6415 11.4505 11.6311 11.2943 11.6311 11.1406ZM11.7522 9.42578L11.7561 10.0156H11.3186C11.1884 10.0156 11.0712 10.0339 10.967 10.0703C10.8629 10.1042 10.7743 10.1536 10.7014 10.2188C10.6311 10.2812 10.5764 10.3581 10.5373 10.4492C10.5009 10.5404 10.4827 10.6406 10.4827 10.75C10.4827 10.8828 10.5009 10.9909 10.5373 11.0742C10.5764 11.1576 10.6324 11.2201 10.7053 11.2617C10.7808 11.3008 10.872 11.3203 10.9788 11.3203C11.1246 11.3203 11.2509 11.2891 11.3577 11.2266C11.467 11.1615 11.5504 11.0833 11.6077 10.9922C11.6676 10.901 11.691 10.8177 11.678 10.7422L11.885 11.1211C11.8642 11.2201 11.8251 11.3242 11.7678 11.4336C11.7131 11.543 11.6415 11.6471 11.553 11.7461C11.4644 11.8451 11.3577 11.9258 11.2327 11.9883C11.1077 12.0482 10.9631 12.0781 10.7991 12.0781C10.5621 12.0781 10.3511 12.0286 10.1663 11.9297C9.98135 11.8307 9.83552 11.6888 9.72875 11.5039C9.62458 11.3164 9.5725 11.0924 9.5725 10.832C9.5725 10.6211 9.60766 10.4297 9.67797 10.2578C9.74828 10.0859 9.85245 9.9388 9.99047 9.81641C10.1285 9.69141 10.3017 9.59505 10.51 9.52734C10.7209 9.45964 10.967 9.42578 11.2483 9.42578H11.7522ZM15.4887 7.77344H16.313V12.0156C16.313 12.3958 16.2427 12.707 16.102 12.9492C15.964 13.194 15.7713 13.375 15.5239 13.4922C15.2765 13.6094 14.9901 13.668 14.6645 13.668C14.5447 13.668 14.4028 13.6484 14.2387 13.6094C14.0747 13.5703 13.9145 13.513 13.7583 13.4375C13.602 13.362 13.4718 13.2682 13.3677 13.1562L13.6997 12.5234C13.8221 12.6484 13.9666 12.7448 14.1333 12.8125C14.2999 12.8828 14.4601 12.918 14.6137 12.918C14.7804 12.918 14.921 12.8893 15.0356 12.832C15.1528 12.7773 15.2427 12.6849 15.3052 12.5547C15.3677 12.4271 15.3989 12.2539 15.3989 12.0352V8.73047L15.4887 7.77344ZM13.0981 10.0586V9.72656C13.0981 9.38021 13.1307 9.08073 13.1958 8.82812C13.2609 8.57292 13.3546 8.36068 13.477 8.19141C13.5994 8.02214 13.7492 7.89714 13.9262 7.81641C14.1033 7.73568 14.3012 7.69531 14.52 7.69531C14.7466 7.69531 14.938 7.74349 15.0942 7.83984C15.2531 7.93359 15.382 8.06771 15.4809 8.24219C15.5825 8.41667 15.6619 8.625 15.7192 8.86719C15.7765 9.10677 15.8182 9.375 15.8442 9.67188V10.1328C15.8182 10.4193 15.7739 10.6823 15.7114 10.9219C15.6489 11.1589 15.5643 11.3633 15.4575 11.5352C15.3533 11.707 15.2231 11.8411 15.0669 11.9375C14.9132 12.0312 14.7283 12.0781 14.5122 12.0781C14.296 12.0781 14.1007 12.0352 13.9262 11.9492C13.7518 11.8633 13.602 11.7357 13.477 11.5664C13.3546 11.3971 13.2609 11.1875 13.1958 10.9375C13.1307 10.6849 13.0981 10.3919 13.0981 10.0586ZM14.0083 9.72656V10.0586C14.0083 10.2747 14.0226 10.4609 14.0512 10.6172C14.0825 10.7734 14.1281 10.9023 14.188 11.0039C14.2479 11.1029 14.326 11.1771 14.4223 11.2266C14.5187 11.2734 14.6333 11.2969 14.7661 11.2969C14.9406 11.2969 15.0812 11.2552 15.188 11.1719C15.2973 11.0885 15.3807 10.9766 15.438 10.8359C15.4979 10.6927 15.5395 10.5339 15.563 10.3594V9.44922C15.5499 9.3112 15.5239 9.18359 15.4848 9.06641C15.4484 8.94661 15.3976 8.84245 15.3325 8.75391C15.27 8.66536 15.1919 8.59635 15.0981 8.54688C15.007 8.49479 14.8989 8.46875 14.7739 8.46875C14.6437 8.46875 14.5291 8.49479 14.4302 8.54688C14.3338 8.59635 14.2544 8.67318 14.1919 8.77734C14.1294 8.87891 14.0825 9.00911 14.0512 9.16797C14.0226 9.32422 14.0083 9.51042 14.0083 9.72656ZM18.6042 12.0781C18.3308 12.0781 18.0873 12.0378 17.8737 11.957C17.6602 11.8737 17.4792 11.7513 17.3308 11.5898C17.1823 11.4258 17.0691 11.2253 16.9909 10.9883C16.9128 10.7487 16.8737 10.4714 16.8737 10.1562V9.75C16.8737 9.39323 16.9141 9.08594 16.9948 8.82812C17.0782 8.56771 17.1928 8.35417 17.3386 8.1875C17.4844 8.02083 17.6563 7.89714 17.8542 7.81641C18.0547 7.73568 18.2722 7.69531 18.5066 7.69531C18.7722 7.69531 19.0027 7.73828 19.198 7.82422C19.3933 7.91016 19.5534 8.03906 19.6784 8.21094C19.806 8.38281 19.8998 8.59505 19.9597 8.84766C20.0222 9.10026 20.0534 9.39062 20.0534 9.71875V10.1758H17.3112V9.48828H19.155V9.39062C19.1498 9.19792 19.1264 9.03255 19.0847 8.89453C19.043 8.75391 18.9753 8.64714 18.8816 8.57422C18.7904 8.4987 18.6641 8.46094 18.5027 8.46094C18.3855 8.46094 18.2813 8.48307 18.1902 8.52734C18.099 8.57161 18.0235 8.64323 17.9636 8.74219C17.9063 8.84115 17.862 8.97396 17.8308 9.14062C17.7995 9.30469 17.7839 9.50781 17.7839 9.75V10.1562C17.7839 10.3672 17.8021 10.5456 17.8386 10.6914C17.8777 10.8372 17.9349 10.957 18.0105 11.0508C18.086 11.1419 18.1771 11.2096 18.2839 11.2539C18.3933 11.2956 18.5196 11.3164 18.6628 11.3164C18.8737 11.3164 19.0547 11.2773 19.2058 11.1992C19.3594 11.1185 19.4922 11.0143 19.6042 10.8867L20.0066 11.4453C19.931 11.5469 19.8295 11.6471 19.7019 11.7461C19.5743 11.8424 19.4193 11.9219 19.237 11.9844C19.0573 12.0469 18.8464 12.0781 18.6042 12.0781ZM24.0852 6.3125V12H23.1398V6.3125H24.0852ZM25.5344 6.3125V7.10938H21.7062V6.3125H25.5344ZM26.935 7.77344V12H26.0248V7.77344H26.935ZM25.978 6.66797C25.978 6.52214 26.0222 6.40104 26.1108 6.30469C26.1993 6.20573 26.323 6.15625 26.4819 6.15625C26.6407 6.15625 26.7644 6.20573 26.853 6.30469C26.9415 6.40104 26.9858 6.52214 26.9858 6.66797C26.9858 6.80859 26.9415 6.92708 26.853 7.02344C26.7644 7.11979 26.6407 7.16797 26.4819 7.16797C26.323 7.16797 26.1993 7.11979 26.1108 7.02344C26.0222 6.92708 25.978 6.80859 25.978 6.66797ZM28.6325 6V12H27.7223V6H28.6325ZM30.9823 12.0781C30.7089 12.0781 30.4654 12.0378 30.2519 11.957C30.0383 11.8737 29.8573 11.7513 29.7089 11.5898C29.5605 11.4258 29.4472 11.2253 29.3691 10.9883C29.2909 10.7487 29.2519 10.4714 29.2519 10.1562V9.75C29.2519 9.39323 29.2922 9.08594 29.373 8.82812C29.4563 8.56771 29.5709 8.35417 29.7167 8.1875C29.8626 8.02083 30.0344 7.89714 30.2323 7.81641C30.4329 7.73568 30.6503 7.69531 30.8847 7.69531C31.1503 7.69531 31.3808 7.73828 31.5761 7.82422C31.7714 7.91016 31.9316 8.03906 32.0566 8.21094C32.1842 8.38281 32.2779 8.59505 32.3378 8.84766C32.4003 9.10026 32.4316 9.39062 32.4316 9.71875V10.1758H29.6894V9.48828H31.5331V9.39062C31.5279 9.19792 31.5045 9.03255 31.4628 8.89453C31.4211 8.75391 31.3534 8.64714 31.2597 8.57422C31.1685 8.4987 31.0422 8.46094 30.8808 8.46094C30.7636 8.46094 30.6594 8.48307 30.5683 8.52734C30.4771 8.57161 30.4016 8.64323 30.3417 8.74219C30.2844 8.84115 30.2402 8.97396 30.2089 9.14062C30.1777 9.30469 30.162 9.50781 30.162 9.75V10.1562C30.162 10.3672 30.1803 10.5456 30.2167 10.6914C30.2558 10.8372 30.3131 10.957 30.3886 11.0508C30.4641 11.1419 30.5553 11.2096 30.662 11.2539C30.7714 11.2956 30.8977 11.3164 31.0409 11.3164C31.2519 11.3164 31.4329 11.2773 31.5839 11.1992C31.7376 11.1185 31.8704 11.0143 31.9823 10.8867L32.3847 11.4453C32.3092 11.5469 32.2076 11.6471 32.08 11.7461C31.9524 11.8424 31.7974 11.9219 31.6152 11.9844C31.4355 12.0469 31.2245 12.0781 30.9823 12.0781Z" fill="white"/>
<path d="M23.9688 97.7812V112H21.6055V97.7812H23.9688ZM27.5918 97.7812V99.7734H18.0215V97.7812H27.5918ZM31.5176 97V112H29.252V97H31.5176ZM31.1172 106.336H30.3945C30.388 105.6 30.4661 104.923 30.6289 104.305C30.7917 103.686 31.026 103.146 31.332 102.684C31.638 102.221 32.0059 101.867 32.4355 101.619C32.8717 101.365 33.3535 101.238 33.8809 101.238C34.3171 101.238 34.7109 101.313 35.0625 101.463C35.4206 101.606 35.7266 101.834 35.9805 102.146C36.2409 102.459 36.4395 102.869 36.5762 103.377C36.7129 103.878 36.7812 104.49 36.7812 105.213V112H34.5059V105.193C34.5059 104.692 34.4505 104.295 34.3398 104.002C34.2357 103.709 34.0794 103.497 33.8711 103.367C33.6628 103.237 33.3991 103.172 33.0801 103.172C32.7676 103.172 32.4876 103.257 32.2402 103.426C31.9928 103.589 31.7845 103.816 31.6152 104.109C31.4525 104.396 31.3288 104.731 31.2441 105.115C31.1595 105.493 31.1172 105.9 31.1172 106.336ZM41.459 101.434V112H39.1836V101.434H41.459ZM39.0664 98.6699C39.0664 98.3053 39.1771 98.0026 39.3984 97.7617C39.6198 97.5143 39.929 97.3906 40.3262 97.3906C40.7233 97.3906 41.0326 97.5143 41.2539 97.7617C41.4753 98.0026 41.5859 98.3053 41.5859 98.6699C41.5859 99.0215 41.4753 99.3177 41.2539 99.5586C41.0326 99.7995 40.7233 99.9199 40.3262 99.9199C39.929 99.9199 39.6198 99.7995 39.3984 99.5586C39.1771 99.3177 39.0664 99.0215 39.0664 98.6699ZM48.7832 109.217C48.7832 108.995 48.7181 108.8 48.5879 108.631C48.4642 108.455 48.2624 108.283 47.9824 108.113C47.7025 107.944 47.3281 107.762 46.8594 107.566C46.3711 107.365 45.9382 107.163 45.5605 106.961C45.1829 106.759 44.8639 106.538 44.6035 106.297C44.3431 106.049 44.1445 105.766 44.0078 105.447C43.8711 105.128 43.8027 104.757 43.8027 104.334C43.8027 103.898 43.8841 103.494 44.0469 103.123C44.2096 102.752 44.444 102.426 44.75 102.146C45.056 101.86 45.4238 101.639 45.8535 101.482C46.2832 101.32 46.7682 101.238 47.3086 101.238C48.0703 101.238 48.7214 101.378 49.2617 101.658C49.8086 101.932 50.2253 102.316 50.5117 102.811C50.8047 103.299 50.9512 103.862 50.9512 104.5H48.6758C48.6758 104.233 48.627 103.992 48.5293 103.777C48.4316 103.556 48.2819 103.38 48.0801 103.25C47.8783 103.113 47.6211 103.045 47.3086 103.045C47.0221 103.045 46.7812 103.1 46.5859 103.211C46.3971 103.315 46.2539 103.458 46.1562 103.641C46.0651 103.816 46.0195 104.015 46.0195 104.236C46.0195 104.399 46.0488 104.542 46.1074 104.666C46.166 104.79 46.2637 104.91 46.4004 105.027C46.5371 105.138 46.7194 105.252 46.9473 105.369C47.1816 105.486 47.4779 105.62 47.8359 105.77C48.5456 106.043 49.1348 106.326 49.6035 106.619C50.0723 106.912 50.4238 107.254 50.6582 107.645C50.8926 108.035 51.0098 108.52 51.0098 109.1C51.0098 109.568 50.9219 109.992 50.7461 110.369C50.5768 110.747 50.3294 111.072 50.0039 111.346C49.6849 111.619 49.2975 111.831 48.8418 111.98C48.3926 112.124 47.8913 112.195 47.3379 112.195C46.5111 112.195 45.8112 112.033 45.2383 111.707C44.6719 111.375 44.2422 110.949 43.9492 110.428C43.6562 109.907 43.5098 109.357 43.5098 108.777H45.707C45.7266 109.194 45.8145 109.52 45.9707 109.754C46.1335 109.988 46.3385 110.151 46.5859 110.242C46.8333 110.327 47.0905 110.369 47.3574 110.369C47.6764 110.369 47.9401 110.327 48.1484 110.242C48.3568 110.151 48.513 110.018 48.6172 109.842C48.7279 109.666 48.7832 109.458 48.7832 109.217ZM60.0137 101.434V112H57.7383V101.434H60.0137ZM57.6211 98.6699C57.6211 98.3053 57.7318 98.0026 57.9531 97.7617C58.1745 97.5143 58.4837 97.3906 58.8809 97.3906C59.278 97.3906 59.5872 97.5143 59.8086 97.7617C60.0299 98.0026 60.1406 98.3053 60.1406 98.6699C60.1406 99.0215 60.0299 99.3177 59.8086 99.5586C59.5872 99.7995 59.278 99.9199 58.8809 99.9199C58.4837 99.9199 58.1745 99.7995 57.9531 99.5586C57.7318 99.3177 57.6211 99.0215 57.6211 98.6699ZM67.3379 109.217C67.3379 108.995 67.2728 108.8 67.1426 108.631C67.0189 108.455 66.8171 108.283 66.5371 108.113C66.2572 107.944 65.8828 107.762 65.4141 107.566C64.9258 107.365 64.4928 107.163 64.1152 106.961C63.7376 106.759 63.4186 106.538 63.1582 106.297C62.8978 106.049 62.6992 105.766 62.5625 105.447C62.4258 105.128 62.3574 104.757 62.3574 104.334C62.3574 103.898 62.4388 103.494 62.6016 103.123C62.7643 102.752 62.9987 102.426 63.3047 102.146C63.6107 101.86 63.9785 101.639 64.4082 101.482C64.8379 101.32 65.3229 101.238 65.8633 101.238C66.625 101.238 67.276 101.378 67.8164 101.658C68.3633 101.932 68.7799 102.316 69.0664 102.811C69.3594 103.299 69.5059 103.862 69.5059 104.5H67.2305C67.2305 104.233 67.1816 103.992 67.084 103.777C66.9863 103.556 66.8366 103.38 66.6348 103.25C66.4329 103.113 66.1758 103.045 65.8633 103.045C65.5768 103.045 65.3359 103.1 65.1406 103.211C64.9518 103.315 64.8086 103.458 64.7109 103.641C64.6198 103.816 64.5742 104.015 64.5742 104.236C64.5742 104.399 64.6035 104.542 64.6621 104.666C64.7207 104.79 64.8184 104.91 64.9551 105.027C65.0918 105.138 65.2741 105.252 65.502 105.369C65.7363 105.486 66.0326 105.62 66.3906 105.77C67.1003 106.043 67.6895 106.326 68.1582 106.619C68.627 106.912 68.9785 107.254 69.2129 107.645C69.4473 108.035 69.5645 108.52 69.5645 109.1C69.5645 109.568 69.4766 109.992 69.3008 110.369C69.1315 110.747 68.8841 111.072 68.5586 111.346C68.2396 111.619 67.8522 111.831 67.3965 111.98C66.9473 112.124 66.446 112.195 65.8926 112.195C65.0658 112.195 64.3659 112.033 63.793 111.707C63.2266 111.375 62.7969 110.949 62.5039 110.428C62.2109 109.907 62.0645 109.357 62.0645 108.777H64.2617C64.2812 109.194 64.3691 109.52 64.5254 109.754C64.6882 109.988 64.8932 110.151 65.1406 110.242C65.388 110.327 65.6452 110.369 65.9121 110.369C66.2311 110.369 66.4948 110.327 66.7031 110.242C66.9115 110.151 67.0677 110.018 67.1719 109.842C67.2826 109.666 67.3379 109.458 67.3379 109.217ZM81.0586 109.852V104.588C81.0586 104.223 81.0065 103.93 80.9023 103.709C80.8047 103.488 80.6582 103.328 80.4629 103.23C80.2741 103.126 80.0365 103.074 79.75 103.074C79.4505 103.074 79.1966 103.136 78.9883 103.26C78.7865 103.383 78.6335 103.553 78.5293 103.768C78.4251 103.976 78.373 104.217 78.373 104.49H76.0977C76.0977 104.067 76.1823 103.66 76.3516 103.27C76.5273 102.879 76.778 102.531 77.1035 102.225C77.429 101.919 77.8229 101.678 78.2852 101.502C78.7474 101.326 79.2617 101.238 79.8281 101.238C80.5052 101.238 81.1074 101.352 81.6348 101.58C82.1621 101.801 82.5755 102.163 82.875 102.664C83.181 103.159 83.334 103.81 83.334 104.617V109.549C83.334 110.037 83.3633 110.473 83.4219 110.857C83.487 111.235 83.5749 111.564 83.6855 111.844V112H81.3711C81.2669 111.746 81.1888 111.421 81.1367 111.023C81.0846 110.626 81.0586 110.236 81.0586 109.852ZM81.3613 105.564L81.3711 107.039H80.2773C79.9518 107.039 79.6589 107.085 79.3984 107.176C79.138 107.26 78.9167 107.384 78.7344 107.547C78.5586 107.703 78.4219 107.895 78.3242 108.123C78.2331 108.351 78.1875 108.602 78.1875 108.875C78.1875 109.207 78.2331 109.477 78.3242 109.686C78.4219 109.894 78.5618 110.05 78.7441 110.154C78.9329 110.252 79.1608 110.301 79.4277 110.301C79.7923 110.301 80.1081 110.223 80.375 110.066C80.6484 109.904 80.8568 109.708 81 109.48C81.1497 109.253 81.2083 109.044 81.1758 108.855L81.6934 109.803C81.6413 110.05 81.5436 110.311 81.4004 110.584C81.2637 110.857 81.0846 111.118 80.8633 111.365C80.6419 111.613 80.375 111.814 80.0625 111.971C79.75 112.12 79.3887 112.195 78.9785 112.195C78.3861 112.195 77.8587 112.072 77.3965 111.824C76.9342 111.577 76.5697 111.222 76.3027 110.76C76.0423 110.291 75.9121 109.731 75.9121 109.08C75.9121 108.553 76 108.074 76.1758 107.645C76.3516 107.215 76.612 106.847 76.957 106.541C77.3021 106.229 77.735 105.988 78.2559 105.818C78.7832 105.649 79.3984 105.564 80.1016 105.564H81.3613ZM34.9844 126.465V139.062H32.7188V124.434H34.7988L34.9844 126.465ZM40.668 129.297V130.137C40.668 130.964 40.5931 131.693 40.4434 132.324C40.2936 132.956 40.0723 133.486 39.7793 133.916C39.4928 134.339 39.138 134.658 38.7148 134.873C38.2917 135.088 37.7969 135.195 37.2305 135.195C36.6966 135.195 36.2311 135.078 35.834 134.844C35.4434 134.609 35.1146 134.281 34.8477 133.857C34.5807 133.434 34.3659 132.933 34.2031 132.354C34.0469 131.768 33.9329 131.13 33.8613 130.439V129.15C33.9329 128.421 34.0436 127.757 34.1934 127.158C34.3496 126.553 34.5612 126.032 34.8281 125.596C35.1016 125.16 35.4336 124.824 35.8242 124.59C36.2148 124.355 36.6803 124.238 37.2207 124.238C37.7871 124.238 38.2852 124.339 38.7148 124.541C39.1445 124.743 39.5026 125.052 39.7891 125.469C40.082 125.885 40.3001 126.413 40.4434 127.051C40.5931 127.682 40.668 128.431 40.668 129.297ZM38.3926 130.137V129.297C38.3926 128.757 38.3568 128.291 38.2852 127.9C38.2201 127.503 38.1094 127.178 37.9531 126.924C37.8034 126.67 37.6113 126.481 37.377 126.357C37.1491 126.234 36.8659 126.172 36.5273 126.172C36.2279 126.172 35.9642 126.234 35.7363 126.357C35.5085 126.481 35.3164 126.654 35.1602 126.875C35.0039 127.09 34.8802 127.347 34.7891 127.646C34.6979 127.939 34.6393 128.258 34.6133 128.604V130.996C34.6719 131.413 34.7695 131.797 34.9062 132.148C35.043 132.493 35.2415 132.77 35.502 132.979C35.7689 133.187 36.1172 133.291 36.5469 133.291C36.8789 133.291 37.1621 133.226 37.3965 133.096C37.6309 132.965 37.8197 132.77 37.9629 132.51C38.1126 132.249 38.2201 131.924 38.2852 131.533C38.3568 131.136 38.3926 130.671 38.3926 130.137ZM47.4941 132.852V127.588C47.4941 127.223 47.4421 126.93 47.3379 126.709C47.2402 126.488 47.0938 126.328 46.8984 126.23C46.7096 126.126 46.472 126.074 46.1855 126.074C45.8861 126.074 45.6322 126.136 45.4238 126.26C45.222 126.383 45.069 126.553 44.9648 126.768C44.8607 126.976 44.8086 127.217 44.8086 127.49H42.5332C42.5332 127.067 42.6178 126.66 42.7871 126.27C42.9629 125.879 43.2135 125.531 43.5391 125.225C43.8646 124.919 44.2585 124.678 44.7207 124.502C45.1829 124.326 45.6973 124.238 46.2637 124.238C46.9408 124.238 47.543 124.352 48.0703 124.58C48.5977 124.801 49.0111 125.163 49.3105 125.664C49.6165 126.159 49.7695 126.81 49.7695 127.617V132.549C49.7695 133.037 49.7988 133.473 49.8574 133.857C49.9225 134.235 50.0104 134.564 50.1211 134.844V135H47.8066C47.7025 134.746 47.6243 134.421 47.5723 134.023C47.5202 133.626 47.4941 133.236 47.4941 132.852ZM47.7969 128.564L47.8066 130.039H46.7129C46.3874 130.039 46.0944 130.085 45.834 130.176C45.5736 130.26 45.3522 130.384 45.1699 130.547C44.9941 130.703 44.8574 130.895 44.7598 131.123C44.6686 131.351 44.623 131.602 44.623 131.875C44.623 132.207 44.6686 132.477 44.7598 132.686C44.8574 132.894 44.9974 133.05 45.1797 133.154C45.3685 133.252 45.5964 133.301 45.8633 133.301C46.2279 133.301 46.5436 133.223 46.8105 133.066C47.084 132.904 47.2923 132.708 47.4355 132.48C47.5853 132.253 47.6439 132.044 47.6113 131.855L48.1289 132.803C48.0768 133.05 47.9792 133.311 47.8359 133.584C47.6992 133.857 47.5202 134.118 47.2988 134.365C47.0775 134.613 46.8105 134.814 46.498 134.971C46.1855 135.12 45.8242 135.195 45.4141 135.195C44.8216 135.195 44.2943 135.072 43.832 134.824C43.3698 134.577 43.0052 134.222 42.7383 133.76C42.4779 133.291 42.3477 132.731 42.3477 132.08C42.3477 131.553 42.4355 131.074 42.6113 130.645C42.7871 130.215 43.0475 129.847 43.3926 129.541C43.7376 129.229 44.1706 128.988 44.6914 128.818C45.2188 128.649 45.834 128.564 46.5371 128.564H47.7969ZM57.7383 124.434H59.7988V135.039C59.7988 135.99 59.623 136.768 59.2715 137.373C58.9264 137.985 58.4447 138.438 57.8262 138.73C57.2077 139.023 56.4915 139.17 55.6777 139.17C55.3783 139.17 55.0234 139.121 54.6133 139.023C54.2031 138.926 53.8027 138.783 53.4121 138.594C53.0215 138.405 52.696 138.171 52.4355 137.891L53.2656 136.309C53.5716 136.621 53.9329 136.862 54.3496 137.031C54.7663 137.207 55.1667 137.295 55.5508 137.295C55.9674 137.295 56.319 137.223 56.6055 137.08C56.8984 136.943 57.123 136.712 57.2793 136.387C57.4355 136.068 57.5137 135.635 57.5137 135.088V126.826L57.7383 124.434ZM51.7617 130.146V129.316C51.7617 128.451 51.8431 127.702 52.0059 127.07C52.1686 126.432 52.403 125.902 52.709 125.479C53.015 125.055 53.3893 124.743 53.832 124.541C54.2747 124.339 54.7695 124.238 55.3164 124.238C55.8828 124.238 56.3613 124.359 56.752 124.6C57.1491 124.834 57.4714 125.169 57.7188 125.605C57.9727 126.042 58.1712 126.562 58.3145 127.168C58.4577 127.767 58.5618 128.438 58.627 129.18V130.332C58.5618 131.048 58.4512 131.706 58.2949 132.305C58.1387 132.897 57.9271 133.408 57.6602 133.838C57.3997 134.268 57.0742 134.603 56.6836 134.844C56.2995 135.078 55.8372 135.195 55.2969 135.195C54.7565 135.195 54.2682 135.088 53.832 134.873C53.3958 134.658 53.0215 134.339 52.709 133.916C52.403 133.493 52.1686 132.969 52.0059 132.344C51.8431 131.712 51.7617 130.98 51.7617 130.146ZM54.0371 129.316V130.146C54.0371 130.687 54.0729 131.152 54.1445 131.543C54.2227 131.934 54.3366 132.256 54.4863 132.51C54.6361 132.757 54.8314 132.943 55.0723 133.066C55.3132 133.184 55.5996 133.242 55.9316 133.242C56.3678 133.242 56.7194 133.138 56.9863 132.93C57.2598 132.721 57.4681 132.441 57.6113 132.09C57.7611 131.732 57.8652 131.335 57.9238 130.898V128.623C57.8913 128.278 57.8262 127.959 57.7285 127.666C57.6374 127.367 57.5104 127.106 57.3477 126.885C57.1914 126.663 56.9961 126.491 56.7617 126.367C56.5339 126.237 56.2637 126.172 55.9512 126.172C55.6257 126.172 55.3392 126.237 55.0918 126.367C54.8509 126.491 54.6523 126.683 54.4961 126.943C54.3398 127.197 54.2227 127.523 54.1445 127.92C54.0729 128.311 54.0371 128.776 54.0371 129.316ZM66.127 135.195C65.4434 135.195 64.8346 135.094 64.3008 134.893C63.7669 134.684 63.3145 134.378 62.9434 133.975C62.5723 133.564 62.2891 133.063 62.0938 132.471C61.8984 131.872 61.8008 131.178 61.8008 130.391V129.375C61.8008 128.483 61.9017 127.715 62.1035 127.07C62.3118 126.419 62.5983 125.885 62.9629 125.469C63.3275 125.052 63.7572 124.743 64.252 124.541C64.7533 124.339 65.2969 124.238 65.8828 124.238C66.5469 124.238 67.123 124.346 67.6113 124.561C68.0996 124.775 68.5 125.098 68.8125 125.527C69.1315 125.957 69.3659 126.488 69.5156 127.119C69.6719 127.751 69.75 128.477 69.75 129.297V130.439H62.8945V128.721H67.5039V128.477C67.4909 127.995 67.4323 127.581 67.3281 127.236C67.224 126.885 67.0547 126.618 66.8203 126.436C66.5924 126.247 66.2767 126.152 65.873 126.152C65.5801 126.152 65.3197 126.208 65.0918 126.318C64.8639 126.429 64.6751 126.608 64.5254 126.855C64.3822 127.103 64.2715 127.435 64.1934 127.852C64.1152 128.262 64.0762 128.77 64.0762 129.375V130.391C64.0762 130.918 64.1217 131.364 64.2129 131.729C64.3105 132.093 64.4538 132.393 64.6426 132.627C64.8314 132.855 65.0592 133.024 65.3262 133.135C65.5996 133.239 65.9154 133.291 66.2734 133.291C66.8008 133.291 67.2533 133.193 67.6309 132.998C68.015 132.796 68.347 132.536 68.627 132.217L69.6328 133.613C69.444 133.867 69.1901 134.118 68.8711 134.365C68.5521 134.606 68.1647 134.805 67.709 134.961C67.2598 135.117 66.7324 135.195 66.127 135.195Z" fill="#CC00CC"/>
</g>
<defs>
<filter id="filter0_d_27_9449" x="0" y="0" width="102" height="221" filterUnits="userSpaceOnUse" color-interpolation-filters="sRGB">
<feFlood flood-opacity="0" result="BackgroundImageFix"/>
<feColorMatrix in="SourceAlpha" type="matrix" values="0 0 0 0 0 0 0 0 0 0 0 0 0 0 0 0 0 0 127 0" result="hardAlpha"/>
<feOffset/>
<feGaussianBlur stdDeviation="0.5"/>
<feComposite in2="hardAlpha" operator="out"/>
<feColorMatrix type="matrix" values="0 0 0 0 0.988235 0 0 0 0 0.133333 0 0 0 0 0.576471 0 0 0 1 0"/>
<feBlend mode="normal" in2="BackgroundImageFix" result="effect1_dropShadow_27_9449"/>
<feBlend mode="normal" in="SourceGraphic" in2="effect1_dropShadow_27_9449" result="shape"/>
</filter>
</defs>
</svg>
