<svg width="1008" height="384" viewBox="0 0 1008 384" xmlns="http://www.w3.org/2000/svg">
<path class="nl-logo-no" d="M37.76 288C33.4933 288 29.76 286.613 26.56 283.84C23.36 280.853 21.76 276.907 21.76 272C21.76 255.147 21.6533 240.64 21.44 228.48C21.0133 192.213 20.8 160.747 20.8 134.08C20.8 129.173 22.2933 125.333 25.28 122.56C28.2667 119.787 31.8933 118.4 36.16 118.4C40.64 118.4 44.48 119.893 47.68 122.88C51.0933 125.653 52.8 129.6 52.8 134.72V144.64C66.0267 127.36 83.4133 118.72 104.96 118.72C123.52 118.72 137.707 125.227 147.52 138.24C157.547 151.253 162.56 168.747 162.56 190.72C162.56 215.04 162.24 231.04 161.6 238.72L160 260.16L159.04 273.92C158.613 278.187 156.907 281.6 153.92 284.16C150.933 286.72 147.413 288 143.36 288C139.093 288 135.36 286.613 132.16 283.84C128.96 280.853 127.36 276.907 127.36 272C127.36 268.587 128.107 256.747 129.6 236.48C130.667 222.613 131.2 211.733 131.2 203.84C131.2 185.707 128.64 172.373 123.52 163.84C118.4 155.093 110.507 150.72 99.84 150.72C92.16 150.72 84.16 153.067 75.84 157.76C67.7333 162.453 60.0533 168.427 52.8 175.68L53.44 221.12L53.76 272C53.76 276.907 52.16 280.853 48.96 283.84C45.76 286.613 42.0267 288 37.76 288ZM288.465 285.76C260.305 292.587 237.798 286.933 220.945 268.8C207.505 254.933 199.185 237.12 195.985 215.36C193.638 198.293 195.665 182.08 202.065 166.72C209.745 147.093 221.905 132.587 238.545 123.2C241.958 121.28 246.225 119.893 251.345 119.04C251.558 119.04 253.052 118.933 255.825 118.72C256.892 118.507 257.745 118.293 258.385 118.08C261.585 117.44 264.785 117.76 267.985 119.04C268.838 119.04 270.865 119.147 274.065 119.36C277.265 119.36 279.398 119.467 280.465 119.68C281.532 119.68 283.345 119.893 285.905 120.32C288.678 120.533 290.918 120.853 292.625 121.28L298.705 123.52C301.265 124.373 303.718 125.44 306.065 126.72C308.412 128 310.972 129.493 313.745 131.2C327.612 140.587 337.212 153.813 342.545 170.88C347.878 187.733 349.265 201.387 346.705 211.84C344.785 223.36 341.372 234.133 336.465 244.16C331.558 253.973 324.732 262.72 315.985 270.4C307.452 278.08 298.278 283.2 288.465 285.76ZM278.545 252.48C287.718 251.2 295.505 246.507 301.905 238.4C308.518 230.08 312.785 221.333 314.705 212.16C316.838 202.987 316.092 192.96 312.465 182.08C309.052 170.987 303.505 162.987 295.825 158.08C293.478 156.373 291.558 155.2 290.065 154.56C288.572 153.707 286.758 153.067 284.625 152.64C282.705 152 281.105 151.68 279.825 151.68C278.758 151.68 276.305 151.573 272.465 151.36C268.625 151.147 265.212 150.933 262.225 150.72C261.585 150.72 260.838 150.613 259.985 150.4C257.638 150.613 256.358 150.72 256.145 150.72L253.905 151.36C244.518 156.48 237.265 164.693 232.145 176C227.238 187.093 225.852 198.613 227.985 210.56C230.332 225.067 235.558 236.053 243.665 243.52C252.412 251.627 264.038 254.613 278.545 252.48Z" />
<path  class="nl-logo-latin" d="M454.2 272.64C453.987 277.12 452.28 280.853 449.08 283.84C445.88 286.827 442.04 288.213 437.56 288C433.08 287.787 429.347 286.08 426.36 282.88C423.373 279.68 421.987 275.84 422.2 271.36C423.053 242.987 423.48 221.44 423.48 206.72C423.48 192 423.267 170.027 422.84 140.8C422.413 111.573 422.2 89.6 422.2 74.88C422.2 70.4 423.693 66.6667 426.68 63.68C429.88 60.48 433.72 58.88 438.2 58.88C442.68 58.88 446.413 60.48 449.4 63.68C452.6 66.6667 454.2 70.4 454.2 74.88C454.2 89.6 454.413 110.507 454.84 137.6C455.267 164.693 455.373 189.333 455.16 211.52C455.16 233.493 454.84 253.867 454.2 272.64ZM581.823 282.88C574.143 285.867 565.396 287.573 555.583 288C545.983 288.427 537.023 287.36 528.703 284.8C520.383 282.027 513.023 277.867 506.623 272.32C495.529 263.147 488.383 251.733 485.183 238.08C481.983 224.427 481.876 212.16 484.863 201.28C487.849 190.4 492.329 179.84 498.303 169.6C504.489 159.147 511.103 150.4 518.143 143.36C525.396 136.107 533.716 130.027 543.103 125.12C552.489 120.213 562.303 117.867 572.543 118.08C582.783 118.08 593.556 120.853 604.863 126.4C606.569 127.253 608.383 128.533 610.303 130.24C612.436 131.947 614.249 133.44 615.743 134.72L619.903 138.88C621.183 140.16 621.823 140.907 621.823 141.12C625.236 144.107 627.049 147.947 627.263 152.64C630.036 165.44 631.849 178.88 632.703 192.96C633.556 207.04 633.769 220.267 633.343 232.64C633.129 245.013 633.343 258.133 633.983 272C634.196 276.267 632.809 280 629.823 283.2C626.836 286.4 623.103 288.107 618.623 288.32C614.143 288.533 610.303 287.147 607.103 284.16C603.903 281.173 602.196 277.547 601.983 273.28V268.48C595.583 275.093 588.863 279.893 581.823 282.88ZM567.423 254.08C570.623 253.227 573.183 252.373 575.103 251.52C577.023 250.667 579.369 249.387 582.143 247.68C585.129 245.973 588.223 243.84 591.423 241.28C594.623 238.72 597.503 235.52 600.063 231.68C600.489 231.253 601.023 230.827 601.663 230.4C601.663 201.6 599.849 178.453 596.223 160.96C595.583 160.107 594.836 159.36 593.983 158.72C593.343 157.867 592.809 157.227 592.383 156.8C592.169 156.373 591.743 156.053 591.103 155.84C590.676 155.413 590.143 154.987 589.503 154.56C579.263 149.013 568.489 148.907 557.183 154.24C545.876 159.36 535.956 169.067 527.423 183.36C518.889 197.867 514.623 210.56 514.623 221.44C514.836 232.107 518.996 240.96 527.103 248C532.009 252.053 538.089 254.613 545.343 255.68C552.596 256.747 559.956 256.213 567.423 254.08ZM727.233 287.04C725.953 286.613 723.286 285.973 719.233 285.12C715.393 284.267 711.979 283.307 708.993 282.24C706.219 281.173 702.913 279.68 699.073 277.76C695.446 275.627 692.139 272.853 689.153 269.44C686.166 265.813 683.606 261.547 681.473 256.64C679.126 250.88 677.633 239.573 676.993 222.72C676.353 209.707 676.246 192.96 676.673 172.48C676.673 168.64 676.779 162.24 676.993 153.28L674.432 153.6C669.953 154.027 666.006 152.853 662.593 150.08C659.179 147.307 657.153 143.787 656.513 139.52C656.086 135.04 657.259 131.093 660.033 127.68C662.806 124.267 666.326 122.24 670.593 121.6L677.953 120.96C678.166 109.653 678.486 98.24 678.913 86.72C679.126 82.24 680.833 78.5067 684.033 75.52C687.233 72.5333 691.073 71.1467 695.552 71.36C700.033 71.5733 703.766 73.28 706.753 76.48C709.739 79.68 711.126 83.52 710.913 88L709.953 118.4L720.513 117.76C724.993 117.547 728.833 118.827 732.033 121.6C735.446 124.373 737.259 128 737.473 132.48C737.899 136.96 736.726 140.907 733.953 144.32C731.179 147.52 727.553 149.333 723.073 149.76L708.993 150.4C708.779 160.64 708.673 168.107 708.673 172.8C708.246 192.853 708.353 209.173 708.993 221.76C709.419 234.56 710.059 241.92 710.913 243.84C711.766 245.76 712.406 247.147 712.833 248C713.259 248.64 714.006 249.387 715.073 250.24C716.353 250.88 717.633 251.307 718.913 251.52C720.193 251.733 722.539 252.373 725.953 253.44C729.579 254.293 733.419 255.467 737.473 256.96C741.526 258.24 744.513 260.907 746.433 264.96C748.566 268.8 748.886 272.853 747.392 277.12C746.113 281.173 743.446 284.267 739.393 286.4C735.553 288.32 731.499 288.533 727.233 287.04ZM772.557 272.64C772.131 256.64 772.131 232.107 772.557 199.04C773.198 165.973 773.518 144.32 773.518 134.08C773.518 129.6 775.011 125.867 777.998 122.88C781.198 119.68 785.038 118.08 789.518 118.08C793.998 118.08 797.731 119.68 800.718 122.88C803.918 125.867 805.518 129.6 805.518 134.08C805.518 144.32 805.198 165.867 804.558 198.72C804.131 231.573 804.131 256 804.558 272C804.558 276.48 803.064 280.32 800.078 283.52C797.091 286.72 793.358 288.32 788.878 288.32C784.398 288.32 780.558 286.827 777.358 283.84C774.157 280.853 772.557 277.12 772.557 272.64ZM802.318 62.72C805.944 66.3467 807.758 70.8267 807.758 76.16C807.758 81.4933 805.944 85.9733 802.318 89.6C798.691 93.2267 794.211 95.04 788.878 95.04C783.544 95.04 779.064 93.2267 775.438 89.6C771.811 85.9733 769.998 81.4933 769.998 76.16C769.998 70.8267 771.811 66.3467 775.438 62.72C779.064 59.0933 783.544 57.28 788.878 57.28C794.424 57.0667 798.904 58.88 802.318 62.72ZM864.198 288C859.931 288 856.198 286.613 852.998 283.84C849.798 280.853 848.198 276.907 848.198 272C848.198 255.147 848.091 240.64 847.878 228.48C847.451 192.213 847.238 160.747 847.238 134.08C847.238 129.173 848.731 125.333 851.718 122.56C854.704 119.787 858.331 118.4 862.598 118.4C867.078 118.4 870.918 119.893 874.118 122.88C877.531 125.653 879.238 129.6 879.238 134.72V144.64C892.464 127.36 909.851 118.72 931.398 118.72C949.958 118.72 964.144 125.227 973.958 138.24C983.984 151.253 988.998 168.747 988.998 190.72C988.998 215.04 988.678 231.04 988.037 238.72L986.438 260.16L985.478 273.92C985.051 278.187 983.344 281.6 980.358 284.16C977.371 286.72 973.851 288 969.798 288C965.531 288 961.798 286.613 958.598 283.84C955.398 280.853 953.798 276.907 953.798 272C953.798 268.587 954.544 256.747 956.038 236.48C957.104 222.613 957.638 211.733 957.638 203.84C957.638 185.707 955.078 172.373 949.958 163.84C944.838 155.093 936.944 150.72 926.278 150.72C918.598 150.72 910.598 153.067 902.278 157.76C894.171 162.453 886.491 168.427 879.238 175.68L879.878 221.12L880.198 272C880.198 276.907 878.598 280.853 875.398 283.84C872.198 286.613 868.464 288 864.198 288Z" />
</svg>
