<svg width="1515" height="451" viewBox="0 0 1515 451" fill="none" xmlns="http://www.w3.org/2000/svg">
<path d="M271.44 101.2C266.107 101.2 261.52 103.12 257.68 106.96C253.84 110.587 251.813 115.067 251.6 120.4V285.52C251.6 299.813 252.56 311.867 254.48 321.68L255.44 326.48H252.56L90.96 172.56V299.6C90.96 304.933 92.88 309.52 96.72 313.36C100.56 316.987 105.147 318.8 110.48 318.8H116.56V322H19.6V318.8H25.36C30.9067 318.8 35.6 316.987 39.44 313.36C43.28 309.52 45.2 304.827 45.2 299.28V133.2C45.2 119.12 44.24 107.387 42.32 98L41.68 93.2H44.56L206.16 247.12V120.72C205.947 115.173 203.92 110.587 200.08 106.96C196.24 103.12 191.653 101.2 186.32 101.2H180.56V98H277.52V101.2H271.44Z" fill="#EC0000"/>
<path d="M338.409 144.091L338.428 144.074L338.447 144.056C359.023 124.634 385.846 114.6 419.88 114.6C454.146 114.6 481.069 124.645 501.633 144.056L501.652 144.074L501.671 144.091C522.121 163.204 532.58 188.351 532.58 220.58C532.58 252.799 522.126 278.072 501.651 297.408C481.094 316.61 454.164 326.56 419.88 326.56C385.828 326.56 358.997 316.62 338.429 297.407C317.954 278.071 307.5 252.799 307.5 220.58C307.5 188.351 317.959 163.204 338.409 144.091Z" fill="white" stroke="#EC0000" stroke-width="21"/>
<path d="M493.084 283.247L493.112 283.245L493.139 283.243C502.139 282.558 511.714 278.114 521.824 270.31C524.497 268.246 527.166 266.017 529.829 263.625L530.663 262.875L530.658 261.753L530.647 259.279L530.625 254.412L526.682 257.264C516.824 264.395 508.148 266.721 500.478 265.001C493.57 263.294 486.945 259.911 480.601 254.784L480.471 254.679L480.329 254.593C479.182 253.895 477.253 252.44 474.468 250.124L474.461 250.118L427.81 211.628L427.794 211.614L427.777 211.601L375.865 170.239C365.917 162.101 356.166 158.016 346.688 158.598C337.384 159.169 327.578 163.617 317.309 171.545C315.38 173.034 313.453 174.606 311.529 176.26L310.653 177.012L310.658 178.167L310.669 180.642L310.692 185.607L314.667 182.632C321.442 177.563 327.021 175.258 331.495 175.153C334.244 175.324 336.643 175.448 338.691 175.523C340.195 175.579 342.204 176.171 344.789 177.551C347.323 179.093 349.318 180.231 350.733 180.926C351.818 181.633 353.676 182.995 356.36 185.068C358.823 187.028 360.513 188.335 361.289 188.851L408.68 225.577L460.338 270.035C460.341 270.036 460.343 270.038 460.345 270.04C470.946 279.284 481.879 283.85 493.084 283.247Z" fill="#EC0000" stroke="#EC0000" stroke-width="5"/>
<path d="M826.36 366.48C848.547 366.48 866.467 362.107 880.12 353.36L882.36 355.92C864.013 381.307 841.187 395.387 813.88 398.16C808.12 398.8 803.107 399.12 798.84 399.12C794.787 399.12 789.987 398.907 784.44 398.48C779.107 398.267 771.533 396.88 761.72 394.32C751.907 391.76 743.267 389.093 735.8 386.32C728.333 383.76 719.693 380.24 709.88 375.76C700.067 371.493 691.96 367.653 685.56 364.24C679.16 361.04 671.48 357.093 662.52 352.4C653.773 347.92 646.093 344.08 639.48 340.88C632.867 337.68 626.467 334.907 620.28 332.56C602.787 325.52 584.867 322 566.52 322V318.8H570.68C576.227 318.8 580.92 316.88 584.76 313.04C588.813 309.2 590.947 304.4 591.16 298.64V121.36C590.947 115.6 588.813 110.8 584.76 106.96C580.92 103.12 576.227 101.2 570.68 101.2H566.52V98H663.8L663.48 101.2H660.28C652.173 101.2 646.093 104.507 642.04 111.12C640.12 114.107 639.16 117.52 639.16 121.36V306.96C639.16 314 640.547 318.907 643.32 321.68C646.093 324.24 649.187 326.053 652.6 327.12C732.813 353.36 790.733 366.48 826.36 366.48ZM925.803 318.8H928.683V322H826.603V318.8H829.483C834.176 318.8 837.589 317.413 839.723 314.64C842.069 311.653 843.243 308.88 843.243 306.32C843.243 303.76 842.709 301.2 841.643 298.64L825.963 259.28H751.083L734.443 298.64C733.376 301.413 732.843 304.08 732.843 306.64C732.843 308.987 733.909 311.653 736.043 314.64C738.389 317.413 742.016 318.8 746.923 318.8H749.483V322H681.003V318.8H683.883C688.789 318.8 693.696 317.307 698.603 314.32C703.509 311.333 707.563 306.853 710.763 300.88L784.683 133.52C794.709 112.4 800.043 98.4267 800.683 91.6H803.563L898.603 300.24C901.803 306.427 905.856 311.12 910.763 314.32C915.669 317.307 920.683 318.8 925.803 318.8ZM756.523 245.84H820.523L789.483 167.12L756.523 245.84ZM1021.46 111.12V298.96C1021.67 304.507 1023.7 309.2 1027.54 313.04C1031.59 316.88 1036.39 318.8 1041.94 318.8H1045.78L1046.1 322H948.82V318.8H952.98C958.313 318.8 962.9 316.88 966.74 313.04C970.793 309.2 973.033 304.613 973.46 299.28V111.12H930.26C920.447 111.333 912.66 114.427 906.9 120.4C901.14 126.373 898.26 134.16 898.26 143.76V147.6H895.06V91.92C898.047 93.2 903.38 94.48 911.06 95.76C918.953 97.04 926.207 97.68 932.82 97.68H1061.78C1072.23 97.4667 1080.77 96.6133 1087.38 95.12C1093.99 93.6267 1098.05 92.56 1099.54 91.92V147.6H1096.34V143.76C1096.34 134.16 1093.46 126.373 1087.7 120.4C1081.94 114.427 1074.15 111.333 1064.34 111.12H1021.46ZM1121.31 318.8C1126.85 318.8 1131.55 316.88 1135.39 313.04C1139.44 308.987 1141.57 304.187 1141.79 298.64V121.04C1141.57 115.493 1139.44 110.8 1135.39 106.96C1131.55 103.12 1126.85 101.2 1121.31 101.2H1117.15V98H1214.43L1214.11 101.2H1210.27C1204.72 101.2 1199.92 103.12 1195.87 106.96C1191.81 110.8 1189.79 115.493 1189.79 121.04V298.64C1189.79 304.187 1191.81 308.987 1195.87 313.04C1199.92 316.88 1204.72 318.8 1210.27 318.8H1214.11L1214.43 322H1117.15V318.8H1121.31ZM1488.58 101.2C1483.25 101.2 1478.66 103.12 1474.82 106.96C1470.98 110.587 1468.96 115.067 1468.74 120.4V285.52C1468.74 299.813 1469.7 311.867 1471.62 321.68L1472.58 326.48H1469.7L1308.1 172.56V299.6C1308.1 304.933 1310.02 309.52 1313.86 313.36C1317.7 316.987 1322.29 318.8 1327.62 318.8H1333.7V322H1236.74V318.8H1242.5C1248.05 318.8 1252.74 316.987 1256.58 313.36C1260.42 309.52 1262.34 304.827 1262.34 299.28V133.2C1262.34 119.12 1261.38 107.387 1259.46 98L1258.82 93.2H1261.7L1423.3 247.12V120.72C1423.09 115.173 1421.06 110.587 1417.22 106.96C1413.38 103.12 1408.8 101.2 1403.46 101.2H1397.7V98H1494.66V101.2H1488.58Z" fill="#4048C1"/>
</svg>
