<svg width="1127" height="422" viewBox="0 0 1127 422" xmlns="http://www.w3.org/2000/svg">
<path d="M5.9375 335V302.969L25.625 297.969V203.125L2.1875 198.125V165.938H77.5L79.375 189.531C85 181.094 91.875 174.531 100 169.844C108.229 165.156 117.552 162.812 127.969 162.812C143.802 162.812 156.302 168.177 165.469 178.906C174.635 189.635 179.219 206.667 179.219 230V297.969L198.906 302.969V335H108.281V302.969L124.219 297.969V229.844C124.219 220.781 122.396 214.375 118.75 210.625C115.104 206.771 109.896 204.844 103.125 204.844C98.0208 204.844 93.6458 205.781 90 207.656C86.3542 209.427 83.1771 212.135 80.4688 215.781V297.969L94.5312 302.969V335H5.9375ZM291.719 338.281C274.323 338.281 259.427 334.688 247.031 327.5C234.74 320.208 225.312 310.104 218.75 297.188C212.292 284.167 209.062 269.115 209.062 252.031V248.906C209.062 232.031 212.292 217.135 218.75 204.219C225.312 191.302 234.74 181.198 247.031 173.906C259.323 166.51 274.115 162.812 291.406 162.812C308.802 162.812 323.594 166.458 335.781 173.75C348.073 181.042 357.448 191.146 363.906 204.062C370.469 216.979 373.75 231.927 373.75 248.906V252.031C373.75 269.01 370.469 284.01 363.906 297.031C357.448 309.948 348.073 320.052 335.781 327.344C323.594 334.635 308.906 338.281 291.719 338.281ZM291.719 296.562C298.385 296.562 303.698 294.792 307.656 291.25C311.719 287.604 314.635 282.448 316.406 275.781C318.281 269.115 319.219 261.198 319.219 252.031V248.906C319.219 240.052 318.281 232.344 316.406 225.781C314.635 219.115 311.719 213.958 307.656 210.312C303.594 206.562 298.177 204.688 291.406 204.688C284.74 204.688 279.375 206.562 275.312 210.312C271.25 213.958 268.333 219.115 266.562 225.781C264.792 232.344 263.906 240.052 263.906 248.906V252.031C263.906 261.302 264.792 269.271 266.562 275.938C268.333 282.604 271.25 287.708 275.312 291.25C279.375 294.792 284.844 296.562 291.719 296.562Z" />
<path d="M429.625 335V302.969L449.625 297.969V128.438L425.875 123.438V91.25H504.469V297.969L524.312 302.969V335H429.625ZM592.75 338.281C576.396 338.281 563.062 333.646 552.75 324.375C542.438 315.104 537.281 302.76 537.281 287.344C537.281 276.823 540.094 267.5 545.719 259.375C551.448 251.25 559.99 244.896 571.344 240.312C582.802 235.625 597.125 233.281 614.312 233.281H631.969V223.281C631.969 216.51 630.042 210.781 626.188 206.094C622.333 201.302 616.24 198.906 607.906 198.906C604.365 198.906 601.031 199.375 597.906 200.312C594.885 201.146 592.125 202.396 589.625 204.062L585.875 225.625H547.281L546.5 178.594C556.083 174.323 566.083 170.625 576.5 167.5C587.021 164.375 598.74 162.812 611.656 162.812C634.677 162.812 652.958 168.125 666.5 178.75C680.042 189.271 686.812 204.323 686.812 223.906V286.25C686.812 288.646 686.812 290.99 686.812 293.281C686.917 295.573 687.177 297.76 687.594 299.844L705.875 302.969V335H641.812C640.458 333.125 639 330.625 637.438 327.5C635.875 324.375 634.781 321.25 634.156 318.125C629.052 324.479 623.323 329.427 616.969 332.969C610.615 336.51 602.542 338.281 592.75 338.281ZM609.625 299.531C613.583 299.531 617.542 298.75 621.5 297.188C625.562 295.521 629.052 293.073 631.969 289.844V265.469H614.938C607.542 265.469 601.812 267.083 597.75 270.312C593.792 273.542 591.812 277.812 591.812 283.125C591.812 288.229 593.479 292.24 596.812 295.156C600.146 298.073 604.417 299.531 609.625 299.531ZM779 338.594C761.292 338.594 747.802 333.906 738.531 324.531C729.365 315.052 724.781 300.104 724.781 279.688V203.75H703.688V165.938H724.781V124.219H779.312V165.938H806.969V203.75H779.312V279.531C779.312 285.052 780.562 288.906 783.062 291.094C785.562 293.281 789 294.375 793.375 294.375C795.25 294.375 797.125 294.271 799 294.062C800.875 293.854 802.75 293.594 804.625 293.281L808.375 334.219C803.583 335.573 798.74 336.615 793.844 337.344C789.052 338.177 784.104 338.594 779 338.594ZM828.375 335V302.969L848.219 297.969V203.125L824.625 198.125V165.938H903.062V297.969L922.75 302.969V335H828.375ZM846.656 133.906V91.25H903.062V133.906H846.656ZM931.5 335V302.969L951.188 297.969V203.125L927.75 198.125V165.938H1003.06L1004.94 189.531C1010.56 181.094 1017.44 174.531 1025.56 169.844C1033.79 165.156 1043.11 162.812 1053.53 162.812C1069.36 162.812 1081.86 168.177 1091.03 178.906C1100.2 189.635 1104.78 206.667 1104.78 230V297.969L1124.47 302.969V335H1033.84V302.969L1049.78 297.969V229.844C1049.78 220.781 1047.96 214.375 1044.31 210.625C1040.67 206.771 1035.46 204.844 1028.69 204.844C1023.58 204.844 1019.21 205.781 1015.56 207.656C1011.92 209.427 1008.74 212.135 1006.03 215.781V297.969L1020.09 302.969V335H931.5Z" />
</svg>
