<svg width="1466" height="451" viewBox="0 0 1466 451" fill="none" xmlns="http://www.w3.org/2000/svg">
<path d="M258.96 101.2C253.627 101.2 249.04 103.12 245.2 106.96C241.36 110.587 239.333 115.067 239.12 120.4V285.52C239.12 297.893 239.867 309.627 241.36 320.72L242 326.48H239.12L64.72 140.24V299.6C64.72 304.933 66.64 309.52 70.48 313.36C74.32 316.987 78.9067 318.8 84.24 318.8H90.32V322H24.4V318.8H30.48C35.8133 318.8 40.4 316.987 44.24 313.36C48.08 309.52 50 304.827 50 299.28V133.2C50 120.187 49.2533 108.56 47.76 98.32L47.12 93.2H50.32L224.72 279.44V120.72C224.507 115.173 222.48 110.587 218.64 106.96C214.8 103.12 210.213 101.2 204.88 101.2H198.8V98H264.72V101.2H258.96Z" fill="#EC0000"/>
<path d="M331.403 144.085L331.422 144.067L331.441 144.049C352.018 124.626 378.844 114.591 412.88 114.591C447.148 114.591 474.074 124.637 494.639 144.049L494.658 144.067L494.677 144.085C515.129 163.199 525.589 188.348 525.589 220.58C525.589 252.801 515.134 278.076 494.657 297.413C474.099 316.617 447.166 326.568 412.88 326.568C378.825 326.568 351.993 316.628 331.422 297.413C310.946 278.076 300.491 252.801 300.491 220.58C300.491 188.348 310.951 163.199 331.403 144.085Z" stroke="#EC0000" stroke-width="21.0017"/>
<path d="M303.669 180.642L303.692 185.607L307.667 182.632C314.442 177.563 320.021 175.258 324.495 175.153C327.244 175.324 329.643 175.448 331.691 175.523C333.195 175.579 335.204 176.171 337.788 177.551C340.323 179.093 342.318 180.231 343.733 180.926C344.818 181.633 346.676 182.995 349.36 185.068C351.823 187.028 353.513 188.335 354.289 188.851L401.679 225.577L453.338 270.035C453.34 270.036 453.342 270.038 453.344 270.04C463.946 279.284 474.879 283.85 486.084 283.247L486.111 283.245L486.139 283.243C495.139 282.558 504.714 278.114 514.824 270.31C517.497 268.246 520.166 266.017 522.829 263.625L523.663 262.875L523.658 261.753L523.647 259.279L523.625 254.412L519.682 257.264C509.824 264.395 501.148 266.721 493.477 265.001C486.569 263.294 479.945 259.911 473.6 254.784L473.471 254.679L473.329 254.593C472.182 253.895 470.253 252.44 467.468 250.124L467.461 250.118L420.81 211.628L420.794 211.614L420.777 211.601L368.865 170.239C358.916 162.101 349.165 158.016 339.688 158.598C330.384 159.169 320.578 163.617 310.309 171.545C308.38 173.034 306.453 174.606 304.529 176.26L303.653 177.012L303.658 178.167L303.669 180.642Z" fill="#EC0000" stroke="#EC0000" stroke-width="5"/>
<path d="M626.08 328.08C671.52 343.867 705.547 354.533 728.16 360.08C750.987 365.84 770.507 368.72 786.72 368.72C803.147 368.72 821.173 364.987 840.8 357.52L842.4 360.08C816.373 378 790.133 386.96 763.68 386.96C736.587 386.96 705.76 378.533 671.2 361.68C644.533 348.453 628 340.453 621.6 337.68C598.773 327.44 580 322.213 565.28 322V318.8H569.44C574.987 318.8 579.68 316.88 583.52 313.04C587.573 309.2 589.707 304.4 589.92 298.64V121.36C589.707 115.813 587.573 111.12 583.52 107.28C579.68 103.227 574.987 101.2 569.44 101.2H565.28V98H635.36V101.2H631.2C625.653 101.2 620.853 103.227 616.8 107.28C612.747 111.12 610.72 115.813 610.72 121.36V306C610.72 309.84 610.933 312.827 611.36 314.96C611.787 316.88 613.173 319.12 615.52 321.68C617.867 324.24 621.387 326.373 626.08 328.08ZM903.638 318.8H906.198V322H834.198V318.8H837.078C841.558 318.8 844.864 317.413 846.998 314.64C849.344 311.653 850.518 308.88 850.518 306.32C850.518 303.76 850.091 301.2 849.238 298.64L828.758 244.24H742.358L720.918 298.96C720.064 301.52 719.638 304.08 719.638 306.64C719.638 308.987 720.704 311.653 722.838 314.64C725.184 317.413 728.598 318.8 733.078 318.8H735.958V322H671.638V318.8H674.518C679.851 318.8 685.078 317.093 690.198 313.68C695.318 310.267 699.478 305.253 702.678 298.64L774.998 126.48C782.891 109.2 786.838 98.2133 786.838 93.52H789.718L875.478 298.64C878.464 305.253 882.518 310.267 887.638 313.68C892.758 317.093 898.091 318.8 903.638 318.8ZM746.198 234.64H824.918L786.518 131.92L746.198 234.64ZM1068.31 126.48C1068.31 121.36 1066.5 116.987 1062.87 113.36C1059.24 109.52 1054.98 107.493 1050.07 107.28H989.27V298.96C989.483 304.507 991.51 309.2 995.35 313.04C999.403 316.88 1004.2 318.8 1009.75 318.8H1013.91V322H943.83V318.8H947.99C953.537 318.8 958.23 316.88 962.07 313.04C966.123 309.2 968.257 304.613 968.47 299.28V107.28H907.67C902.55 107.493 898.177 109.52 894.55 113.36C891.137 116.987 889.43 121.36 889.43 126.48V131.92L886.23 132.24V91.92C889.43 93.2 894.977 94.48 902.87 95.76C910.763 97.04 918.017 97.68 924.63 97.68H1032.79C1043.24 97.68 1051.88 96.9333 1058.71 95.44C1065.75 93.7333 1070.02 92.56 1071.51 91.92V132.24L1068.31 131.92V126.48ZM1101 318.8C1106.55 318.8 1111.24 316.88 1115.08 313.04C1119.14 308.987 1121.27 304.187 1121.48 298.64V121.04C1121.27 115.493 1119.14 110.8 1115.08 106.96C1111.24 103.12 1106.55 101.2 1101 101.2H1096.84V98H1166.92V101.2H1162.76C1157.22 101.2 1152.42 103.12 1148.36 106.96C1144.52 110.8 1142.5 115.493 1142.28 121.04V298.64C1142.28 304.187 1144.31 308.987 1148.36 313.04C1152.42 316.88 1157.22 318.8 1162.76 318.8H1166.92V322H1096.84V318.8H1101ZM1434.73 101.2C1429.39 101.2 1424.81 103.12 1420.97 106.96C1417.13 110.587 1415.1 115.067 1414.89 120.4V285.52C1414.89 297.893 1415.63 309.627 1417.13 320.72L1417.77 326.48H1414.89L1240.49 140.24V299.6C1240.49 304.933 1242.41 309.52 1246.25 313.36C1250.09 316.987 1254.67 318.8 1260.01 318.8H1266.09V322H1200.17V318.8H1206.25C1211.58 318.8 1216.17 316.987 1220.01 313.36C1223.85 309.52 1225.77 304.827 1225.77 299.28V133.2C1225.77 120.187 1225.02 108.56 1223.53 98.32L1222.89 93.2H1226.09L1400.49 279.44V120.72C1400.27 115.173 1398.25 110.587 1394.41 106.96C1390.57 103.12 1385.98 101.2 1380.65 101.2H1374.57V98H1440.49V101.2H1434.73Z" fill="#4048C1"/>
</svg>
